%TF.GenerationSoftware,KiCad,Pcbnew,9.0.5*%
%TF.CreationDate,2025-10-29T22:41:35+01:00*%
%TF.ProjectId,recruitment,72656372-7569-4746-9d65-6e742e6b6963,V0*%
%TF.SameCoordinates,Original*%
%TF.FileFunction,Paste,Top*%
%TF.FilePolarity,Positive*%
%FSLAX46Y46*%
G04 Gerber Fmt 4.6, Leading zero omitted, Abs format (unit mm)*
G04 Created by KiCad (PCBNEW 9.0.5) date 2025-10-29 22:41:35*
%MOMM*%
%LPD*%
G01*
G04 APERTURE LIST*
G04 Aperture macros list*
%AMRoundRect*
0 Rectangle with rounded corners*
0 $1 Rounding radius*
0 $2 $3 $4 $5 $6 $7 $8 $9 X,Y pos of 4 corners*
0 Add a 4 corners polygon primitive as box body*
4,1,4,$2,$3,$4,$5,$6,$7,$8,$9,$2,$3,0*
0 Add four circle primitives for the rounded corners*
1,1,$1+$1,$2,$3*
1,1,$1+$1,$4,$5*
1,1,$1+$1,$6,$7*
1,1,$1+$1,$8,$9*
0 Add four rect primitives between the rounded corners*
20,1,$1+$1,$2,$3,$4,$5,0*
20,1,$1+$1,$4,$5,$6,$7,0*
20,1,$1+$1,$6,$7,$8,$9,0*
20,1,$1+$1,$8,$9,$2,$3,0*%
G04 Aperture macros list end*
%ADD10RoundRect,0.140000X0.140000X0.170000X-0.140000X0.170000X-0.140000X-0.170000X0.140000X-0.170000X0*%
%ADD11RoundRect,0.250000X-0.450000X0.262500X-0.450000X-0.262500X0.450000X-0.262500X0.450000X0.262500X0*%
%ADD12RoundRect,0.090000X0.139000X0.090000X-0.139000X0.090000X-0.139000X-0.090000X0.139000X-0.090000X0*%
%ADD13RoundRect,0.237500X0.300000X0.237500X-0.300000X0.237500X-0.300000X-0.237500X0.300000X-0.237500X0*%
%ADD14RoundRect,0.250000X-0.262500X-0.450000X0.262500X-0.450000X0.262500X0.450000X-0.262500X0.450000X0*%
%ADD15RoundRect,0.200000X0.275000X-0.200000X0.275000X0.200000X-0.275000X0.200000X-0.275000X-0.200000X0*%
%ADD16RoundRect,0.150000X-0.825000X-0.150000X0.825000X-0.150000X0.825000X0.150000X-0.825000X0.150000X0*%
%ADD17RoundRect,0.250000X-0.400000X-0.625000X0.400000X-0.625000X0.400000X0.625000X-0.400000X0.625000X0*%
%ADD18R,2.900000X5.400000*%
%ADD19R,0.500000X1.600000*%
%ADD20R,0.900000X0.600000*%
%ADD21R,1.800000X1.700000*%
%ADD22RoundRect,0.160000X-0.160000X0.197500X-0.160000X-0.197500X0.160000X-0.197500X0.160000X0.197500X0*%
%ADD23R,0.850000X0.650000*%
%ADD24R,0.500000X0.300000*%
%ADD25RoundRect,0.250000X-0.625000X0.400000X-0.625000X-0.400000X0.625000X-0.400000X0.625000X0.400000X0*%
%ADD26RoundRect,0.250000X0.400000X0.600000X-0.400000X0.600000X-0.400000X-0.600000X0.400000X-0.600000X0*%
%ADD27RoundRect,0.250000X0.400000X0.625000X-0.400000X0.625000X-0.400000X-0.625000X0.400000X-0.625000X0*%
%ADD28RoundRect,0.250000X-0.350000X-0.450000X0.350000X-0.450000X0.350000X0.450000X-0.350000X0.450000X0*%
%ADD29RoundRect,0.140000X-0.140000X-0.170000X0.140000X-0.170000X0.140000X0.170000X-0.140000X0.170000X0*%
%ADD30RoundRect,0.075000X0.390000X0.275000X-0.390000X0.275000X-0.390000X-0.275000X0.390000X-0.275000X0*%
%ADD31RoundRect,0.075000X0.075000X0.275000X-0.075000X0.275000X-0.075000X-0.275000X0.075000X-0.275000X0*%
%ADD32RoundRect,0.150000X0.825000X0.150000X-0.825000X0.150000X-0.825000X-0.150000X0.825000X-0.150000X0*%
G04 APERTURE END LIST*
D10*
%TO.C,C6*%
X129980000Y-86000000D03*
X129020000Y-86000000D03*
%TD*%
D11*
%TO.C,R5*%
X148500000Y-49675000D03*
X148500000Y-51500000D03*
%TD*%
D12*
%TO.C,C1*%
X91932500Y-65500000D03*
X91067500Y-65500000D03*
%TD*%
D13*
%TO.C,C2*%
X100500000Y-86500000D03*
X98775000Y-86500000D03*
%TD*%
D14*
%TO.C,R8*%
X135000000Y-80500000D03*
X136825000Y-80500000D03*
%TD*%
D15*
%TO.C,R7*%
X148500000Y-85150000D03*
X148500000Y-83500000D03*
%TD*%
D16*
%TO.C,Ubr1*%
X94025000Y-65595000D03*
X94025000Y-66865000D03*
X94025000Y-68135000D03*
X94025000Y-69405000D03*
X98975000Y-69405000D03*
X98975000Y-68135000D03*
X98975000Y-66865000D03*
X98975000Y-65595000D03*
%TD*%
D17*
%TO.C,R10*%
X110950000Y-71000000D03*
X114050000Y-71000000D03*
%TD*%
D18*
%TO.C,L1*%
X94550000Y-78000000D03*
X104450000Y-78000000D03*
%TD*%
D19*
%TO.C,U2*%
X138300000Y-44000000D03*
X136700000Y-44000000D03*
X135100000Y-44000000D03*
D20*
X133900000Y-46500000D03*
D21*
X135200000Y-48850000D03*
X138200000Y-48850000D03*
D20*
X139500000Y-46500000D03*
%TD*%
D22*
%TO.C,R2*%
X154500000Y-55902500D03*
X154500000Y-57097500D03*
%TD*%
D17*
%TO.C,R9*%
X142500000Y-80500000D03*
X145600000Y-80500000D03*
%TD*%
D16*
%TO.C,U5*%
X120025000Y-84595000D03*
X120025000Y-85865000D03*
X120025000Y-87135000D03*
X120025000Y-88405000D03*
X124975000Y-88405000D03*
X124975000Y-87135000D03*
X124975000Y-85865000D03*
X124975000Y-84595000D03*
%TD*%
D23*
%TO.C,U6*%
X156900000Y-61312500D03*
X156900000Y-62187500D03*
D24*
X156000000Y-61000000D03*
X156000000Y-61500000D03*
X156000000Y-62000000D03*
X156000000Y-62500000D03*
X157800000Y-62500000D03*
X157800000Y-62000000D03*
X157800000Y-61500000D03*
X157800000Y-61000000D03*
%TD*%
D25*
%TO.C,R4*%
X134000000Y-86500000D03*
X134000000Y-89600000D03*
%TD*%
D11*
%TO.C,R6*%
X148500000Y-54500000D03*
X148500000Y-56325000D03*
%TD*%
D26*
%TO.C,ZD1*%
X164250000Y-58500000D03*
X160750000Y-58500000D03*
%TD*%
D14*
%TO.C,Rd1*%
X135587500Y-55500000D03*
X137412500Y-55500000D03*
%TD*%
D27*
%TO.C,R1*%
X161550000Y-53000000D03*
X158450000Y-53000000D03*
%TD*%
D28*
%TO.C,Rd2*%
X142000000Y-55500000D03*
X144000000Y-55500000D03*
%TD*%
D29*
%TO.C,C4*%
X114020000Y-67500000D03*
X114980000Y-67500000D03*
%TD*%
D30*
%TO.C,SD1*%
X168285000Y-58500000D03*
D31*
X167400000Y-58500000D03*
%TD*%
D32*
%TO.C,U1*%
X125475000Y-68905000D03*
X125475000Y-67635000D03*
X125475000Y-66365000D03*
X125475000Y-65095000D03*
X120525000Y-65095000D03*
X120525000Y-66365000D03*
X120525000Y-67635000D03*
X120525000Y-68905000D03*
%TD*%
M02*
