%TF.GenerationSoftware,KiCad,Pcbnew,9.0.5*%
%TF.CreationDate,2025-10-29T22:41:35+01:00*%
%TF.ProjectId,recruitment,72656372-7569-4746-9d65-6e742e6b6963,V0*%
%TF.SameCoordinates,Original*%
%TF.FileFunction,Legend,Top*%
%TF.FilePolarity,Positive*%
%FSLAX46Y46*%
G04 Gerber Fmt 4.6, Leading zero omitted, Abs format (unit mm)*
G04 Created by KiCad (PCBNEW 9.0.5) date 2025-10-29 22:41:35*
%MOMM*%
%LPD*%
G01*
G04 APERTURE LIST*
%ADD10C,0.150000*%
%ADD11C,0.120000*%
G04 APERTURE END LIST*
D10*
X129333333Y-87519580D02*
X129285714Y-87567200D01*
X129285714Y-87567200D02*
X129142857Y-87614819D01*
X129142857Y-87614819D02*
X129047619Y-87614819D01*
X129047619Y-87614819D02*
X128904762Y-87567200D01*
X128904762Y-87567200D02*
X128809524Y-87471961D01*
X128809524Y-87471961D02*
X128761905Y-87376723D01*
X128761905Y-87376723D02*
X128714286Y-87186247D01*
X128714286Y-87186247D02*
X128714286Y-87043390D01*
X128714286Y-87043390D02*
X128761905Y-86852914D01*
X128761905Y-86852914D02*
X128809524Y-86757676D01*
X128809524Y-86757676D02*
X128904762Y-86662438D01*
X128904762Y-86662438D02*
X129047619Y-86614819D01*
X129047619Y-86614819D02*
X129142857Y-86614819D01*
X129142857Y-86614819D02*
X129285714Y-86662438D01*
X129285714Y-86662438D02*
X129333333Y-86710057D01*
X130190476Y-86614819D02*
X130000000Y-86614819D01*
X130000000Y-86614819D02*
X129904762Y-86662438D01*
X129904762Y-86662438D02*
X129857143Y-86710057D01*
X129857143Y-86710057D02*
X129761905Y-86852914D01*
X129761905Y-86852914D02*
X129714286Y-87043390D01*
X129714286Y-87043390D02*
X129714286Y-87424342D01*
X129714286Y-87424342D02*
X129761905Y-87519580D01*
X129761905Y-87519580D02*
X129809524Y-87567200D01*
X129809524Y-87567200D02*
X129904762Y-87614819D01*
X129904762Y-87614819D02*
X130095238Y-87614819D01*
X130095238Y-87614819D02*
X130190476Y-87567200D01*
X130190476Y-87567200D02*
X130238095Y-87519580D01*
X130238095Y-87519580D02*
X130285714Y-87424342D01*
X130285714Y-87424342D02*
X130285714Y-87186247D01*
X130285714Y-87186247D02*
X130238095Y-87091009D01*
X130238095Y-87091009D02*
X130190476Y-87043390D01*
X130190476Y-87043390D02*
X130095238Y-86995771D01*
X130095238Y-86995771D02*
X129904762Y-86995771D01*
X129904762Y-86995771D02*
X129809524Y-87043390D01*
X129809524Y-87043390D02*
X129761905Y-87091009D01*
X129761905Y-87091009D02*
X129714286Y-87186247D01*
X150604819Y-50754166D02*
X150128628Y-51087499D01*
X150604819Y-51325594D02*
X149604819Y-51325594D01*
X149604819Y-51325594D02*
X149604819Y-50944642D01*
X149604819Y-50944642D02*
X149652438Y-50849404D01*
X149652438Y-50849404D02*
X149700057Y-50801785D01*
X149700057Y-50801785D02*
X149795295Y-50754166D01*
X149795295Y-50754166D02*
X149938152Y-50754166D01*
X149938152Y-50754166D02*
X150033390Y-50801785D01*
X150033390Y-50801785D02*
X150081009Y-50849404D01*
X150081009Y-50849404D02*
X150128628Y-50944642D01*
X150128628Y-50944642D02*
X150128628Y-51325594D01*
X149604819Y-49849404D02*
X149604819Y-50325594D01*
X149604819Y-50325594D02*
X150081009Y-50373213D01*
X150081009Y-50373213D02*
X150033390Y-50325594D01*
X150033390Y-50325594D02*
X149985771Y-50230356D01*
X149985771Y-50230356D02*
X149985771Y-49992261D01*
X149985771Y-49992261D02*
X150033390Y-49897023D01*
X150033390Y-49897023D02*
X150081009Y-49849404D01*
X150081009Y-49849404D02*
X150176247Y-49801785D01*
X150176247Y-49801785D02*
X150414342Y-49801785D01*
X150414342Y-49801785D02*
X150509580Y-49849404D01*
X150509580Y-49849404D02*
X150557200Y-49897023D01*
X150557200Y-49897023D02*
X150604819Y-49992261D01*
X150604819Y-49992261D02*
X150604819Y-50230356D01*
X150604819Y-50230356D02*
X150557200Y-50325594D01*
X150557200Y-50325594D02*
X150509580Y-50373213D01*
X122333333Y-81859580D02*
X122285714Y-81907200D01*
X122285714Y-81907200D02*
X122142857Y-81954819D01*
X122142857Y-81954819D02*
X122047619Y-81954819D01*
X122047619Y-81954819D02*
X121904762Y-81907200D01*
X121904762Y-81907200D02*
X121809524Y-81811961D01*
X121809524Y-81811961D02*
X121761905Y-81716723D01*
X121761905Y-81716723D02*
X121714286Y-81526247D01*
X121714286Y-81526247D02*
X121714286Y-81383390D01*
X121714286Y-81383390D02*
X121761905Y-81192914D01*
X121761905Y-81192914D02*
X121809524Y-81097676D01*
X121809524Y-81097676D02*
X121904762Y-81002438D01*
X121904762Y-81002438D02*
X122047619Y-80954819D01*
X122047619Y-80954819D02*
X122142857Y-80954819D01*
X122142857Y-80954819D02*
X122285714Y-81002438D01*
X122285714Y-81002438D02*
X122333333Y-81050057D01*
X122666667Y-80954819D02*
X123285714Y-80954819D01*
X123285714Y-80954819D02*
X122952381Y-81335771D01*
X122952381Y-81335771D02*
X123095238Y-81335771D01*
X123095238Y-81335771D02*
X123190476Y-81383390D01*
X123190476Y-81383390D02*
X123238095Y-81431009D01*
X123238095Y-81431009D02*
X123285714Y-81526247D01*
X123285714Y-81526247D02*
X123285714Y-81764342D01*
X123285714Y-81764342D02*
X123238095Y-81859580D01*
X123238095Y-81859580D02*
X123190476Y-81907200D01*
X123190476Y-81907200D02*
X123095238Y-81954819D01*
X123095238Y-81954819D02*
X122809524Y-81954819D01*
X122809524Y-81954819D02*
X122714286Y-81907200D01*
X122714286Y-81907200D02*
X122666667Y-81859580D01*
X91333333Y-63359580D02*
X91285714Y-63407200D01*
X91285714Y-63407200D02*
X91142857Y-63454819D01*
X91142857Y-63454819D02*
X91047619Y-63454819D01*
X91047619Y-63454819D02*
X90904762Y-63407200D01*
X90904762Y-63407200D02*
X90809524Y-63311961D01*
X90809524Y-63311961D02*
X90761905Y-63216723D01*
X90761905Y-63216723D02*
X90714286Y-63026247D01*
X90714286Y-63026247D02*
X90714286Y-62883390D01*
X90714286Y-62883390D02*
X90761905Y-62692914D01*
X90761905Y-62692914D02*
X90809524Y-62597676D01*
X90809524Y-62597676D02*
X90904762Y-62502438D01*
X90904762Y-62502438D02*
X91047619Y-62454819D01*
X91047619Y-62454819D02*
X91142857Y-62454819D01*
X91142857Y-62454819D02*
X91285714Y-62502438D01*
X91285714Y-62502438D02*
X91333333Y-62550057D01*
X92285714Y-63454819D02*
X91714286Y-63454819D01*
X92000000Y-63454819D02*
X92000000Y-62454819D01*
X92000000Y-62454819D02*
X91904762Y-62597676D01*
X91904762Y-62597676D02*
X91809524Y-62692914D01*
X91809524Y-62692914D02*
X91714286Y-62740533D01*
X99470833Y-88289580D02*
X99423214Y-88337200D01*
X99423214Y-88337200D02*
X99280357Y-88384819D01*
X99280357Y-88384819D02*
X99185119Y-88384819D01*
X99185119Y-88384819D02*
X99042262Y-88337200D01*
X99042262Y-88337200D02*
X98947024Y-88241961D01*
X98947024Y-88241961D02*
X98899405Y-88146723D01*
X98899405Y-88146723D02*
X98851786Y-87956247D01*
X98851786Y-87956247D02*
X98851786Y-87813390D01*
X98851786Y-87813390D02*
X98899405Y-87622914D01*
X98899405Y-87622914D02*
X98947024Y-87527676D01*
X98947024Y-87527676D02*
X99042262Y-87432438D01*
X99042262Y-87432438D02*
X99185119Y-87384819D01*
X99185119Y-87384819D02*
X99280357Y-87384819D01*
X99280357Y-87384819D02*
X99423214Y-87432438D01*
X99423214Y-87432438D02*
X99470833Y-87480057D01*
X99851786Y-87480057D02*
X99899405Y-87432438D01*
X99899405Y-87432438D02*
X99994643Y-87384819D01*
X99994643Y-87384819D02*
X100232738Y-87384819D01*
X100232738Y-87384819D02*
X100327976Y-87432438D01*
X100327976Y-87432438D02*
X100375595Y-87480057D01*
X100375595Y-87480057D02*
X100423214Y-87575295D01*
X100423214Y-87575295D02*
X100423214Y-87670533D01*
X100423214Y-87670533D02*
X100375595Y-87813390D01*
X100375595Y-87813390D02*
X99804167Y-88384819D01*
X99804167Y-88384819D02*
X100423214Y-88384819D01*
X135745833Y-79304819D02*
X135412500Y-78828628D01*
X135174405Y-79304819D02*
X135174405Y-78304819D01*
X135174405Y-78304819D02*
X135555357Y-78304819D01*
X135555357Y-78304819D02*
X135650595Y-78352438D01*
X135650595Y-78352438D02*
X135698214Y-78400057D01*
X135698214Y-78400057D02*
X135745833Y-78495295D01*
X135745833Y-78495295D02*
X135745833Y-78638152D01*
X135745833Y-78638152D02*
X135698214Y-78733390D01*
X135698214Y-78733390D02*
X135650595Y-78781009D01*
X135650595Y-78781009D02*
X135555357Y-78828628D01*
X135555357Y-78828628D02*
X135174405Y-78828628D01*
X136317262Y-78733390D02*
X136222024Y-78685771D01*
X136222024Y-78685771D02*
X136174405Y-78638152D01*
X136174405Y-78638152D02*
X136126786Y-78542914D01*
X136126786Y-78542914D02*
X136126786Y-78495295D01*
X136126786Y-78495295D02*
X136174405Y-78400057D01*
X136174405Y-78400057D02*
X136222024Y-78352438D01*
X136222024Y-78352438D02*
X136317262Y-78304819D01*
X136317262Y-78304819D02*
X136507738Y-78304819D01*
X136507738Y-78304819D02*
X136602976Y-78352438D01*
X136602976Y-78352438D02*
X136650595Y-78400057D01*
X136650595Y-78400057D02*
X136698214Y-78495295D01*
X136698214Y-78495295D02*
X136698214Y-78542914D01*
X136698214Y-78542914D02*
X136650595Y-78638152D01*
X136650595Y-78638152D02*
X136602976Y-78685771D01*
X136602976Y-78685771D02*
X136507738Y-78733390D01*
X136507738Y-78733390D02*
X136317262Y-78733390D01*
X136317262Y-78733390D02*
X136222024Y-78781009D01*
X136222024Y-78781009D02*
X136174405Y-78828628D01*
X136174405Y-78828628D02*
X136126786Y-78923866D01*
X136126786Y-78923866D02*
X136126786Y-79114342D01*
X136126786Y-79114342D02*
X136174405Y-79209580D01*
X136174405Y-79209580D02*
X136222024Y-79257200D01*
X136222024Y-79257200D02*
X136317262Y-79304819D01*
X136317262Y-79304819D02*
X136507738Y-79304819D01*
X136507738Y-79304819D02*
X136602976Y-79257200D01*
X136602976Y-79257200D02*
X136650595Y-79209580D01*
X136650595Y-79209580D02*
X136698214Y-79114342D01*
X136698214Y-79114342D02*
X136698214Y-78923866D01*
X136698214Y-78923866D02*
X136650595Y-78828628D01*
X136650595Y-78828628D02*
X136602976Y-78781009D01*
X136602976Y-78781009D02*
X136507738Y-78733390D01*
X147524819Y-84491666D02*
X147048628Y-84824999D01*
X147524819Y-85063094D02*
X146524819Y-85063094D01*
X146524819Y-85063094D02*
X146524819Y-84682142D01*
X146524819Y-84682142D02*
X146572438Y-84586904D01*
X146572438Y-84586904D02*
X146620057Y-84539285D01*
X146620057Y-84539285D02*
X146715295Y-84491666D01*
X146715295Y-84491666D02*
X146858152Y-84491666D01*
X146858152Y-84491666D02*
X146953390Y-84539285D01*
X146953390Y-84539285D02*
X147001009Y-84586904D01*
X147001009Y-84586904D02*
X147048628Y-84682142D01*
X147048628Y-84682142D02*
X147048628Y-85063094D01*
X146524819Y-84158332D02*
X146524819Y-83491666D01*
X146524819Y-83491666D02*
X147524819Y-83920237D01*
X94976190Y-63554819D02*
X94976190Y-64364342D01*
X94976190Y-64364342D02*
X95023809Y-64459580D01*
X95023809Y-64459580D02*
X95071428Y-64507200D01*
X95071428Y-64507200D02*
X95166666Y-64554819D01*
X95166666Y-64554819D02*
X95357142Y-64554819D01*
X95357142Y-64554819D02*
X95452380Y-64507200D01*
X95452380Y-64507200D02*
X95499999Y-64459580D01*
X95499999Y-64459580D02*
X95547618Y-64364342D01*
X95547618Y-64364342D02*
X95547618Y-63554819D01*
X96023809Y-64554819D02*
X96023809Y-63554819D01*
X96023809Y-63935771D02*
X96119047Y-63888152D01*
X96119047Y-63888152D02*
X96309523Y-63888152D01*
X96309523Y-63888152D02*
X96404761Y-63935771D01*
X96404761Y-63935771D02*
X96452380Y-63983390D01*
X96452380Y-63983390D02*
X96499999Y-64078628D01*
X96499999Y-64078628D02*
X96499999Y-64364342D01*
X96499999Y-64364342D02*
X96452380Y-64459580D01*
X96452380Y-64459580D02*
X96404761Y-64507200D01*
X96404761Y-64507200D02*
X96309523Y-64554819D01*
X96309523Y-64554819D02*
X96119047Y-64554819D01*
X96119047Y-64554819D02*
X96023809Y-64507200D01*
X96928571Y-64554819D02*
X96928571Y-63888152D01*
X96928571Y-64078628D02*
X96976190Y-63983390D01*
X96976190Y-63983390D02*
X97023809Y-63935771D01*
X97023809Y-63935771D02*
X97119047Y-63888152D01*
X97119047Y-63888152D02*
X97214285Y-63888152D01*
X98071428Y-64554819D02*
X97500000Y-64554819D01*
X97785714Y-64554819D02*
X97785714Y-63554819D01*
X97785714Y-63554819D02*
X97690476Y-63697676D01*
X97690476Y-63697676D02*
X97595238Y-63792914D01*
X97595238Y-63792914D02*
X97500000Y-63840533D01*
X111857142Y-74454819D02*
X111523809Y-73978628D01*
X111285714Y-74454819D02*
X111285714Y-73454819D01*
X111285714Y-73454819D02*
X111666666Y-73454819D01*
X111666666Y-73454819D02*
X111761904Y-73502438D01*
X111761904Y-73502438D02*
X111809523Y-73550057D01*
X111809523Y-73550057D02*
X111857142Y-73645295D01*
X111857142Y-73645295D02*
X111857142Y-73788152D01*
X111857142Y-73788152D02*
X111809523Y-73883390D01*
X111809523Y-73883390D02*
X111761904Y-73931009D01*
X111761904Y-73931009D02*
X111666666Y-73978628D01*
X111666666Y-73978628D02*
X111285714Y-73978628D01*
X112809523Y-74454819D02*
X112238095Y-74454819D01*
X112523809Y-74454819D02*
X112523809Y-73454819D01*
X112523809Y-73454819D02*
X112428571Y-73597676D01*
X112428571Y-73597676D02*
X112333333Y-73692914D01*
X112333333Y-73692914D02*
X112238095Y-73740533D01*
X113428571Y-73454819D02*
X113523809Y-73454819D01*
X113523809Y-73454819D02*
X113619047Y-73502438D01*
X113619047Y-73502438D02*
X113666666Y-73550057D01*
X113666666Y-73550057D02*
X113714285Y-73645295D01*
X113714285Y-73645295D02*
X113761904Y-73835771D01*
X113761904Y-73835771D02*
X113761904Y-74073866D01*
X113761904Y-74073866D02*
X113714285Y-74264342D01*
X113714285Y-74264342D02*
X113666666Y-74359580D01*
X113666666Y-74359580D02*
X113619047Y-74407200D01*
X113619047Y-74407200D02*
X113523809Y-74454819D01*
X113523809Y-74454819D02*
X113428571Y-74454819D01*
X113428571Y-74454819D02*
X113333333Y-74407200D01*
X113333333Y-74407200D02*
X113285714Y-74359580D01*
X113285714Y-74359580D02*
X113238095Y-74264342D01*
X113238095Y-74264342D02*
X113190476Y-74073866D01*
X113190476Y-74073866D02*
X113190476Y-73835771D01*
X113190476Y-73835771D02*
X113238095Y-73645295D01*
X113238095Y-73645295D02*
X113285714Y-73550057D01*
X113285714Y-73550057D02*
X113333333Y-73502438D01*
X113333333Y-73502438D02*
X113428571Y-73454819D01*
X154733095Y-87174819D02*
X154733095Y-87984342D01*
X154733095Y-87984342D02*
X154780714Y-88079580D01*
X154780714Y-88079580D02*
X154828333Y-88127200D01*
X154828333Y-88127200D02*
X154923571Y-88174819D01*
X154923571Y-88174819D02*
X155114047Y-88174819D01*
X155114047Y-88174819D02*
X155209285Y-88127200D01*
X155209285Y-88127200D02*
X155256904Y-88079580D01*
X155256904Y-88079580D02*
X155304523Y-87984342D01*
X155304523Y-87984342D02*
X155304523Y-87174819D01*
X156209285Y-87508152D02*
X156209285Y-88174819D01*
X155971190Y-87127200D02*
X155733095Y-87841485D01*
X155733095Y-87841485D02*
X156352142Y-87841485D01*
X99333333Y-71054819D02*
X98857143Y-71054819D01*
X98857143Y-71054819D02*
X98857143Y-70054819D01*
X100190476Y-71054819D02*
X99619048Y-71054819D01*
X99904762Y-71054819D02*
X99904762Y-70054819D01*
X99904762Y-70054819D02*
X99809524Y-70197676D01*
X99809524Y-70197676D02*
X99714286Y-70292914D01*
X99714286Y-70292914D02*
X99619048Y-70340533D01*
X136238095Y-41454819D02*
X136238095Y-42264342D01*
X136238095Y-42264342D02*
X136285714Y-42359580D01*
X136285714Y-42359580D02*
X136333333Y-42407200D01*
X136333333Y-42407200D02*
X136428571Y-42454819D01*
X136428571Y-42454819D02*
X136619047Y-42454819D01*
X136619047Y-42454819D02*
X136714285Y-42407200D01*
X136714285Y-42407200D02*
X136761904Y-42359580D01*
X136761904Y-42359580D02*
X136809523Y-42264342D01*
X136809523Y-42264342D02*
X136809523Y-41454819D01*
X137238095Y-41550057D02*
X137285714Y-41502438D01*
X137285714Y-41502438D02*
X137380952Y-41454819D01*
X137380952Y-41454819D02*
X137619047Y-41454819D01*
X137619047Y-41454819D02*
X137714285Y-41502438D01*
X137714285Y-41502438D02*
X137761904Y-41550057D01*
X137761904Y-41550057D02*
X137809523Y-41645295D01*
X137809523Y-41645295D02*
X137809523Y-41740533D01*
X137809523Y-41740533D02*
X137761904Y-41883390D01*
X137761904Y-41883390D02*
X137190476Y-42454819D01*
X137190476Y-42454819D02*
X137809523Y-42454819D01*
X156124819Y-56666666D02*
X155648628Y-56999999D01*
X156124819Y-57238094D02*
X155124819Y-57238094D01*
X155124819Y-57238094D02*
X155124819Y-56857142D01*
X155124819Y-56857142D02*
X155172438Y-56761904D01*
X155172438Y-56761904D02*
X155220057Y-56714285D01*
X155220057Y-56714285D02*
X155315295Y-56666666D01*
X155315295Y-56666666D02*
X155458152Y-56666666D01*
X155458152Y-56666666D02*
X155553390Y-56714285D01*
X155553390Y-56714285D02*
X155601009Y-56761904D01*
X155601009Y-56761904D02*
X155648628Y-56857142D01*
X155648628Y-56857142D02*
X155648628Y-57238094D01*
X155220057Y-56285713D02*
X155172438Y-56238094D01*
X155172438Y-56238094D02*
X155124819Y-56142856D01*
X155124819Y-56142856D02*
X155124819Y-55904761D01*
X155124819Y-55904761D02*
X155172438Y-55809523D01*
X155172438Y-55809523D02*
X155220057Y-55761904D01*
X155220057Y-55761904D02*
X155315295Y-55714285D01*
X155315295Y-55714285D02*
X155410533Y-55714285D01*
X155410533Y-55714285D02*
X155553390Y-55761904D01*
X155553390Y-55761904D02*
X156124819Y-56333332D01*
X156124819Y-56333332D02*
X156124819Y-55714285D01*
X123261905Y-60175114D02*
X123261905Y-59175114D01*
X123833333Y-60175114D02*
X123404762Y-59603685D01*
X123833333Y-59175114D02*
X123261905Y-59746542D01*
X124214286Y-59270352D02*
X124261905Y-59222733D01*
X124261905Y-59222733D02*
X124357143Y-59175114D01*
X124357143Y-59175114D02*
X124595238Y-59175114D01*
X124595238Y-59175114D02*
X124690476Y-59222733D01*
X124690476Y-59222733D02*
X124738095Y-59270352D01*
X124738095Y-59270352D02*
X124785714Y-59365590D01*
X124785714Y-59365590D02*
X124785714Y-59460828D01*
X124785714Y-59460828D02*
X124738095Y-59603685D01*
X124738095Y-59603685D02*
X124166667Y-60175114D01*
X124166667Y-60175114D02*
X124785714Y-60175114D01*
X130222951Y-57146428D02*
X129461047Y-57146428D01*
X129841999Y-56765475D02*
X129841999Y-57527380D01*
X122083333Y-102359580D02*
X122035714Y-102407200D01*
X122035714Y-102407200D02*
X121892857Y-102454819D01*
X121892857Y-102454819D02*
X121797619Y-102454819D01*
X121797619Y-102454819D02*
X121654762Y-102407200D01*
X121654762Y-102407200D02*
X121559524Y-102311961D01*
X121559524Y-102311961D02*
X121511905Y-102216723D01*
X121511905Y-102216723D02*
X121464286Y-102026247D01*
X121464286Y-102026247D02*
X121464286Y-101883390D01*
X121464286Y-101883390D02*
X121511905Y-101692914D01*
X121511905Y-101692914D02*
X121559524Y-101597676D01*
X121559524Y-101597676D02*
X121654762Y-101502438D01*
X121654762Y-101502438D02*
X121797619Y-101454819D01*
X121797619Y-101454819D02*
X121892857Y-101454819D01*
X121892857Y-101454819D02*
X122035714Y-101502438D01*
X122035714Y-101502438D02*
X122083333Y-101550057D01*
X122988095Y-101454819D02*
X122511905Y-101454819D01*
X122511905Y-101454819D02*
X122464286Y-101931009D01*
X122464286Y-101931009D02*
X122511905Y-101883390D01*
X122511905Y-101883390D02*
X122607143Y-101835771D01*
X122607143Y-101835771D02*
X122845238Y-101835771D01*
X122845238Y-101835771D02*
X122940476Y-101883390D01*
X122940476Y-101883390D02*
X122988095Y-101931009D01*
X122988095Y-101931009D02*
X123035714Y-102026247D01*
X123035714Y-102026247D02*
X123035714Y-102264342D01*
X123035714Y-102264342D02*
X122988095Y-102359580D01*
X122988095Y-102359580D02*
X122940476Y-102407200D01*
X122940476Y-102407200D02*
X122845238Y-102454819D01*
X122845238Y-102454819D02*
X122607143Y-102454819D01*
X122607143Y-102454819D02*
X122511905Y-102407200D01*
X122511905Y-102407200D02*
X122464286Y-102359580D01*
X143883333Y-79124819D02*
X143550000Y-78648628D01*
X143311905Y-79124819D02*
X143311905Y-78124819D01*
X143311905Y-78124819D02*
X143692857Y-78124819D01*
X143692857Y-78124819D02*
X143788095Y-78172438D01*
X143788095Y-78172438D02*
X143835714Y-78220057D01*
X143835714Y-78220057D02*
X143883333Y-78315295D01*
X143883333Y-78315295D02*
X143883333Y-78458152D01*
X143883333Y-78458152D02*
X143835714Y-78553390D01*
X143835714Y-78553390D02*
X143788095Y-78601009D01*
X143788095Y-78601009D02*
X143692857Y-78648628D01*
X143692857Y-78648628D02*
X143311905Y-78648628D01*
X144359524Y-79124819D02*
X144550000Y-79124819D01*
X144550000Y-79124819D02*
X144645238Y-79077200D01*
X144645238Y-79077200D02*
X144692857Y-79029580D01*
X144692857Y-79029580D02*
X144788095Y-78886723D01*
X144788095Y-78886723D02*
X144835714Y-78696247D01*
X144835714Y-78696247D02*
X144835714Y-78315295D01*
X144835714Y-78315295D02*
X144788095Y-78220057D01*
X144788095Y-78220057D02*
X144740476Y-78172438D01*
X144740476Y-78172438D02*
X144645238Y-78124819D01*
X144645238Y-78124819D02*
X144454762Y-78124819D01*
X144454762Y-78124819D02*
X144359524Y-78172438D01*
X144359524Y-78172438D02*
X144311905Y-78220057D01*
X144311905Y-78220057D02*
X144264286Y-78315295D01*
X144264286Y-78315295D02*
X144264286Y-78553390D01*
X144264286Y-78553390D02*
X144311905Y-78648628D01*
X144311905Y-78648628D02*
X144359524Y-78696247D01*
X144359524Y-78696247D02*
X144454762Y-78743866D01*
X144454762Y-78743866D02*
X144645238Y-78743866D01*
X144645238Y-78743866D02*
X144740476Y-78696247D01*
X144740476Y-78696247D02*
X144788095Y-78648628D01*
X144788095Y-78648628D02*
X144835714Y-78553390D01*
X139048095Y-77984819D02*
X139048095Y-78794342D01*
X139048095Y-78794342D02*
X139095714Y-78889580D01*
X139095714Y-78889580D02*
X139143333Y-78937200D01*
X139143333Y-78937200D02*
X139238571Y-78984819D01*
X139238571Y-78984819D02*
X139429047Y-78984819D01*
X139429047Y-78984819D02*
X139524285Y-78937200D01*
X139524285Y-78937200D02*
X139571904Y-78889580D01*
X139571904Y-78889580D02*
X139619523Y-78794342D01*
X139619523Y-78794342D02*
X139619523Y-77984819D01*
X140000476Y-77984819D02*
X140619523Y-77984819D01*
X140619523Y-77984819D02*
X140286190Y-78365771D01*
X140286190Y-78365771D02*
X140429047Y-78365771D01*
X140429047Y-78365771D02*
X140524285Y-78413390D01*
X140524285Y-78413390D02*
X140571904Y-78461009D01*
X140571904Y-78461009D02*
X140619523Y-78556247D01*
X140619523Y-78556247D02*
X140619523Y-78794342D01*
X140619523Y-78794342D02*
X140571904Y-78889580D01*
X140571904Y-78889580D02*
X140524285Y-78937200D01*
X140524285Y-78937200D02*
X140429047Y-78984819D01*
X140429047Y-78984819D02*
X140143333Y-78984819D01*
X140143333Y-78984819D02*
X140048095Y-78937200D01*
X140048095Y-78937200D02*
X140000476Y-78889580D01*
X121738095Y-82554819D02*
X121738095Y-83364342D01*
X121738095Y-83364342D02*
X121785714Y-83459580D01*
X121785714Y-83459580D02*
X121833333Y-83507200D01*
X121833333Y-83507200D02*
X121928571Y-83554819D01*
X121928571Y-83554819D02*
X122119047Y-83554819D01*
X122119047Y-83554819D02*
X122214285Y-83507200D01*
X122214285Y-83507200D02*
X122261904Y-83459580D01*
X122261904Y-83459580D02*
X122309523Y-83364342D01*
X122309523Y-83364342D02*
X122309523Y-82554819D01*
X123261904Y-82554819D02*
X122785714Y-82554819D01*
X122785714Y-82554819D02*
X122738095Y-83031009D01*
X122738095Y-83031009D02*
X122785714Y-82983390D01*
X122785714Y-82983390D02*
X122880952Y-82935771D01*
X122880952Y-82935771D02*
X123119047Y-82935771D01*
X123119047Y-82935771D02*
X123214285Y-82983390D01*
X123214285Y-82983390D02*
X123261904Y-83031009D01*
X123261904Y-83031009D02*
X123309523Y-83126247D01*
X123309523Y-83126247D02*
X123309523Y-83364342D01*
X123309523Y-83364342D02*
X123261904Y-83459580D01*
X123261904Y-83459580D02*
X123214285Y-83507200D01*
X123214285Y-83507200D02*
X123119047Y-83554819D01*
X123119047Y-83554819D02*
X122880952Y-83554819D01*
X122880952Y-83554819D02*
X122785714Y-83507200D01*
X122785714Y-83507200D02*
X122738095Y-83459580D01*
X156138095Y-59204819D02*
X156138095Y-60014342D01*
X156138095Y-60014342D02*
X156185714Y-60109580D01*
X156185714Y-60109580D02*
X156233333Y-60157200D01*
X156233333Y-60157200D02*
X156328571Y-60204819D01*
X156328571Y-60204819D02*
X156519047Y-60204819D01*
X156519047Y-60204819D02*
X156614285Y-60157200D01*
X156614285Y-60157200D02*
X156661904Y-60109580D01*
X156661904Y-60109580D02*
X156709523Y-60014342D01*
X156709523Y-60014342D02*
X156709523Y-59204819D01*
X157614285Y-59204819D02*
X157423809Y-59204819D01*
X157423809Y-59204819D02*
X157328571Y-59252438D01*
X157328571Y-59252438D02*
X157280952Y-59300057D01*
X157280952Y-59300057D02*
X157185714Y-59442914D01*
X157185714Y-59442914D02*
X157138095Y-59633390D01*
X157138095Y-59633390D02*
X157138095Y-60014342D01*
X157138095Y-60014342D02*
X157185714Y-60109580D01*
X157185714Y-60109580D02*
X157233333Y-60157200D01*
X157233333Y-60157200D02*
X157328571Y-60204819D01*
X157328571Y-60204819D02*
X157519047Y-60204819D01*
X157519047Y-60204819D02*
X157614285Y-60157200D01*
X157614285Y-60157200D02*
X157661904Y-60109580D01*
X157661904Y-60109580D02*
X157709523Y-60014342D01*
X157709523Y-60014342D02*
X157709523Y-59776247D01*
X157709523Y-59776247D02*
X157661904Y-59681009D01*
X157661904Y-59681009D02*
X157614285Y-59633390D01*
X157614285Y-59633390D02*
X157519047Y-59585771D01*
X157519047Y-59585771D02*
X157328571Y-59585771D01*
X157328571Y-59585771D02*
X157233333Y-59633390D01*
X157233333Y-59633390D02*
X157185714Y-59681009D01*
X157185714Y-59681009D02*
X157138095Y-59776247D01*
X131454819Y-88216666D02*
X130978628Y-88549999D01*
X131454819Y-88788094D02*
X130454819Y-88788094D01*
X130454819Y-88788094D02*
X130454819Y-88407142D01*
X130454819Y-88407142D02*
X130502438Y-88311904D01*
X130502438Y-88311904D02*
X130550057Y-88264285D01*
X130550057Y-88264285D02*
X130645295Y-88216666D01*
X130645295Y-88216666D02*
X130788152Y-88216666D01*
X130788152Y-88216666D02*
X130883390Y-88264285D01*
X130883390Y-88264285D02*
X130931009Y-88311904D01*
X130931009Y-88311904D02*
X130978628Y-88407142D01*
X130978628Y-88407142D02*
X130978628Y-88788094D01*
X130788152Y-87359523D02*
X131454819Y-87359523D01*
X130407200Y-87597618D02*
X131121485Y-87835713D01*
X131121485Y-87835713D02*
X131121485Y-87216666D01*
X150604819Y-55579166D02*
X150128628Y-55912499D01*
X150604819Y-56150594D02*
X149604819Y-56150594D01*
X149604819Y-56150594D02*
X149604819Y-55769642D01*
X149604819Y-55769642D02*
X149652438Y-55674404D01*
X149652438Y-55674404D02*
X149700057Y-55626785D01*
X149700057Y-55626785D02*
X149795295Y-55579166D01*
X149795295Y-55579166D02*
X149938152Y-55579166D01*
X149938152Y-55579166D02*
X150033390Y-55626785D01*
X150033390Y-55626785D02*
X150081009Y-55674404D01*
X150081009Y-55674404D02*
X150128628Y-55769642D01*
X150128628Y-55769642D02*
X150128628Y-56150594D01*
X149604819Y-54722023D02*
X149604819Y-54912499D01*
X149604819Y-54912499D02*
X149652438Y-55007737D01*
X149652438Y-55007737D02*
X149700057Y-55055356D01*
X149700057Y-55055356D02*
X149842914Y-55150594D01*
X149842914Y-55150594D02*
X150033390Y-55198213D01*
X150033390Y-55198213D02*
X150414342Y-55198213D01*
X150414342Y-55198213D02*
X150509580Y-55150594D01*
X150509580Y-55150594D02*
X150557200Y-55102975D01*
X150557200Y-55102975D02*
X150604819Y-55007737D01*
X150604819Y-55007737D02*
X150604819Y-54817261D01*
X150604819Y-54817261D02*
X150557200Y-54722023D01*
X150557200Y-54722023D02*
X150509580Y-54674404D01*
X150509580Y-54674404D02*
X150414342Y-54626785D01*
X150414342Y-54626785D02*
X150176247Y-54626785D01*
X150176247Y-54626785D02*
X150081009Y-54674404D01*
X150081009Y-54674404D02*
X150033390Y-54722023D01*
X150033390Y-54722023D02*
X149985771Y-54817261D01*
X149985771Y-54817261D02*
X149985771Y-55007737D01*
X149985771Y-55007737D02*
X150033390Y-55102975D01*
X150033390Y-55102975D02*
X150081009Y-55150594D01*
X150081009Y-55150594D02*
X150176247Y-55198213D01*
X161190476Y-59954819D02*
X161857142Y-59954819D01*
X161857142Y-59954819D02*
X161190476Y-60954819D01*
X161190476Y-60954819D02*
X161857142Y-60954819D01*
X162238095Y-60954819D02*
X162238095Y-59954819D01*
X162238095Y-59954819D02*
X162476190Y-59954819D01*
X162476190Y-59954819D02*
X162619047Y-60002438D01*
X162619047Y-60002438D02*
X162714285Y-60097676D01*
X162714285Y-60097676D02*
X162761904Y-60192914D01*
X162761904Y-60192914D02*
X162809523Y-60383390D01*
X162809523Y-60383390D02*
X162809523Y-60526247D01*
X162809523Y-60526247D02*
X162761904Y-60716723D01*
X162761904Y-60716723D02*
X162714285Y-60811961D01*
X162714285Y-60811961D02*
X162619047Y-60907200D01*
X162619047Y-60907200D02*
X162476190Y-60954819D01*
X162476190Y-60954819D02*
X162238095Y-60954819D01*
X163761904Y-60954819D02*
X163190476Y-60954819D01*
X163476190Y-60954819D02*
X163476190Y-59954819D01*
X163476190Y-59954819D02*
X163380952Y-60097676D01*
X163380952Y-60097676D02*
X163285714Y-60192914D01*
X163285714Y-60192914D02*
X163190476Y-60240533D01*
X135880952Y-54304819D02*
X135547619Y-53828628D01*
X135309524Y-54304819D02*
X135309524Y-53304819D01*
X135309524Y-53304819D02*
X135690476Y-53304819D01*
X135690476Y-53304819D02*
X135785714Y-53352438D01*
X135785714Y-53352438D02*
X135833333Y-53400057D01*
X135833333Y-53400057D02*
X135880952Y-53495295D01*
X135880952Y-53495295D02*
X135880952Y-53638152D01*
X135880952Y-53638152D02*
X135833333Y-53733390D01*
X135833333Y-53733390D02*
X135785714Y-53781009D01*
X135785714Y-53781009D02*
X135690476Y-53828628D01*
X135690476Y-53828628D02*
X135309524Y-53828628D01*
X136738095Y-54304819D02*
X136738095Y-53304819D01*
X136738095Y-54257200D02*
X136642857Y-54304819D01*
X136642857Y-54304819D02*
X136452381Y-54304819D01*
X136452381Y-54304819D02*
X136357143Y-54257200D01*
X136357143Y-54257200D02*
X136309524Y-54209580D01*
X136309524Y-54209580D02*
X136261905Y-54114342D01*
X136261905Y-54114342D02*
X136261905Y-53828628D01*
X136261905Y-53828628D02*
X136309524Y-53733390D01*
X136309524Y-53733390D02*
X136357143Y-53685771D01*
X136357143Y-53685771D02*
X136452381Y-53638152D01*
X136452381Y-53638152D02*
X136642857Y-53638152D01*
X136642857Y-53638152D02*
X136738095Y-53685771D01*
X137738095Y-54304819D02*
X137166667Y-54304819D01*
X137452381Y-54304819D02*
X137452381Y-53304819D01*
X137452381Y-53304819D02*
X137357143Y-53447676D01*
X137357143Y-53447676D02*
X137261905Y-53542914D01*
X137261905Y-53542914D02*
X137166667Y-53590533D01*
X159833333Y-55284819D02*
X159500000Y-54808628D01*
X159261905Y-55284819D02*
X159261905Y-54284819D01*
X159261905Y-54284819D02*
X159642857Y-54284819D01*
X159642857Y-54284819D02*
X159738095Y-54332438D01*
X159738095Y-54332438D02*
X159785714Y-54380057D01*
X159785714Y-54380057D02*
X159833333Y-54475295D01*
X159833333Y-54475295D02*
X159833333Y-54618152D01*
X159833333Y-54618152D02*
X159785714Y-54713390D01*
X159785714Y-54713390D02*
X159738095Y-54761009D01*
X159738095Y-54761009D02*
X159642857Y-54808628D01*
X159642857Y-54808628D02*
X159261905Y-54808628D01*
X160785714Y-55284819D02*
X160214286Y-55284819D01*
X160500000Y-55284819D02*
X160500000Y-54284819D01*
X160500000Y-54284819D02*
X160404762Y-54427676D01*
X160404762Y-54427676D02*
X160309524Y-54522914D01*
X160309524Y-54522914D02*
X160214286Y-54570533D01*
X142380952Y-54454819D02*
X142047619Y-53978628D01*
X141809524Y-54454819D02*
X141809524Y-53454819D01*
X141809524Y-53454819D02*
X142190476Y-53454819D01*
X142190476Y-53454819D02*
X142285714Y-53502438D01*
X142285714Y-53502438D02*
X142333333Y-53550057D01*
X142333333Y-53550057D02*
X142380952Y-53645295D01*
X142380952Y-53645295D02*
X142380952Y-53788152D01*
X142380952Y-53788152D02*
X142333333Y-53883390D01*
X142333333Y-53883390D02*
X142285714Y-53931009D01*
X142285714Y-53931009D02*
X142190476Y-53978628D01*
X142190476Y-53978628D02*
X141809524Y-53978628D01*
X143238095Y-54454819D02*
X143238095Y-53454819D01*
X143238095Y-54407200D02*
X143142857Y-54454819D01*
X143142857Y-54454819D02*
X142952381Y-54454819D01*
X142952381Y-54454819D02*
X142857143Y-54407200D01*
X142857143Y-54407200D02*
X142809524Y-54359580D01*
X142809524Y-54359580D02*
X142761905Y-54264342D01*
X142761905Y-54264342D02*
X142761905Y-53978628D01*
X142761905Y-53978628D02*
X142809524Y-53883390D01*
X142809524Y-53883390D02*
X142857143Y-53835771D01*
X142857143Y-53835771D02*
X142952381Y-53788152D01*
X142952381Y-53788152D02*
X143142857Y-53788152D01*
X143142857Y-53788152D02*
X143238095Y-53835771D01*
X143666667Y-53550057D02*
X143714286Y-53502438D01*
X143714286Y-53502438D02*
X143809524Y-53454819D01*
X143809524Y-53454819D02*
X144047619Y-53454819D01*
X144047619Y-53454819D02*
X144142857Y-53502438D01*
X144142857Y-53502438D02*
X144190476Y-53550057D01*
X144190476Y-53550057D02*
X144238095Y-53645295D01*
X144238095Y-53645295D02*
X144238095Y-53740533D01*
X144238095Y-53740533D02*
X144190476Y-53883390D01*
X144190476Y-53883390D02*
X143619048Y-54454819D01*
X143619048Y-54454819D02*
X144238095Y-54454819D01*
X114333333Y-66699580D02*
X114285714Y-66747200D01*
X114285714Y-66747200D02*
X114142857Y-66794819D01*
X114142857Y-66794819D02*
X114047619Y-66794819D01*
X114047619Y-66794819D02*
X113904762Y-66747200D01*
X113904762Y-66747200D02*
X113809524Y-66651961D01*
X113809524Y-66651961D02*
X113761905Y-66556723D01*
X113761905Y-66556723D02*
X113714286Y-66366247D01*
X113714286Y-66366247D02*
X113714286Y-66223390D01*
X113714286Y-66223390D02*
X113761905Y-66032914D01*
X113761905Y-66032914D02*
X113809524Y-65937676D01*
X113809524Y-65937676D02*
X113904762Y-65842438D01*
X113904762Y-65842438D02*
X114047619Y-65794819D01*
X114047619Y-65794819D02*
X114142857Y-65794819D01*
X114142857Y-65794819D02*
X114285714Y-65842438D01*
X114285714Y-65842438D02*
X114333333Y-65890057D01*
X115190476Y-66128152D02*
X115190476Y-66794819D01*
X114952381Y-65747200D02*
X114714286Y-66461485D01*
X114714286Y-66461485D02*
X115333333Y-66461485D01*
X166738095Y-60337200D02*
X166880952Y-60384819D01*
X166880952Y-60384819D02*
X167119047Y-60384819D01*
X167119047Y-60384819D02*
X167214285Y-60337200D01*
X167214285Y-60337200D02*
X167261904Y-60289580D01*
X167261904Y-60289580D02*
X167309523Y-60194342D01*
X167309523Y-60194342D02*
X167309523Y-60099104D01*
X167309523Y-60099104D02*
X167261904Y-60003866D01*
X167261904Y-60003866D02*
X167214285Y-59956247D01*
X167214285Y-59956247D02*
X167119047Y-59908628D01*
X167119047Y-59908628D02*
X166928571Y-59861009D01*
X166928571Y-59861009D02*
X166833333Y-59813390D01*
X166833333Y-59813390D02*
X166785714Y-59765771D01*
X166785714Y-59765771D02*
X166738095Y-59670533D01*
X166738095Y-59670533D02*
X166738095Y-59575295D01*
X166738095Y-59575295D02*
X166785714Y-59480057D01*
X166785714Y-59480057D02*
X166833333Y-59432438D01*
X166833333Y-59432438D02*
X166928571Y-59384819D01*
X166928571Y-59384819D02*
X167166666Y-59384819D01*
X167166666Y-59384819D02*
X167309523Y-59432438D01*
X167738095Y-60384819D02*
X167738095Y-59384819D01*
X167738095Y-59384819D02*
X167976190Y-59384819D01*
X167976190Y-59384819D02*
X168119047Y-59432438D01*
X168119047Y-59432438D02*
X168214285Y-59527676D01*
X168214285Y-59527676D02*
X168261904Y-59622914D01*
X168261904Y-59622914D02*
X168309523Y-59813390D01*
X168309523Y-59813390D02*
X168309523Y-59956247D01*
X168309523Y-59956247D02*
X168261904Y-60146723D01*
X168261904Y-60146723D02*
X168214285Y-60241961D01*
X168214285Y-60241961D02*
X168119047Y-60337200D01*
X168119047Y-60337200D02*
X167976190Y-60384819D01*
X167976190Y-60384819D02*
X167738095Y-60384819D01*
X169261904Y-60384819D02*
X168690476Y-60384819D01*
X168976190Y-60384819D02*
X168976190Y-59384819D01*
X168976190Y-59384819D02*
X168880952Y-59527676D01*
X168880952Y-59527676D02*
X168785714Y-59622914D01*
X168785714Y-59622914D02*
X168690476Y-59670533D01*
X122238095Y-69854819D02*
X122238095Y-70664342D01*
X122238095Y-70664342D02*
X122285714Y-70759580D01*
X122285714Y-70759580D02*
X122333333Y-70807200D01*
X122333333Y-70807200D02*
X122428571Y-70854819D01*
X122428571Y-70854819D02*
X122619047Y-70854819D01*
X122619047Y-70854819D02*
X122714285Y-70807200D01*
X122714285Y-70807200D02*
X122761904Y-70759580D01*
X122761904Y-70759580D02*
X122809523Y-70664342D01*
X122809523Y-70664342D02*
X122809523Y-69854819D01*
X123809523Y-70854819D02*
X123238095Y-70854819D01*
X123523809Y-70854819D02*
X123523809Y-69854819D01*
X123523809Y-69854819D02*
X123428571Y-69997676D01*
X123428571Y-69997676D02*
X123333333Y-70092914D01*
X123333333Y-70092914D02*
X123238095Y-70140533D01*
D11*
%TO.C,C6*%
X129607836Y-85640000D02*
X129392164Y-85640000D01*
X129607836Y-86360000D02*
X129392164Y-86360000D01*
%TO.C,R5*%
X147765000Y-50360436D02*
X147765000Y-50814564D01*
X149235000Y-50360436D02*
X149235000Y-50814564D01*
%TO.C,C3*%
X126620000Y-76500000D02*
G75*
G02*
X118380000Y-76500000I-4120000J0D01*
G01*
X118380000Y-76500000D02*
G75*
G02*
X126620000Y-76500000I4120000J0D01*
G01*
%TO.C,C2*%
X99783767Y-85990000D02*
X99491233Y-85990000D01*
X99783767Y-87010000D02*
X99491233Y-87010000D01*
%TO.C,R8*%
X135685436Y-79765000D02*
X136139564Y-79765000D01*
X135685436Y-81235000D02*
X136139564Y-81235000D01*
%TO.C,R7*%
X147977500Y-84562258D02*
X147977500Y-84087742D01*
X149022500Y-84562258D02*
X149022500Y-84087742D01*
%TO.C,Ubr1*%
X94440000Y-64940000D02*
X98560000Y-64940000D01*
X94440000Y-65035000D02*
X94440000Y-64940000D01*
X94440000Y-70060000D02*
X94440000Y-69965000D01*
X98560000Y-64940000D02*
X98560000Y-65035000D01*
X98560000Y-69965000D02*
X98560000Y-70060000D01*
X98560000Y-70060000D02*
X94440000Y-70060000D01*
X93900000Y-65030000D02*
X93660000Y-64700000D01*
X94140000Y-64700000D01*
X93900000Y-65030000D01*
G36*
X93900000Y-65030000D02*
G01*
X93660000Y-64700000D01*
X94140000Y-64700000D01*
X93900000Y-65030000D01*
G37*
%TO.C,R10*%
X111772936Y-70090000D02*
X113227064Y-70090000D01*
X111772936Y-71910000D02*
X113227064Y-71910000D01*
%TO.C,U4*%
X152845000Y-66280000D02*
X152845000Y-86720000D01*
X152845000Y-86720000D02*
X154495000Y-86720000D01*
X156495000Y-86720000D02*
X158145000Y-86720000D01*
X158145000Y-66280000D02*
X152845000Y-66280000D01*
X158145000Y-86720000D02*
X158145000Y-66280000D01*
X154495000Y-86720000D02*
G75*
G02*
X156495000Y-86720000I1000000J0D01*
G01*
%TO.C,L1*%
X93200000Y-71700000D02*
X105800000Y-71700000D01*
X93200000Y-74700000D02*
X93200000Y-71700000D01*
X93200000Y-84300000D02*
X93200000Y-81300000D01*
X105800000Y-71700000D02*
X105800000Y-74700000D01*
X105800000Y-81300000D02*
X105800000Y-84300000D01*
X105800000Y-84300000D02*
X93200000Y-84300000D01*
%TO.C,U2*%
X133380000Y-43980000D02*
X134500000Y-43980000D01*
X133380000Y-45850000D02*
X133380000Y-43980000D01*
X133380000Y-49020000D02*
X133380000Y-47150000D01*
X133380000Y-49020000D02*
X133950000Y-49020000D01*
X136100000Y-43980000D02*
X135700000Y-43980000D01*
X136450000Y-49020000D02*
X136950000Y-49020000D01*
X137300000Y-43980000D02*
X137700000Y-43980000D01*
X140020000Y-43980000D02*
X138900000Y-43980000D01*
X140020000Y-45850000D02*
X140020000Y-43980000D01*
X140020000Y-49020000D02*
X139450000Y-49020000D01*
X140020000Y-49020000D02*
X140020000Y-47150000D01*
X139180000Y-43750000D02*
X138900000Y-43750000D01*
X138900000Y-43470000D01*
X139180000Y-43750000D01*
G36*
X139180000Y-43750000D02*
G01*
X138900000Y-43750000D01*
X138900000Y-43470000D01*
X139180000Y-43750000D01*
G37*
%TO.C,R2*%
X154120000Y-56332379D02*
X154120000Y-56667621D01*
X154880000Y-56332379D02*
X154880000Y-56667621D01*
%TO.C,K2*%
X118790000Y-38070295D02*
X118790000Y-58590295D01*
X118790000Y-58590295D02*
X123492000Y-58590295D01*
X121460000Y-39440295D02*
X122095000Y-39440295D01*
X121460000Y-44520295D02*
X122095000Y-44520295D01*
X121460000Y-49600295D02*
X123365000Y-49600295D01*
X122095000Y-40456295D02*
X121714000Y-40075295D01*
X122095000Y-40456295D02*
X122095000Y-39440295D01*
X122095000Y-40456295D02*
X122476000Y-40075295D01*
X122095000Y-43504295D02*
X121714000Y-43885295D01*
X122095000Y-43504295D02*
X122476000Y-43885295D01*
X122095000Y-44520295D02*
X122095000Y-43504295D01*
X122730000Y-54170295D02*
X125270000Y-54170295D01*
X122730000Y-54680295D02*
X121460000Y-54680295D01*
X122730000Y-54680295D02*
X122730000Y-54170295D01*
X122730000Y-55190295D02*
X122730000Y-54680295D01*
X122730000Y-56710295D02*
X125270000Y-56710295D01*
X122730000Y-57220295D02*
X121460000Y-57220295D01*
X122730000Y-57220295D02*
X122730000Y-56710295D01*
X122730000Y-57730295D02*
X122730000Y-57220295D01*
X123365000Y-41980295D02*
X122095000Y-43250295D01*
X123365000Y-49600295D02*
X123365000Y-41980295D01*
X124506000Y-55190295D02*
X123496000Y-54170295D01*
X124506000Y-57730295D02*
X123496000Y-56710295D01*
X124508000Y-58590295D02*
X129210000Y-58590295D01*
X124635000Y-41980295D02*
X125905000Y-43250295D01*
X124635000Y-49600295D02*
X124635000Y-41980295D01*
X125270000Y-54170295D02*
X125270000Y-54680295D01*
X125270000Y-54680295D02*
X125270000Y-55190295D01*
X125270000Y-55190295D02*
X122730000Y-55190295D01*
X125270000Y-56710295D02*
X125270000Y-57220295D01*
X125270000Y-57220295D02*
X125270000Y-57730295D01*
X125270000Y-57730295D02*
X122730000Y-57730295D01*
X125905000Y-40456295D02*
X125524000Y-40075295D01*
X125905000Y-40456295D02*
X125905000Y-39440295D01*
X125905000Y-40456295D02*
X126286000Y-40075295D01*
X125905000Y-43504295D02*
X125524000Y-43885295D01*
X125905000Y-43504295D02*
X126286000Y-43885295D01*
X125905000Y-44520295D02*
X125905000Y-43504295D01*
X126540000Y-39440295D02*
X125905000Y-39440295D01*
X126540000Y-44520295D02*
X125905000Y-44520295D01*
X126540000Y-49600295D02*
X124635000Y-49600295D01*
X126540000Y-54680295D02*
X125270000Y-54680295D01*
X126540000Y-57220295D02*
X125270000Y-57220295D01*
X129210000Y-38070295D02*
X118790000Y-38070295D01*
X129210000Y-58590295D02*
X129210000Y-38070295D01*
D10*
X123495000Y-41980295D02*
G75*
G02*
X123235000Y-41980295I-130000J0D01*
G01*
X123235000Y-41980295D02*
G75*
G02*
X123495000Y-41980295I130000J0D01*
G01*
X124765000Y-41980295D02*
G75*
G02*
X124505000Y-41980295I-130000J0D01*
G01*
X124505000Y-41980295D02*
G75*
G02*
X124765000Y-41980295I130000J0D01*
G01*
D11*
X124200000Y-58929706D02*
X123800000Y-58929706D01*
X124000000Y-58590295D01*
X124200000Y-58929706D01*
G36*
X124200000Y-58929706D02*
G01*
X123800000Y-58929706D01*
X124000000Y-58590295D01*
X124200000Y-58929706D01*
G37*
%TO.C,C5*%
X126370000Y-97000000D02*
G75*
G02*
X118130000Y-97000000I-4120000J0D01*
G01*
X118130000Y-97000000D02*
G75*
G02*
X126370000Y-97000000I4120000J0D01*
G01*
%TO.C,R9*%
X143322936Y-79590000D02*
X144777064Y-79590000D01*
X143322936Y-81410000D02*
X144777064Y-81410000D01*
%TO.C,U3*%
X137160000Y-59630000D02*
X137160000Y-77530000D01*
X137160000Y-77530000D02*
X138810000Y-77530000D01*
X140810000Y-77530000D02*
X142460000Y-77530000D01*
X142460000Y-59630000D02*
X137160000Y-59630000D01*
X142460000Y-77530000D02*
X142460000Y-59630000D01*
X138810000Y-77530000D02*
G75*
G02*
X140810000Y-77530000I1000000J0D01*
G01*
%TO.C,U5*%
X120440000Y-83940000D02*
X124560000Y-83940000D01*
X120440000Y-84035000D02*
X120440000Y-83940000D01*
X120440000Y-89060000D02*
X120440000Y-88965000D01*
X124560000Y-83940000D02*
X124560000Y-84035000D01*
X124560000Y-88965000D02*
X124560000Y-89060000D01*
X124560000Y-89060000D02*
X120440000Y-89060000D01*
X119900000Y-84030000D02*
X119660000Y-83700000D01*
X120140000Y-83700000D01*
X119900000Y-84030000D01*
G36*
X119900000Y-84030000D02*
G01*
X119660000Y-83700000D01*
X120140000Y-83700000D01*
X119900000Y-84030000D01*
G37*
%TO.C,U6*%
X155900000Y-60650000D02*
X157900000Y-60650000D01*
X155900000Y-62850000D02*
X157900000Y-62850000D01*
X155560000Y-60660000D02*
X155280000Y-60660000D01*
X155560000Y-60380000D01*
X155560000Y-60660000D01*
G36*
X155560000Y-60660000D02*
G01*
X155280000Y-60660000D01*
X155560000Y-60380000D01*
X155560000Y-60660000D01*
G37*
%TO.C,R4*%
X133090000Y-87322936D02*
X133090000Y-88777064D01*
X134910000Y-87322936D02*
X134910000Y-88777064D01*
%TO.C,R6*%
X147765000Y-55185436D02*
X147765000Y-55639564D01*
X149235000Y-55185436D02*
X149235000Y-55639564D01*
%TO.C,ZD1*%
X160750000Y-59610000D02*
X165160000Y-59610000D01*
X165160000Y-57390000D02*
X160750000Y-57390000D01*
X165160000Y-59610000D02*
X165160000Y-57390000D01*
%TO.C,Rd1*%
X136272936Y-54765000D02*
X136727064Y-54765000D01*
X136272936Y-56235000D02*
X136727064Y-56235000D01*
%TO.C,R1*%
X160727064Y-52090000D02*
X159272936Y-52090000D01*
X160727064Y-53910000D02*
X159272936Y-53910000D01*
%TO.C,Rd2*%
X142772936Y-54765000D02*
X143227064Y-54765000D01*
X142772936Y-56235000D02*
X143227064Y-56235000D01*
%TO.C,C4*%
X114392164Y-67140000D02*
X114607836Y-67140000D01*
X114392164Y-67860000D02*
X114607836Y-67860000D01*
%TO.C,SD1*%
X167200000Y-59110000D02*
X169015000Y-59110000D01*
X169015000Y-57890000D02*
X167200000Y-57890000D01*
X169015000Y-59110000D02*
X169015000Y-57890000D01*
%TO.C,U1*%
X120940000Y-64440000D02*
X125060000Y-64440000D01*
X120940000Y-64535000D02*
X120940000Y-64440000D01*
X120940000Y-69560000D02*
X120940000Y-69465000D01*
X125060000Y-64440000D02*
X125060000Y-64535000D01*
X125060000Y-69465000D02*
X125060000Y-69560000D01*
X125060000Y-69560000D02*
X120940000Y-69560000D01*
X125840000Y-69800000D02*
X125360000Y-69800000D01*
X125600000Y-69470000D01*
X125840000Y-69800000D01*
G36*
X125840000Y-69800000D02*
G01*
X125360000Y-69800000D01*
X125600000Y-69470000D01*
X125840000Y-69800000D01*
G37*
%TD*%
M02*
