%TF.GenerationSoftware,KiCad,Pcbnew,9.0.5*%
%TF.CreationDate,2025-10-29T22:41:35+01:00*%
%TF.ProjectId,recruitment,72656372-7569-4746-9d65-6e742e6b6963,V0*%
%TF.SameCoordinates,Original*%
%TF.FileFunction,Copper,L1,Top*%
%TF.FilePolarity,Positive*%
%FSLAX46Y46*%
G04 Gerber Fmt 4.6, Leading zero omitted, Abs format (unit mm)*
G04 Created by KiCad (PCBNEW 9.0.5) date 2025-10-29 22:41:35*
%MOMM*%
%LPD*%
G01*
G04 APERTURE LIST*
G04 Aperture macros list*
%AMRoundRect*
0 Rectangle with rounded corners*
0 $1 Rounding radius*
0 $2 $3 $4 $5 $6 $7 $8 $9 X,Y pos of 4 corners*
0 Add a 4 corners polygon primitive as box body*
4,1,4,$2,$3,$4,$5,$6,$7,$8,$9,$2,$3,0*
0 Add four circle primitives for the rounded corners*
1,1,$1+$1,$2,$3*
1,1,$1+$1,$4,$5*
1,1,$1+$1,$6,$7*
1,1,$1+$1,$8,$9*
0 Add four rect primitives between the rounded corners*
20,1,$1+$1,$2,$3,$4,$5,0*
20,1,$1+$1,$4,$5,$6,$7,0*
20,1,$1+$1,$6,$7,$8,$9,0*
20,1,$1+$1,$8,$9,$2,$3,0*%
G04 Aperture macros list end*
%TA.AperFunction,Conductor*%
%ADD10C,0.200000*%
%TD*%
%TA.AperFunction,NonConductor*%
%ADD11C,0.200000*%
%TD*%
%TA.AperFunction,SMDPad,CuDef*%
%ADD12RoundRect,0.140000X0.140000X0.170000X-0.140000X0.170000X-0.140000X-0.170000X0.140000X-0.170000X0*%
%TD*%
%TA.AperFunction,SMDPad,CuDef*%
%ADD13RoundRect,0.250000X-0.450000X0.262500X-0.450000X-0.262500X0.450000X-0.262500X0.450000X0.262500X0*%
%TD*%
%TA.AperFunction,ComponentPad*%
%ADD14C,1.600000*%
%TD*%
%TA.AperFunction,SMDPad,CuDef*%
%ADD15RoundRect,0.100000X0.217500X0.100000X-0.217500X0.100000X-0.217500X-0.100000X0.217500X-0.100000X0*%
%TD*%
%TA.AperFunction,SMDPad,CuDef*%
%ADD16RoundRect,0.237500X0.300000X0.237500X-0.300000X0.237500X-0.300000X-0.237500X0.300000X-0.237500X0*%
%TD*%
%TA.AperFunction,SMDPad,CuDef*%
%ADD17RoundRect,0.250000X-0.262500X-0.450000X0.262500X-0.450000X0.262500X0.450000X-0.262500X0.450000X0*%
%TD*%
%TA.AperFunction,SMDPad,CuDef*%
%ADD18RoundRect,0.200000X0.275000X-0.200000X0.275000X0.200000X-0.275000X0.200000X-0.275000X-0.200000X0*%
%TD*%
%TA.AperFunction,SMDPad,CuDef*%
%ADD19RoundRect,0.150000X-0.825000X-0.150000X0.825000X-0.150000X0.825000X0.150000X-0.825000X0.150000X0*%
%TD*%
%TA.AperFunction,SMDPad,CuDef*%
%ADD20RoundRect,0.250000X-0.400000X-0.625000X0.400000X-0.625000X0.400000X0.625000X-0.400000X0.625000X0*%
%TD*%
%TA.AperFunction,ComponentPad*%
%ADD21RoundRect,0.250000X0.550000X0.550000X-0.550000X0.550000X-0.550000X-0.550000X0.550000X-0.550000X0*%
%TD*%
%TA.AperFunction,SMDPad,CuDef*%
%ADD22R,2.900000X5.400000*%
%TD*%
%TA.AperFunction,SMDPad,CuDef*%
%ADD23R,0.500000X1.600000*%
%TD*%
%TA.AperFunction,SMDPad,CuDef*%
%ADD24R,0.900000X0.600000*%
%TD*%
%TA.AperFunction,SMDPad,CuDef*%
%ADD25R,1.800000X1.700000*%
%TD*%
%TA.AperFunction,SMDPad,CuDef*%
%ADD26RoundRect,0.160000X-0.160000X0.197500X-0.160000X-0.197500X0.160000X-0.197500X0.160000X0.197500X0*%
%TD*%
%TA.AperFunction,ComponentPad*%
%ADD27C,2.000000*%
%TD*%
%TA.AperFunction,ComponentPad*%
%ADD28RoundRect,0.250000X0.750000X0.750000X-0.750000X0.750000X-0.750000X-0.750000X0.750000X-0.750000X0*%
%TD*%
%TA.AperFunction,SMDPad,CuDef*%
%ADD29R,0.500000X0.300000*%
%TD*%
%TA.AperFunction,SMDPad,CuDef*%
%ADD30R,1.050000X1.750000*%
%TD*%
%TA.AperFunction,SMDPad,CuDef*%
%ADD31RoundRect,0.250000X-0.625000X0.400000X-0.625000X-0.400000X0.625000X-0.400000X0.625000X0.400000X0*%
%TD*%
%TA.AperFunction,SMDPad,CuDef*%
%ADD32RoundRect,0.250000X0.400000X0.600000X-0.400000X0.600000X-0.400000X-0.600000X0.400000X-0.600000X0*%
%TD*%
%TA.AperFunction,SMDPad,CuDef*%
%ADD33RoundRect,0.250000X0.400000X0.625000X-0.400000X0.625000X-0.400000X-0.625000X0.400000X-0.625000X0*%
%TD*%
%TA.AperFunction,SMDPad,CuDef*%
%ADD34RoundRect,0.250000X-0.350000X-0.450000X0.350000X-0.450000X0.350000X0.450000X-0.350000X0.450000X0*%
%TD*%
%TA.AperFunction,SMDPad,CuDef*%
%ADD35RoundRect,0.140000X-0.140000X-0.170000X0.140000X-0.170000X0.140000X0.170000X-0.140000X0.170000X0*%
%TD*%
%TA.AperFunction,SMDPad,CuDef*%
%ADD36RoundRect,0.075000X0.390000X0.275000X-0.390000X0.275000X-0.390000X-0.275000X0.390000X-0.275000X0*%
%TD*%
%TA.AperFunction,SMDPad,CuDef*%
%ADD37RoundRect,0.075000X0.075000X0.275000X-0.075000X0.275000X-0.075000X-0.275000X0.075000X-0.275000X0*%
%TD*%
%TA.AperFunction,SMDPad,CuDef*%
%ADD38RoundRect,0.150000X0.825000X0.150000X-0.825000X0.150000X-0.825000X-0.150000X0.825000X-0.150000X0*%
%TD*%
%TA.AperFunction,ViaPad*%
%ADD39C,0.800000*%
%TD*%
G04 APERTURE END LIST*
D10*
%TO.N,Net-(U4-BAL)*%
X150000000Y-70000000D02*
X149500000Y-69500000D01*
%TO.N,Net-(Ubr1-OUT)*%
X92000000Y-67000000D02*
X91000000Y-68000000D01*
D11*
X151000000Y-63500000D02*
X158500000Y-63500000D01*
D10*
%TO.N,Net-(U4-BAL)*%
X150000000Y-70000000D02*
X151500000Y-70000000D01*
D11*
X159500000Y-61500000D02*
X159000000Y-61000000D01*
D10*
%TO.N,Net-(U3-V_{O})*%
X134000000Y-71000000D02*
X136000000Y-71000000D01*
%TO.N,/555 One Shot Close/Vout*%
X129500000Y-60500000D02*
X130500000Y-59500000D01*
%TO.N,/Buck Regulator/12V*%
X149000000Y-85500000D02*
X148500000Y-85000000D01*
%TO.N,/INcurrent correction/HSvoltage*%
X142000000Y-42000000D02*
X142000000Y-48000000D01*
%TO.N,Net-(U6A--)*%
X154500000Y-56000000D02*
X154500000Y-55000000D01*
%TO.N,/INcurrent correction/HSvoltage*%
X150000000Y-59000000D02*
X150000000Y-61000000D01*
%TO.N,/555 One Shot Close/Vout*%
X119500000Y-87000000D02*
X118000000Y-87000000D01*
%TO.N,Net-(U4-BAL)*%
X150000000Y-67500000D02*
X151500000Y-67500000D01*
%TO.N,Net-(ZD1-A)*%
X155000000Y-61000000D02*
X154500000Y-60500000D01*
%TO.N,/INcurrent correction/HSvoltage*%
X136000000Y-41000000D02*
X141000000Y-41000000D01*
%TO.N,/555 One Shot Close/Vout*%
X116000000Y-60500000D02*
X129500000Y-60500000D01*
%TO.N,Net-(U6A--)*%
X153000000Y-54500000D02*
X152500000Y-54000000D01*
D11*
X133000000Y-59500000D02*
X134000000Y-58500000D01*
D10*
%TO.N,/Buck Regulator/12V*%
X133000000Y-81000000D02*
X133000000Y-77000000D01*
%TO.N,Net-(U1-CV)*%
X120000000Y-65000000D02*
X119000000Y-65000000D01*
%TO.N,/INcurrent correction/Vout*%
X168500000Y-58500000D02*
X169500000Y-58500000D01*
D11*
X134000000Y-58500000D02*
X144500000Y-58500000D01*
D10*
%TO.N,/Buck Regulator/12V*%
X92000000Y-68500000D02*
X92000000Y-69500000D01*
X92500000Y-68000000D02*
X92000000Y-68500000D01*
%TO.N,/INcurrent correction/Vout*%
X170500000Y-59500000D02*
X170500000Y-60500000D01*
%TO.N,/Multiplier and Comparator/5V*%
X139500000Y-80500000D02*
X140000000Y-80000000D01*
%TO.N,/Buck Regulator/12V*%
X92000000Y-70500000D02*
X92500000Y-71000000D01*
%TO.N,/555 One Shot Close/Vin*%
X150000000Y-83000000D02*
X149000000Y-83000000D01*
%TO.N,/Multiplier and Comparator/5V*%
X162000000Y-66500000D02*
X162000000Y-69500000D01*
%TO.N,/555 One Shot Close/Vin*%
X149000000Y-83000000D02*
X148500000Y-83500000D01*
%TO.N,/INcurrent correction/Vout*%
X170500000Y-60500000D02*
X169500000Y-61500000D01*
%TO.N,Net-(U5-CV)*%
X118500000Y-91500000D02*
X126500000Y-91500000D01*
%TO.N,/Multiplier and Comparator/5V*%
X140000000Y-79000000D02*
X140500000Y-78500000D01*
%TO.N,Net-(U6A--)*%
X152500000Y-53500000D02*
X153000000Y-53000000D01*
%TO.N,Net-(ZD1-A)*%
X154500000Y-59500000D02*
X154500000Y-57000000D01*
%TO.N,Net-(U1-CV)*%
X119000000Y-65000000D02*
X118000000Y-64000000D01*
D11*
X148500000Y-61000000D02*
X151000000Y-63500000D01*
D10*
%TO.N,/Buck Regulator/12V*%
X107000000Y-77500000D02*
X106500000Y-78000000D01*
%TO.N,/Multiplier and Comparator/5V*%
X137000000Y-80500000D02*
X142500000Y-80500000D01*
X140500000Y-78500000D02*
X147500000Y-78500000D01*
%TO.N,/555 One Shot Close/Vin*%
X142000000Y-87500000D02*
X141000000Y-86500000D01*
%TO.N,Net-(U5-CV)*%
X118500000Y-88500000D02*
X117500000Y-89500000D01*
%TO.N,Net-(U6A--)*%
X153000000Y-53000000D02*
X158000000Y-53000000D01*
%TO.N,/Multiplier and Comparator/5V*%
X162000000Y-69500000D02*
X161000000Y-70500000D01*
%TO.N,Net-(U1-CV)*%
X129000000Y-66000000D02*
X128000000Y-65000000D01*
%TO.N,Net-(Ubr1-OUT)*%
X91000000Y-68000000D02*
X91000000Y-77000000D01*
%TO.N,/555 One Shot Close/Vout*%
X129500000Y-55000000D02*
X128000000Y-55000000D01*
%TO.N,Net-(ZD1-A)*%
X155000000Y-58500000D02*
X160500000Y-58500000D01*
%TO.N,/Buck Regulator/12V*%
X109000000Y-82500000D02*
X108000000Y-81500000D01*
D11*
X159500000Y-62500000D02*
X159500000Y-61500000D01*
D10*
X115500000Y-82500000D02*
X109000000Y-82500000D01*
%TO.N,Net-(U1-CV)*%
X126000000Y-65000000D02*
X128000000Y-65000000D01*
%TO.N,Net-(Ubr1-OUT)*%
X93500000Y-67000000D02*
X92000000Y-67000000D01*
%TO.N,/555 One Shot Close/Vin*%
X141000000Y-85500000D02*
X140000000Y-84500000D01*
%TO.N,Net-(U1-CV)*%
X117500000Y-76500000D02*
X120500000Y-76500000D01*
%TO.N,Net-(U5-DIS)*%
X125500000Y-87000000D02*
X127000000Y-87000000D01*
%TO.N,Net-(U1-CV)*%
X116000000Y-71000000D02*
X114500000Y-71000000D01*
%TO.N,/Buck Regulator/12V*%
X106500000Y-71000000D02*
X92500000Y-71000000D01*
%TO.N,Net-(U1-DIS)*%
X117240000Y-67500000D02*
X118760000Y-67500000D01*
%TO.N,/INcurrent correction/HSvoltage*%
X141000000Y-41000000D02*
X142000000Y-42000000D01*
D11*
X133000000Y-77000000D02*
X133000000Y-56500000D01*
D10*
%TO.N,Net-(U5-DIS)*%
X127000000Y-87000000D02*
X128000000Y-86000000D01*
%TO.N,/Buck Regulator/12V*%
X133500000Y-80500000D02*
X134500000Y-80500000D01*
%TO.N,/555 One Shot Close/Vin*%
X148500000Y-83500000D02*
X145000000Y-83500000D01*
%TO.N,Net-(U6A--)*%
X152500000Y-60500000D02*
X152500000Y-61000000D01*
%TO.N,Net-(U1-DIS)*%
X117500000Y-67500000D02*
X115000000Y-67500000D01*
%TO.N,/555 One Shot Close/Vin*%
X151500000Y-83000000D02*
X150000000Y-83000000D01*
%TO.N,Net-(U6A--)*%
X154500000Y-55000000D02*
X154000000Y-54500000D01*
%TO.N,/Multiplier and Comparator/5V*%
X148500000Y-77500000D02*
X148500000Y-66500000D01*
%TO.N,/INcurrent correction/Vout*%
X162000000Y-62500000D02*
X162000000Y-63500000D01*
%TO.N,/Buck Regulator/12V*%
X141500000Y-83000000D02*
X141000000Y-82500000D01*
%TO.N,Net-(U1-CV)*%
X118000000Y-64000000D02*
X118000000Y-63000000D01*
X128000000Y-62000000D02*
X129000000Y-63000000D01*
%TO.N,/Buck Regulator/12V*%
X106500000Y-78000000D02*
X105500000Y-78000000D01*
X92000000Y-70500000D02*
X92000000Y-69500000D01*
%TO.N,Net-(U1-DIS)*%
X120250000Y-67500000D02*
X118750000Y-67500000D01*
%TO.N,Net-(U1-CV)*%
X116000000Y-71000000D02*
X117000000Y-72000000D01*
%TO.N,Net-(U1-DIS)*%
X118990000Y-66500000D02*
X120010000Y-66500000D01*
%TO.N,/555 One Shot Close/Vin*%
X140000000Y-84500000D02*
X134000000Y-84500000D01*
%TO.N,/555 One Shot Open/Vout*%
X126000000Y-66500000D02*
X127500000Y-66500000D01*
%TO.N,Net-(U5-CV)*%
X119500000Y-88500000D02*
X118500000Y-88500000D01*
%TO.N,/Multiplier and Comparator/INvolt*%
X145000000Y-76500000D02*
X143500000Y-76500000D01*
%TO.N,/Buck Regulator/12V*%
X132500000Y-82500000D02*
X133000000Y-82000000D01*
X151500000Y-85500000D02*
X149000000Y-85500000D01*
%TO.N,/555 One Shot Close/Vin*%
X135000000Y-84500000D02*
X134000000Y-85500000D01*
%TO.N,/Voltage and Current measuring/I OUT*%
X138500000Y-49500000D02*
X148500000Y-49500000D01*
%TO.N,/Multiplier and Comparator/INvolt*%
X146000000Y-54000000D02*
X146000000Y-75500000D01*
%TO.N,/INcurrent correction/Vout*%
X169500000Y-61500000D02*
X163000000Y-61500000D01*
%TO.N,/Multiplier and Comparator/5V*%
X148500000Y-66500000D02*
X149500000Y-65500000D01*
%TO.N,Net-(U3-V_{O})*%
X161000000Y-89000000D02*
X140000000Y-89000000D01*
%TO.N,/555 One Shot Close/Vin*%
X141000000Y-86500000D02*
X141000000Y-85500000D01*
%TO.N,Net-(U1-CV)*%
X117000000Y-72000000D02*
X118000000Y-71000000D01*
%TO.N,/Buck Regulator/12V*%
X148500000Y-85000000D02*
X148000000Y-85500000D01*
%TO.N,Net-(U5-CV)*%
X126500000Y-97000000D02*
X124000000Y-97000000D01*
D11*
X147500000Y-58500000D02*
X148500000Y-59500000D01*
D10*
X125500000Y-88500000D02*
X126500000Y-88500000D01*
%TO.N,/Buck Regulator/12V*%
X133000000Y-82000000D02*
X133000000Y-81000000D01*
%TO.N,/INcurrent correction/HSvoltage*%
X135000000Y-42000000D02*
X136000000Y-41000000D01*
%TO.N,Net-(U4-BAL)*%
X149500000Y-68000000D02*
X150000000Y-67500000D01*
%TO.N,/Multiplier and Comparator/5V*%
X149500000Y-65500000D02*
X161000000Y-65500000D01*
D11*
X158500000Y-63500000D02*
X159500000Y-62500000D01*
D10*
%TO.N,/Buck Regulator/12V*%
X106500000Y-86500000D02*
X100500000Y-86500000D01*
%TO.N,Net-(U5-CV)*%
X127500000Y-89500000D02*
X127500000Y-96000000D01*
%TO.N,Net-(U6A--)*%
X152500000Y-54000000D02*
X152500000Y-53500000D01*
%TO.N,Net-(U1-DIS)*%
X119000000Y-66500000D02*
X118000000Y-67500000D01*
%TO.N,/Voltage and Current measuring/I IN*%
X135000000Y-49500000D02*
X128000000Y-49500000D01*
%TO.N,Net-(U1-CV)*%
X117000000Y-72000000D02*
X117000000Y-76000000D01*
%TO.N,Net-(Ubr1-OUT)*%
X91000000Y-77000000D02*
X91500000Y-77500000D01*
%TO.N,Net-(U1-CV)*%
X129000000Y-70000000D02*
X128000000Y-71000000D01*
%TO.N,/Multiplier and Comparator/5V*%
X161000000Y-65500000D02*
X162000000Y-66500000D01*
%TO.N,/Buck Regulator/12V*%
X107000000Y-77500000D02*
X107000000Y-86000000D01*
X107000000Y-71500000D02*
X107000000Y-77500000D01*
D11*
X134000000Y-55500000D02*
X135500000Y-55500000D01*
D10*
%TO.N,Net-(U6A--)*%
X154000000Y-54500000D02*
X153000000Y-54500000D01*
%TO.N,/555 One Shot Close/Vin*%
X134000000Y-84500000D02*
X125500000Y-84500000D01*
%TO.N,/Multiplier and Comparator/INvolt*%
X147000000Y-53000000D02*
X146000000Y-54000000D01*
%TO.N,/Buck Regulator/12V*%
X142000000Y-85500000D02*
X141500000Y-85000000D01*
%TO.N,/Multiplier and Comparator/INvolt*%
X148500000Y-51500000D02*
X148500000Y-54500000D01*
%TO.N,Monitor Supply*%
X93500000Y-65500000D02*
X92000000Y-65500000D01*
D11*
X108000000Y-81500000D02*
X107000000Y-80500000D01*
D10*
%TO.N,/Multiplier and Comparator/INvolt*%
X146000000Y-75500000D02*
X145000000Y-76500000D01*
%TO.N,Net-(U6A--)*%
X152500000Y-55000000D02*
X152500000Y-60500000D01*
%TO.N,Net-(U1-CV)*%
X119000000Y-62000000D02*
X128000000Y-62000000D01*
%TO.N,Net-(U3-V_{O})*%
X159500000Y-83000000D02*
X161000000Y-83000000D01*
%TO.N,/Buck Regulator/12V*%
X148000000Y-85500000D02*
X142000000Y-85500000D01*
D11*
X133000000Y-56500000D02*
X134000000Y-55500000D01*
D10*
X106500000Y-71000000D02*
X107000000Y-71500000D01*
%TO.N,Net-(U6A--)*%
X152500000Y-61000000D02*
X153000000Y-61500000D01*
D11*
X159000000Y-61000000D02*
X158000000Y-61000000D01*
D10*
%TO.N,/Buck Regulator/12V*%
X106500000Y-71000000D02*
X111000000Y-71000000D01*
X92500000Y-68000000D02*
X93500000Y-68000000D01*
X133000000Y-81000000D02*
X133500000Y-80500000D01*
%TO.N,Net-(U5-DIS)*%
X125500000Y-86000000D02*
X129000000Y-86000000D01*
%TO.N,/555 One Shot Close/Vout*%
X130500000Y-59500000D02*
X130500000Y-56000000D01*
%TO.N,/555 One Shot Close/Vin*%
X134000000Y-85500000D02*
X134000000Y-86500000D01*
%TO.N,/INcurrent correction/HSvoltage*%
X150000000Y-61000000D02*
X151000000Y-62000000D01*
%TO.N,/555 One Shot Open/Vin*%
X108500000Y-69000000D02*
X120000000Y-69000000D01*
%TO.N,/INcurrent correction/HSvoltage*%
X135000000Y-43500000D02*
X135000000Y-42000000D01*
%TO.N,Net-(Ubr1-OUT)*%
X91500000Y-77500000D02*
X93500000Y-77500000D01*
%TO.N,Net-(ZD1-A)*%
X154500000Y-60500000D02*
X154500000Y-59500000D01*
%TO.N,/555 One Shot Close/Vout*%
X130500000Y-56000000D02*
X129500000Y-55000000D01*
%TO.N,/Voltage and Current measuring/3\u002C3V*%
X141000000Y-43500000D02*
X138500000Y-43500000D01*
%TO.N,Net-(U5-CV)*%
X128500000Y-89500000D02*
X127500000Y-90500000D01*
%TO.N,/INcurrent correction/HSvoltage*%
X151000000Y-62000000D02*
X156000000Y-62000000D01*
%TO.N,/INcurrent correction/Vout*%
X169500000Y-58500000D02*
X170500000Y-59500000D01*
%TO.N,Net-(U5-CV)*%
X134000000Y-89500000D02*
X128500000Y-89500000D01*
%TO.N,/Multiplier and Comparator/5V*%
X161000000Y-70500000D02*
X159500000Y-70500000D01*
%TO.N,Net-(U5-CV)*%
X126500000Y-91500000D02*
X127500000Y-92500000D01*
%TO.N,/Voltage and Current measuring/I OUT*%
X148500000Y-49500000D02*
X154000000Y-49500000D01*
%TO.N,Net-(U5-CV)*%
X117500000Y-90500000D02*
X118500000Y-91500000D01*
%TO.N,/Buck Regulator/12V*%
X107000000Y-86000000D02*
X106500000Y-86500000D01*
%TO.N,Net-(U5-CV)*%
X127500000Y-96000000D02*
X126500000Y-97000000D01*
%TO.N,Net-(U1-CV)*%
X129000000Y-63000000D02*
X129000000Y-70000000D01*
%TO.N,/Buck Regulator/12V*%
X132500000Y-82500000D02*
X115500000Y-82500000D01*
%TO.N,Net-(U1-CV)*%
X117000000Y-76000000D02*
X117500000Y-76500000D01*
%TO.N,Net-(U6A--)*%
X153000000Y-61500000D02*
X156000000Y-61500000D01*
%TO.N,/Buck Regulator/12V*%
X141500000Y-85000000D02*
X141500000Y-83000000D01*
%TO.N,/INcurrent correction/Vout*%
X162000000Y-63500000D02*
X161000000Y-64500000D01*
%TO.N,Net-(ZD1-A)*%
X156000000Y-61000000D02*
X155000000Y-61000000D01*
%TO.N,/Voltage and Current measuring/3\u002C3V*%
X137500000Y-55412500D02*
X142000000Y-55412500D01*
%TO.N,Net-(U3-V_{O})*%
X162000000Y-84000000D02*
X162000000Y-88000000D01*
%TO.N,Net-(U6A--)*%
X153000000Y-54500000D02*
X152500000Y-55000000D01*
%TO.N,/Buck Regulator/12V*%
X134000000Y-76000000D02*
X136000000Y-76000000D01*
%TO.N,Net-(U4-BAL)*%
X149500000Y-69500000D02*
X149500000Y-68000000D01*
%TO.N,/Multiplier and Comparator/5V*%
X147500000Y-78500000D02*
X148500000Y-77500000D01*
%TO.N,/INcurrent correction/Vout*%
X161000000Y-64500000D02*
X150500000Y-64500000D01*
%TO.N,Net-(U3-V_{O})*%
X162000000Y-88000000D02*
X161000000Y-89000000D01*
%TO.N,/INcurrent correction/Vout*%
X163000000Y-61500000D02*
X162000000Y-62500000D01*
D11*
X148500000Y-59500000D02*
X148500000Y-61000000D01*
D10*
%TO.N,/Buck Regulator/12V*%
X141000000Y-82500000D02*
X132500000Y-82500000D01*
%TO.N,Net-(ZD1-A)*%
X154500000Y-59000000D02*
X155000000Y-58500000D01*
%TO.N,/Multiplier and Comparator/5V*%
X140000000Y-79000000D02*
X140000000Y-80000000D01*
%TO.N,Net-(K2-Pad14)*%
X132000000Y-39500000D02*
X128000000Y-39500000D01*
%TO.N,/Buck Regulator/12V*%
X92000000Y-70000000D02*
X92000000Y-69500000D01*
%TO.N,Net-(U5-CV)*%
X117500000Y-89500000D02*
X117500000Y-90500000D01*
%TO.N,Net-(SD1-A)*%
X164500000Y-58500000D02*
X167500000Y-58500000D01*
%TO.N,Net-(U3-V_{O})*%
X161000000Y-83000000D02*
X162000000Y-84000000D01*
%TO.N,/INcurrent correction/Vout*%
X150500000Y-64500000D02*
X149500000Y-63500000D01*
%TO.N,/Buck Regulator/12V*%
X133000000Y-77000000D02*
X134000000Y-76000000D01*
%TO.N,Net-(U5-CV)*%
X126500000Y-88500000D02*
X127500000Y-89500000D01*
%TO.N,Net-(U1-CV)*%
X118000000Y-63000000D02*
X119000000Y-62000000D01*
%TO.N,/INcurrent correction/Vout*%
X145500000Y-63500000D02*
X143500000Y-63500000D01*
D11*
X106500000Y-71000000D02*
X108500000Y-69000000D01*
D10*
%TO.N,/Multiplier and Comparator/INvolt*%
X148500000Y-53000000D02*
X147000000Y-53000000D01*
%TO.N,Net-(U1-CV)*%
X118000000Y-71000000D02*
X128000000Y-71000000D01*
%TD*%
D12*
%TO.P,C6,1*%
%TO.N,GND*%
X129980000Y-86000000D03*
%TO.P,C6,2*%
%TO.N,Net-(U5-DIS)*%
X129020000Y-86000000D03*
%TD*%
D13*
%TO.P,R5,1*%
%TO.N,/Voltage and Current measuring/I OUT*%
X148500000Y-49675000D03*
%TO.P,R5,2*%
%TO.N,/Multiplier and Comparator/INvolt*%
X148500000Y-51500000D03*
%TD*%
D14*
%TO.P,C3,1*%
%TO.N,GND*%
X124250000Y-76500000D03*
%TO.P,C3,2*%
%TO.N,Net-(U1-CV)*%
X120750000Y-76500000D03*
%TD*%
D15*
%TO.P,C1,1*%
%TO.N,Monitor Supply*%
X91907500Y-65500000D03*
%TO.P,C1,2*%
%TO.N,GND*%
X91092500Y-65500000D03*
%TD*%
D16*
%TO.P,C2,1*%
%TO.N,/Buck Regulator/12V*%
X100500000Y-86500000D03*
%TO.P,C2,2*%
%TO.N,GND*%
X98775000Y-86500000D03*
%TD*%
D17*
%TO.P,R8,1*%
%TO.N,/Buck Regulator/12V*%
X135000000Y-80500000D03*
%TO.P,R8,2*%
%TO.N,/Multiplier and Comparator/5V*%
X136825000Y-80500000D03*
%TD*%
D18*
%TO.P,R7,1*%
%TO.N,/Buck Regulator/12V*%
X148500000Y-85150000D03*
%TO.P,R7,2*%
%TO.N,/555 One Shot Close/Vin*%
X148500000Y-83500000D03*
%TD*%
D19*
%TO.P,Ubr1,1,VIN*%
%TO.N,Monitor Supply*%
X94025000Y-65595000D03*
%TO.P,Ubr1,2,OUT*%
%TO.N,Net-(Ubr1-OUT)*%
X94025000Y-66865000D03*
%TO.P,Ubr1,3,FB*%
%TO.N,/Buck Regulator/12V*%
X94025000Y-68135000D03*
%TO.P,Ubr1,4,~{EN}*%
%TO.N,GND*%
X94025000Y-69405000D03*
%TO.P,Ubr1,5,GND*%
X98975000Y-69405000D03*
%TO.P,Ubr1,6,GND*%
X98975000Y-68135000D03*
%TO.P,Ubr1,7,GND*%
X98975000Y-66865000D03*
%TO.P,Ubr1,8,GND*%
X98975000Y-65595000D03*
%TD*%
D20*
%TO.P,R10,1*%
%TO.N,/555 One Shot Open/Vin*%
X110950000Y-71000000D03*
%TO.P,R10,2*%
%TO.N,Net-(U1-CV)*%
X114050000Y-71000000D03*
%TD*%
D21*
%TO.P,U4,1,GND*%
%TO.N,GND*%
X159305000Y-85390000D03*
D14*
%TO.P,U4,2,+*%
%TO.N,Net-(U3-V_{O})*%
X159305000Y-82850000D03*
%TO.P,U4,3,-*%
%TO.N,/Multiplier and Comparator/5V*%
X159305000Y-70150000D03*
%TO.P,U4,4,V-*%
%TO.N,GND*%
X159305000Y-67610000D03*
%TO.P,U4,5,BAL*%
%TO.N,Net-(U4-BAL)*%
X151685000Y-67610000D03*
%TO.P,U4,6,STRB*%
X151685000Y-70150000D03*
%TO.P,U4,7*%
%TO.N,/555 One Shot Close/Vin*%
X151685000Y-82850000D03*
%TO.P,U4,8,V+*%
%TO.N,/Buck Regulator/12V*%
X151685000Y-85390000D03*
%TD*%
D22*
%TO.P,L1,1,1*%
%TO.N,Net-(Ubr1-OUT)*%
X94550000Y-78000000D03*
%TO.P,L1,2,2*%
%TO.N,/Buck Regulator/12V*%
X104450000Y-78000000D03*
%TD*%
D23*
%TO.P,U2,1,VCC*%
%TO.N,/Voltage and Current measuring/3\u002C3V*%
X138300000Y-44000000D03*
%TO.P,U2,2,GND*%
%TO.N,GND*%
X136700000Y-44000000D03*
%TO.P,U2,3,VOUT*%
%TO.N,/INcurrent correction/HSvoltage*%
X135100000Y-44000000D03*
D24*
%TO.P,U2,4,NC*%
%TO.N,GND*%
X133900000Y-46500000D03*
D25*
%TO.P,U2,5,IP+*%
%TO.N,/Voltage and Current measuring/I IN*%
X135200000Y-48850000D03*
%TO.P,U2,6,IP-*%
%TO.N,/Voltage and Current measuring/I OUT*%
X138200000Y-48850000D03*
D24*
%TO.P,U2,7,NC*%
%TO.N,GND*%
X139500000Y-46500000D03*
%TD*%
D26*
%TO.P,R2,1*%
%TO.N,Net-(U6A--)*%
X154500000Y-55902500D03*
%TO.P,R2,2*%
%TO.N,Net-(ZD1-A)*%
X154500000Y-57097500D03*
%TD*%
D27*
%TO.P,K2,11*%
%TO.N,/Voltage and Current measuring/I IN*%
X127810000Y-49600295D03*
%TO.P,K2,12*%
%TO.N,unconnected-(K2-Pad12)*%
X127810000Y-44520295D03*
%TO.P,K2,14*%
%TO.N,Net-(K2-Pad14)*%
X127810000Y-39440295D03*
%TO.P,K2,21*%
%TO.N,unconnected-(K2-Pad21)*%
X120190000Y-49600295D03*
%TO.P,K2,22*%
%TO.N,unconnected-(K2-Pad22)*%
X120190000Y-44520295D03*
%TO.P,K2,24*%
%TO.N,unconnected-(K2-Pad24)*%
X120190000Y-39440295D03*
D28*
%TO.P,K2,A1*%
%TO.N,/555 One Shot Open/Vout*%
X127810000Y-57220295D03*
D27*
%TO.P,K2,A2*%
%TO.N,GND*%
X120190000Y-57220295D03*
%TO.P,K2,B1*%
%TO.N,/555 One Shot Close/Vout*%
X127810000Y-54680295D03*
%TO.P,K2,B2*%
%TO.N,GND*%
X120190000Y-54680295D03*
%TD*%
D14*
%TO.P,C5,1*%
%TO.N,GND*%
X120500000Y-97000000D03*
%TO.P,C5,2*%
%TO.N,Net-(U5-CV)*%
X124000000Y-97000000D03*
%TD*%
D20*
%TO.P,R9,1*%
%TO.N,/Multiplier and Comparator/5V*%
X142500000Y-80500000D03*
%TO.P,R9,2*%
%TO.N,GND*%
X145600000Y-80500000D03*
%TD*%
D21*
%TO.P,U3,1,X_{1}*%
%TO.N,/Multiplier and Comparator/INvolt*%
X143620000Y-76200000D03*
D14*
%TO.P,U3,2,X_{2}*%
%TO.N,GND*%
X143620000Y-73660000D03*
%TO.P,U3,3,NC*%
%TO.N,unconnected-(U3-NC-Pad3)*%
X143620000Y-71120000D03*
%TO.P,U3,4,SF*%
%TO.N,unconnected-(U3-SF-Pad4)*%
X143620000Y-68580000D03*
%TO.P,U3,5,NC*%
%TO.N,unconnected-(U3-NC-Pad5)*%
X143620000Y-66040000D03*
%TO.P,U3,6,Y_{1}*%
%TO.N,/INcurrent correction/Vout*%
X143620000Y-63500000D03*
%TO.P,U3,7,Y_{2}*%
%TO.N,GND*%
X143620000Y-60960000D03*
%TO.P,U3,8,-V_{S}*%
X136000000Y-60960000D03*
%TO.P,U3,9,NC*%
%TO.N,unconnected-(U3-NC-Pad9)*%
X136000000Y-63500000D03*
%TO.P,U3,10,Z_{2}*%
%TO.N,GND*%
X136000000Y-66040000D03*
%TO.P,U3,11,Z_{1}*%
X136000000Y-68580000D03*
%TO.P,U3,12,V_{O}*%
%TO.N,Net-(U3-V_{O})*%
X136000000Y-71120000D03*
%TO.P,U3,13,NC*%
%TO.N,unconnected-(U3-NC-Pad13)*%
X136000000Y-73660000D03*
%TO.P,U3,14,+V_{S}*%
%TO.N,/Buck Regulator/12V*%
X136000000Y-76200000D03*
%TD*%
D19*
%TO.P,U5,1,GND*%
%TO.N,GND*%
X120025000Y-84595000D03*
%TO.P,U5,2,TR*%
%TO.N,unconnected-(U5-TR-Pad2)*%
X120025000Y-85865000D03*
%TO.P,U5,3,Q*%
%TO.N,/555 One Shot Close/Vout*%
X120025000Y-87135000D03*
%TO.P,U5,4,R*%
%TO.N,Net-(U5-CV)*%
X120025000Y-88405000D03*
%TO.P,U5,5,CV*%
X124975000Y-88405000D03*
%TO.P,U5,6,THR*%
%TO.N,Net-(U5-DIS)*%
X124975000Y-87135000D03*
%TO.P,U5,7,DIS*%
X124975000Y-85865000D03*
%TO.P,U5,8,VCC*%
%TO.N,/555 One Shot Close/Vin*%
X124975000Y-84595000D03*
%TD*%
D29*
%TO.P,U6,1*%
%TO.N,Net-(ZD1-A)*%
X156000000Y-61000000D03*
%TO.P,U6,2,-*%
%TO.N,Net-(U6A--)*%
X156000000Y-61500000D03*
%TO.P,U6,3,+*%
%TO.N,/INcurrent correction/HSvoltage*%
X156000000Y-62000000D03*
%TO.P,U6,4,V-*%
%TO.N,GND*%
X156000000Y-62500000D03*
%TO.P,U6,5*%
%TO.N,N/C*%
X157800000Y-62500000D03*
%TO.P,U6,6*%
X157800000Y-62000000D03*
%TO.P,U6,7*%
X157800000Y-61500000D03*
%TO.P,U6,8,V+*%
%TO.N,/Buck Regulator/12V*%
X157800000Y-61000000D03*
D30*
%TO.P,U6,9,PAD*%
%TO.N,unconnected-(U6C-PAD-Pad9)*%
X156900000Y-61750000D03*
%TD*%
D31*
%TO.P,R4,1*%
%TO.N,/555 One Shot Close/Vin*%
X134000000Y-86500000D03*
%TO.P,R4,2*%
%TO.N,Net-(U5-CV)*%
X134000000Y-89600000D03*
%TD*%
D13*
%TO.P,R6,1*%
%TO.N,/Multiplier and Comparator/INvolt*%
X148500000Y-54500000D03*
%TO.P,R6,2*%
%TO.N,GND*%
X148500000Y-56325000D03*
%TD*%
D32*
%TO.P,ZD1,1,K*%
%TO.N,Net-(SD1-A)*%
X164250000Y-58500000D03*
%TO.P,ZD1,2,A*%
%TO.N,Net-(ZD1-A)*%
X160750000Y-58500000D03*
%TD*%
D17*
%TO.P,Rd1,1*%
%TO.N,/Buck Regulator/12V*%
X135587500Y-55500000D03*
%TO.P,Rd1,2*%
%TO.N,/Voltage and Current measuring/3\u002C3V*%
X137412500Y-55500000D03*
%TD*%
D33*
%TO.P,R1,1*%
%TO.N,GND*%
X161550000Y-53000000D03*
%TO.P,R1,2*%
%TO.N,Net-(U6A--)*%
X158450000Y-53000000D03*
%TD*%
D34*
%TO.P,Rd2,1*%
%TO.N,/Voltage and Current measuring/3\u002C3V*%
X142000000Y-55500000D03*
%TO.P,Rd2,2*%
%TO.N,GND*%
X144000000Y-55500000D03*
%TD*%
D35*
%TO.P,C4,1*%
%TO.N,GND*%
X114020000Y-67500000D03*
%TO.P,C4,2*%
%TO.N,Net-(U1-DIS)*%
X114980000Y-67500000D03*
%TD*%
D36*
%TO.P,SD1,1,K*%
%TO.N,/INcurrent correction/Vout*%
X168285000Y-58500000D03*
D37*
%TO.P,SD1,2,A*%
%TO.N,Net-(SD1-A)*%
X167400000Y-58500000D03*
%TD*%
D38*
%TO.P,U1,1,GND*%
%TO.N,GND*%
X125475000Y-68905000D03*
%TO.P,U1,2,TR*%
%TO.N,unconnected-(U1-TR-Pad2)*%
X125475000Y-67635000D03*
%TO.P,U1,3,Q*%
%TO.N,/555 One Shot Open/Vout*%
X125475000Y-66365000D03*
%TO.P,U1,4,R*%
%TO.N,Net-(U1-CV)*%
X125475000Y-65095000D03*
%TO.P,U1,5,CV*%
X120525000Y-65095000D03*
%TO.P,U1,6,THR*%
%TO.N,Net-(U1-DIS)*%
X120525000Y-66365000D03*
%TO.P,U1,7,DIS*%
X120525000Y-67635000D03*
%TO.P,U1,8,VCC*%
%TO.N,/555 One Shot Open/Vin*%
X120525000Y-68905000D03*
%TD*%
D39*
%TO.N,*%
X147500000Y-58500000D03*
X144500000Y-58500000D03*
%TO.N,/555 One Shot Open/Vout*%
X127500000Y-66500000D03*
%TO.N,/Buck Regulator/12V*%
X106500000Y-71000000D03*
%TO.N,/Voltage and Current measuring/3\u002C3V*%
X140000000Y-55412500D03*
X141000000Y-43500000D03*
%TO.N,/INcurrent correction/HSvoltage*%
X142000000Y-48000000D03*
X150000000Y-59000000D03*
%TO.N,/INcurrent correction/Vout*%
X145300000Y-63500000D03*
X149500000Y-63500000D03*
%TO.N,Net-(U3-V_{O})*%
X140000000Y-89000000D03*
X134000000Y-71000000D03*
%TO.N,/555 One Shot Close/Vin*%
X145000000Y-83500000D03*
X142000000Y-87500000D03*
%TO.N,/555 One Shot Close/Vout*%
X116000000Y-60500000D03*
X118000000Y-87000000D03*
%TO.N,Net-(K2-Pad14)*%
X132000000Y-39500000D03*
%TO.N,/Voltage and Current measuring/I OUT*%
X154000000Y-49500000D03*
%TD*%
%TA.AperFunction,Conductor*%
%TO.N,GND*%
G36*
X146736814Y-59071854D02*
G01*
X146750147Y-59069938D01*
X146770290Y-59079137D01*
X146791927Y-59083844D01*
X146809652Y-59097112D01*
X146813703Y-59098963D01*
X146820181Y-59104995D01*
X146920861Y-59205675D01*
X146920865Y-59205678D01*
X147069657Y-59305098D01*
X147069661Y-59305100D01*
X147069664Y-59305102D01*
X147235000Y-59373587D01*
X147410516Y-59408499D01*
X147410520Y-59408500D01*
X147410521Y-59408500D01*
X147496589Y-59408500D01*
X147563628Y-59428185D01*
X147584270Y-59444819D01*
X147855181Y-59715730D01*
X147888666Y-59777053D01*
X147891500Y-59803411D01*
X147891500Y-61080111D01*
X147899107Y-61108500D01*
X147932968Y-61234873D01*
X148013078Y-61373627D01*
X148013080Y-61373629D01*
X149125600Y-62486149D01*
X149159085Y-62547472D01*
X149154101Y-62617164D01*
X149112229Y-62673097D01*
X149085373Y-62688390D01*
X149069672Y-62694893D01*
X149069657Y-62694901D01*
X148920865Y-62794321D01*
X148920861Y-62794324D01*
X148794324Y-62920861D01*
X148794321Y-62920865D01*
X148694901Y-63069657D01*
X148694896Y-63069667D01*
X148626413Y-63234999D01*
X148626411Y-63235007D01*
X148591500Y-63410516D01*
X148591500Y-63589483D01*
X148626411Y-63764992D01*
X148626413Y-63765000D01*
X148694896Y-63930332D01*
X148694901Y-63930342D01*
X148794321Y-64079134D01*
X148794324Y-64079138D01*
X148920861Y-64205675D01*
X148920865Y-64205678D01*
X149069657Y-64305098D01*
X149069661Y-64305100D01*
X149069664Y-64305102D01*
X149235000Y-64373587D01*
X149325056Y-64391500D01*
X149410516Y-64408499D01*
X149410520Y-64408500D01*
X149410521Y-64408500D01*
X149496589Y-64408500D01*
X149563628Y-64428185D01*
X149584270Y-64444819D01*
X149819270Y-64679819D01*
X149852755Y-64741142D01*
X149847771Y-64810834D01*
X149805899Y-64866767D01*
X149740435Y-64891184D01*
X149731589Y-64891500D01*
X149419889Y-64891500D01*
X149313939Y-64919888D01*
X149313940Y-64919889D01*
X149265126Y-64932968D01*
X149265125Y-64932969D01*
X149126376Y-65013075D01*
X149126371Y-65013079D01*
X148013080Y-66126370D01*
X148013076Y-66126376D01*
X147932967Y-66265126D01*
X147932968Y-66265126D01*
X147932968Y-66265127D01*
X147891500Y-66419889D01*
X147891500Y-77196589D01*
X147871815Y-77263628D01*
X147855181Y-77284270D01*
X147284270Y-77855181D01*
X147222947Y-77888666D01*
X147196589Y-77891500D01*
X140419889Y-77891500D01*
X140313939Y-77919888D01*
X140313940Y-77919889D01*
X140265126Y-77932968D01*
X140265125Y-77932969D01*
X140126376Y-78013075D01*
X140126371Y-78013079D01*
X139513080Y-78626370D01*
X139513076Y-78626376D01*
X139432967Y-78765126D01*
X139432968Y-78765126D01*
X139432968Y-78765127D01*
X139391500Y-78919889D01*
X139391500Y-79696589D01*
X139382855Y-79726029D01*
X139376332Y-79756016D01*
X139372577Y-79761031D01*
X139371815Y-79763628D01*
X139355181Y-79784270D01*
X139284270Y-79855181D01*
X139222947Y-79888666D01*
X139196589Y-79891500D01*
X137923579Y-79891500D01*
X137856540Y-79871815D01*
X137810785Y-79819011D01*
X137805873Y-79806503D01*
X137779617Y-79727266D01*
X137778854Y-79726029D01*
X137686530Y-79576348D01*
X137561152Y-79450970D01*
X137410238Y-79357885D01*
X137296453Y-79320181D01*
X137241927Y-79302113D01*
X137138046Y-79291500D01*
X136511962Y-79291500D01*
X136511946Y-79291501D01*
X136408072Y-79302113D01*
X136239764Y-79357884D01*
X136239759Y-79357886D01*
X136088846Y-79450971D01*
X136000181Y-79539637D01*
X135938858Y-79573122D01*
X135869166Y-79568138D01*
X135824819Y-79539637D01*
X135736153Y-79450971D01*
X135736152Y-79450970D01*
X135585238Y-79357885D01*
X135471453Y-79320181D01*
X135416927Y-79302113D01*
X135313046Y-79291500D01*
X134686962Y-79291500D01*
X134686946Y-79291501D01*
X134583072Y-79302113D01*
X134414764Y-79357884D01*
X134414759Y-79357886D01*
X134263846Y-79450971D01*
X134138471Y-79576346D01*
X134045382Y-79727266D01*
X134019127Y-79806503D01*
X134005257Y-79826535D01*
X133995134Y-79848703D01*
X133985722Y-79854751D01*
X133979355Y-79863948D01*
X133956855Y-79873302D01*
X133936356Y-79886477D01*
X133919256Y-79888935D01*
X133914840Y-79890772D01*
X133901421Y-79891500D01*
X133732500Y-79891500D01*
X133665461Y-79871815D01*
X133619706Y-79819011D01*
X133608500Y-79767500D01*
X133608500Y-77303411D01*
X133628185Y-77236372D01*
X133644819Y-77215730D01*
X134215730Y-76644819D01*
X134277053Y-76611334D01*
X134303411Y-76608500D01*
X134666800Y-76608500D01*
X134733839Y-76628185D01*
X134779594Y-76680989D01*
X134784731Y-76694183D01*
X134787363Y-76702285D01*
X134820592Y-76767500D01*
X134876045Y-76876332D01*
X134880873Y-76885806D01*
X135001926Y-77052423D01*
X135001930Y-77052428D01*
X135147571Y-77198069D01*
X135147576Y-77198073D01*
X135237806Y-77263628D01*
X135314197Y-77319129D01*
X135379550Y-77352428D01*
X135497705Y-77412632D01*
X135497707Y-77412632D01*
X135497710Y-77412634D01*
X135520039Y-77419889D01*
X135693591Y-77476280D01*
X135795305Y-77492390D01*
X135897019Y-77508500D01*
X135897020Y-77508500D01*
X136102980Y-77508500D01*
X136102981Y-77508500D01*
X136306408Y-77476280D01*
X136502290Y-77412634D01*
X136685803Y-77319129D01*
X136852430Y-77198068D01*
X136998068Y-77052430D01*
X137119129Y-76885803D01*
X137212634Y-76702290D01*
X137276280Y-76506408D01*
X137308500Y-76302981D01*
X137308500Y-76097019D01*
X137276280Y-75893592D01*
X137275600Y-75891500D01*
X137224709Y-75734874D01*
X137212634Y-75697710D01*
X137212632Y-75697707D01*
X137212632Y-75697705D01*
X137152714Y-75580111D01*
X137119129Y-75514197D01*
X137051072Y-75420524D01*
X136998073Y-75347576D01*
X136998069Y-75347571D01*
X136852428Y-75201930D01*
X136852423Y-75201926D01*
X136685806Y-75080873D01*
X136685805Y-75080872D01*
X136685803Y-75080871D01*
X136606540Y-75040484D01*
X136555745Y-74992510D01*
X136538950Y-74924689D01*
X136561487Y-74858554D01*
X136606541Y-74819515D01*
X136685803Y-74779129D01*
X136852430Y-74658068D01*
X136998068Y-74512430D01*
X137119129Y-74345803D01*
X137212634Y-74162290D01*
X137276280Y-73966408D01*
X137308500Y-73762981D01*
X137308500Y-73557019D01*
X137276280Y-73353592D01*
X137212634Y-73157710D01*
X137212632Y-73157707D01*
X137212632Y-73157705D01*
X137178709Y-73091128D01*
X137119129Y-72974197D01*
X137089980Y-72934076D01*
X136998073Y-72807576D01*
X136998069Y-72807571D01*
X136852428Y-72661930D01*
X136852423Y-72661926D01*
X136685806Y-72540873D01*
X136685805Y-72540872D01*
X136685803Y-72540871D01*
X136606540Y-72500484D01*
X136555745Y-72452510D01*
X136538950Y-72384689D01*
X136561487Y-72318554D01*
X136606541Y-72279515D01*
X136611373Y-72277053D01*
X136685803Y-72239129D01*
X136852430Y-72118068D01*
X136998068Y-71972430D01*
X137119129Y-71805803D01*
X137212634Y-71622290D01*
X137276280Y-71426408D01*
X137308500Y-71222981D01*
X137308500Y-71017019D01*
X137300902Y-70969049D01*
X137276280Y-70813591D01*
X137223871Y-70652294D01*
X137212634Y-70617710D01*
X137212632Y-70617707D01*
X137212632Y-70617705D01*
X137159322Y-70513080D01*
X137119129Y-70434197D01*
X137082880Y-70384304D01*
X136998073Y-70267576D01*
X136998069Y-70267571D01*
X136852428Y-70121930D01*
X136852423Y-70121926D01*
X136685806Y-70000873D01*
X136685805Y-70000872D01*
X136685803Y-70000871D01*
X136606541Y-69960485D01*
X136597180Y-69955715D01*
X136546384Y-69907740D01*
X136529589Y-69839919D01*
X136552127Y-69773784D01*
X136597181Y-69734745D01*
X136681346Y-69691861D01*
X136681347Y-69691861D01*
X136725921Y-69659474D01*
X136046447Y-68980000D01*
X136052661Y-68980000D01*
X136154394Y-68952741D01*
X136245606Y-68900080D01*
X136320080Y-68825606D01*
X136372741Y-68734394D01*
X136400000Y-68632661D01*
X136400000Y-68626448D01*
X137079474Y-69305922D01*
X137079474Y-69305921D01*
X137111859Y-69261349D01*
X137204755Y-69079031D01*
X137267990Y-68884417D01*
X137300000Y-68682317D01*
X137300000Y-68477682D01*
X137267990Y-68275582D01*
X137204755Y-68080968D01*
X137111859Y-67898650D01*
X137079474Y-67854077D01*
X137079474Y-67854076D01*
X136400000Y-68533551D01*
X136400000Y-68527339D01*
X136372741Y-68425606D01*
X136320080Y-68334394D01*
X136245606Y-68259920D01*
X136154394Y-68207259D01*
X136052661Y-68180000D01*
X136046446Y-68180000D01*
X136725922Y-67500524D01*
X136725921Y-67500523D01*
X136681359Y-67468147D01*
X136681350Y-67468141D01*
X136587819Y-67420485D01*
X136537023Y-67372511D01*
X136520228Y-67304690D01*
X136542765Y-67238555D01*
X136587820Y-67199515D01*
X136681346Y-67151861D01*
X136681347Y-67151861D01*
X136725921Y-67119474D01*
X136046447Y-66440000D01*
X136052661Y-66440000D01*
X136154394Y-66412741D01*
X136245606Y-66360080D01*
X136320080Y-66285606D01*
X136372741Y-66194394D01*
X136400000Y-66092661D01*
X136400000Y-66086447D01*
X137079474Y-66765921D01*
X137111859Y-66721349D01*
X137204755Y-66539031D01*
X137267990Y-66344417D01*
X137300000Y-66142317D01*
X137300000Y-65937682D01*
X137267990Y-65735582D01*
X137204755Y-65540968D01*
X137111859Y-65358650D01*
X137079474Y-65314077D01*
X137079474Y-65314076D01*
X136400000Y-65993551D01*
X136400000Y-65987339D01*
X136372741Y-65885606D01*
X136320080Y-65794394D01*
X136245606Y-65719920D01*
X136154394Y-65667259D01*
X136052661Y-65640000D01*
X136046446Y-65640000D01*
X136725922Y-64960524D01*
X136725921Y-64960523D01*
X136681359Y-64928147D01*
X136681350Y-64928141D01*
X136597180Y-64885254D01*
X136546384Y-64837279D01*
X136529589Y-64769458D01*
X136552127Y-64703323D01*
X136597179Y-64664284D01*
X136685803Y-64619129D01*
X136852430Y-64498068D01*
X136998068Y-64352430D01*
X137119129Y-64185803D01*
X137212634Y-64002290D01*
X137276280Y-63806408D01*
X137308500Y-63602981D01*
X137308500Y-63397019D01*
X137282840Y-63235007D01*
X137276280Y-63193591D01*
X137212632Y-62997705D01*
X137154112Y-62882855D01*
X137119129Y-62814197D01*
X137103439Y-62792601D01*
X136998073Y-62647576D01*
X136998069Y-62647571D01*
X136852428Y-62501930D01*
X136852423Y-62501926D01*
X136685806Y-62380873D01*
X136685805Y-62380872D01*
X136685803Y-62380871D01*
X136597180Y-62335715D01*
X136546384Y-62287740D01*
X136529589Y-62219919D01*
X136552127Y-62153784D01*
X136597181Y-62114745D01*
X136681346Y-62071861D01*
X136681347Y-62071861D01*
X136725921Y-62039474D01*
X136046447Y-61360000D01*
X136052661Y-61360000D01*
X136154394Y-61332741D01*
X136245606Y-61280080D01*
X136320080Y-61205606D01*
X136372741Y-61114394D01*
X136400000Y-61012661D01*
X136400000Y-61006447D01*
X137079474Y-61685921D01*
X137111859Y-61641349D01*
X137204755Y-61459031D01*
X137267990Y-61264417D01*
X137300000Y-61062317D01*
X137300000Y-60857682D01*
X137267990Y-60655582D01*
X137204755Y-60460968D01*
X137111859Y-60278650D01*
X137079474Y-60234077D01*
X137079474Y-60234076D01*
X136400000Y-60913551D01*
X136400000Y-60907339D01*
X136372741Y-60805606D01*
X136320080Y-60714394D01*
X136245606Y-60639920D01*
X136154394Y-60587259D01*
X136052661Y-60560000D01*
X136046446Y-60560000D01*
X136725922Y-59880524D01*
X136725921Y-59880523D01*
X136681359Y-59848147D01*
X136681350Y-59848141D01*
X136499031Y-59755244D01*
X136304417Y-59692009D01*
X136102317Y-59660000D01*
X135897683Y-59660000D01*
X135695582Y-59692009D01*
X135500968Y-59755244D01*
X135318644Y-59848143D01*
X135274077Y-59880523D01*
X135274077Y-59880524D01*
X135953554Y-60560000D01*
X135947339Y-60560000D01*
X135845606Y-60587259D01*
X135754394Y-60639920D01*
X135679920Y-60714394D01*
X135627259Y-60805606D01*
X135600000Y-60907339D01*
X135600000Y-60913553D01*
X134920524Y-60234077D01*
X134920523Y-60234077D01*
X134888143Y-60278644D01*
X134795244Y-60460968D01*
X134732009Y-60655582D01*
X134700000Y-60857682D01*
X134700000Y-61062317D01*
X134732009Y-61264417D01*
X134795244Y-61459031D01*
X134888141Y-61641350D01*
X134888147Y-61641359D01*
X134920523Y-61685921D01*
X134920524Y-61685922D01*
X135600000Y-61006446D01*
X135600000Y-61012661D01*
X135627259Y-61114394D01*
X135679920Y-61205606D01*
X135754394Y-61280080D01*
X135845606Y-61332741D01*
X135947339Y-61360000D01*
X135953553Y-61360000D01*
X135274076Y-62039474D01*
X135318652Y-62071861D01*
X135402818Y-62114745D01*
X135453614Y-62162719D01*
X135470410Y-62230540D01*
X135447873Y-62296675D01*
X135402820Y-62335714D01*
X135314195Y-62380871D01*
X135147576Y-62501926D01*
X135147571Y-62501930D01*
X135001930Y-62647571D01*
X135001926Y-62647576D01*
X134880873Y-62814193D01*
X134787367Y-62997705D01*
X134723719Y-63193591D01*
X134691500Y-63397019D01*
X134691500Y-63602980D01*
X134723719Y-63806408D01*
X134787367Y-64002294D01*
X134880873Y-64185806D01*
X135001926Y-64352423D01*
X135001930Y-64352428D01*
X135147571Y-64498069D01*
X135147576Y-64498073D01*
X135292908Y-64603661D01*
X135314197Y-64619129D01*
X135402819Y-64664284D01*
X135453615Y-64712259D01*
X135470410Y-64780080D01*
X135447873Y-64846214D01*
X135402820Y-64885253D01*
X135318648Y-64928141D01*
X135318645Y-64928143D01*
X135274077Y-64960523D01*
X135274077Y-64960524D01*
X135953554Y-65640000D01*
X135947339Y-65640000D01*
X135845606Y-65667259D01*
X135754394Y-65719920D01*
X135679920Y-65794394D01*
X135627259Y-65885606D01*
X135600000Y-65987339D01*
X135600000Y-65993553D01*
X134920524Y-65314077D01*
X134920523Y-65314077D01*
X134888143Y-65358644D01*
X134795244Y-65540968D01*
X134732009Y-65735582D01*
X134700000Y-65937682D01*
X134700000Y-66142317D01*
X134732009Y-66344417D01*
X134795244Y-66539031D01*
X134888141Y-66721350D01*
X134888147Y-66721359D01*
X134920523Y-66765921D01*
X134920524Y-66765922D01*
X135600000Y-66086446D01*
X135600000Y-66092661D01*
X135627259Y-66194394D01*
X135679920Y-66285606D01*
X135754394Y-66360080D01*
X135845606Y-66412741D01*
X135947339Y-66440000D01*
X135953553Y-66440000D01*
X135274076Y-67119474D01*
X135318650Y-67151859D01*
X135412180Y-67199515D01*
X135462976Y-67247489D01*
X135479771Y-67315310D01*
X135457234Y-67381445D01*
X135412180Y-67420485D01*
X135318644Y-67468143D01*
X135274077Y-67500523D01*
X135274077Y-67500524D01*
X135953554Y-68180000D01*
X135947339Y-68180000D01*
X135845606Y-68207259D01*
X135754394Y-68259920D01*
X135679920Y-68334394D01*
X135627259Y-68425606D01*
X135600000Y-68527339D01*
X135600000Y-68533553D01*
X134920524Y-67854077D01*
X134920523Y-67854077D01*
X134888143Y-67898644D01*
X134795244Y-68080968D01*
X134732009Y-68275582D01*
X134700000Y-68477682D01*
X134700000Y-68682317D01*
X134732009Y-68884417D01*
X134795244Y-69079031D01*
X134888141Y-69261350D01*
X134888147Y-69261359D01*
X134920523Y-69305921D01*
X134920524Y-69305922D01*
X135600000Y-68626446D01*
X135600000Y-68632661D01*
X135627259Y-68734394D01*
X135679920Y-68825606D01*
X135754394Y-68900080D01*
X135845606Y-68952741D01*
X135947339Y-68980000D01*
X135953553Y-68980000D01*
X135274076Y-69659474D01*
X135318652Y-69691861D01*
X135402818Y-69734745D01*
X135453614Y-69782719D01*
X135470410Y-69850540D01*
X135447873Y-69916675D01*
X135402820Y-69955714D01*
X135314195Y-70000871D01*
X135147576Y-70121926D01*
X135147571Y-70121930D01*
X135001928Y-70267573D01*
X134949030Y-70340384D01*
X134944697Y-70343725D01*
X134942424Y-70348703D01*
X134917324Y-70364833D01*
X134893700Y-70383051D01*
X134887026Y-70384304D01*
X134883646Y-70386477D01*
X134848711Y-70391500D01*
X134727675Y-70391500D01*
X134660636Y-70371815D01*
X134639998Y-70355185D01*
X134579135Y-70294322D01*
X134579134Y-70294321D01*
X134579133Y-70294320D01*
X134430342Y-70194901D01*
X134430332Y-70194896D01*
X134265000Y-70126413D01*
X134264992Y-70126411D01*
X134089483Y-70091500D01*
X134089479Y-70091500D01*
X133910521Y-70091500D01*
X133873497Y-70098864D01*
X133756690Y-70122098D01*
X133687099Y-70115869D01*
X133631922Y-70073006D01*
X133608678Y-70007116D01*
X133608500Y-70000480D01*
X133608500Y-59803411D01*
X133628185Y-59736372D01*
X133644819Y-59715730D01*
X134215730Y-59144819D01*
X134277053Y-59111334D01*
X134303411Y-59108500D01*
X143772325Y-59108500D01*
X143839364Y-59128185D01*
X143860001Y-59144814D01*
X143896176Y-59180989D01*
X143920866Y-59205679D01*
X144069657Y-59305098D01*
X144069661Y-59305100D01*
X144069664Y-59305102D01*
X144235000Y-59373587D01*
X144410516Y-59408499D01*
X144410520Y-59408500D01*
X144410521Y-59408500D01*
X144589480Y-59408500D01*
X144589481Y-59408499D01*
X144765000Y-59373587D01*
X144930336Y-59305102D01*
X145079135Y-59205678D01*
X145129163Y-59155650D01*
X145179819Y-59104995D01*
X145241142Y-59071510D01*
X145310834Y-59076494D01*
X145366767Y-59118366D01*
X145391184Y-59183830D01*
X145391500Y-59192676D01*
X145391500Y-62467500D01*
X145371815Y-62534539D01*
X145319011Y-62580294D01*
X145267500Y-62591500D01*
X145210516Y-62591500D01*
X145035007Y-62626411D01*
X145034999Y-62626413D01*
X144869662Y-62694898D01*
X144822568Y-62726365D01*
X144755890Y-62747242D01*
X144688510Y-62728756D01*
X144653361Y-62696147D01*
X144621278Y-62651989D01*
X144618068Y-62647570D01*
X144472430Y-62501932D01*
X144472428Y-62501930D01*
X144472423Y-62501926D01*
X144305806Y-62380873D01*
X144305805Y-62380872D01*
X144305803Y-62380871D01*
X144217180Y-62335715D01*
X144166384Y-62287740D01*
X144149589Y-62219919D01*
X144172127Y-62153784D01*
X144217181Y-62114745D01*
X144301346Y-62071861D01*
X144301347Y-62071861D01*
X144345921Y-62039474D01*
X143666447Y-61360000D01*
X143672661Y-61360000D01*
X143774394Y-61332741D01*
X143865606Y-61280080D01*
X143940080Y-61205606D01*
X143992741Y-61114394D01*
X144020000Y-61012661D01*
X144020000Y-61006447D01*
X144699474Y-61685921D01*
X144731859Y-61641349D01*
X144824755Y-61459031D01*
X144887990Y-61264417D01*
X144920000Y-61062317D01*
X144920000Y-60857682D01*
X144887990Y-60655582D01*
X144824755Y-60460968D01*
X144731859Y-60278650D01*
X144699474Y-60234077D01*
X144699474Y-60234076D01*
X144020000Y-60913551D01*
X144020000Y-60907339D01*
X143992741Y-60805606D01*
X143940080Y-60714394D01*
X143865606Y-60639920D01*
X143774394Y-60587259D01*
X143672661Y-60560000D01*
X143666446Y-60560000D01*
X144345922Y-59880524D01*
X144345921Y-59880523D01*
X144301359Y-59848147D01*
X144301350Y-59848141D01*
X144119031Y-59755244D01*
X143924417Y-59692009D01*
X143722317Y-59660000D01*
X143517683Y-59660000D01*
X143315582Y-59692009D01*
X143120968Y-59755244D01*
X142938644Y-59848143D01*
X142894077Y-59880523D01*
X142894077Y-59880524D01*
X143573554Y-60560000D01*
X143567339Y-60560000D01*
X143465606Y-60587259D01*
X143374394Y-60639920D01*
X143299920Y-60714394D01*
X143247259Y-60805606D01*
X143220000Y-60907339D01*
X143220000Y-60913553D01*
X142540524Y-60234077D01*
X142540523Y-60234077D01*
X142508143Y-60278644D01*
X142415244Y-60460968D01*
X142352009Y-60655582D01*
X142320000Y-60857682D01*
X142320000Y-61062317D01*
X142352009Y-61264417D01*
X142415244Y-61459031D01*
X142508141Y-61641350D01*
X142508147Y-61641359D01*
X142540523Y-61685921D01*
X142540524Y-61685922D01*
X143220000Y-61006446D01*
X143220000Y-61012661D01*
X143247259Y-61114394D01*
X143299920Y-61205606D01*
X143374394Y-61280080D01*
X143465606Y-61332741D01*
X143567339Y-61360000D01*
X143573553Y-61360000D01*
X142894076Y-62039474D01*
X142938652Y-62071861D01*
X143022818Y-62114745D01*
X143073614Y-62162719D01*
X143090410Y-62230540D01*
X143067873Y-62296675D01*
X143022820Y-62335714D01*
X142934195Y-62380871D01*
X142767576Y-62501926D01*
X142767571Y-62501930D01*
X142621930Y-62647571D01*
X142621926Y-62647576D01*
X142500873Y-62814193D01*
X142407367Y-62997705D01*
X142343719Y-63193591D01*
X142311500Y-63397019D01*
X142311500Y-63602980D01*
X142343719Y-63806408D01*
X142407367Y-64002294D01*
X142500873Y-64185806D01*
X142621926Y-64352423D01*
X142621930Y-64352428D01*
X142767571Y-64498069D01*
X142767576Y-64498073D01*
X142934195Y-64619128D01*
X143013459Y-64659516D01*
X143064254Y-64707490D01*
X143081049Y-64775311D01*
X143058511Y-64841446D01*
X143013459Y-64880484D01*
X142934195Y-64920871D01*
X142767576Y-65041926D01*
X142767571Y-65041930D01*
X142621930Y-65187571D01*
X142621926Y-65187576D01*
X142500873Y-65354193D01*
X142407367Y-65537705D01*
X142343719Y-65733591D01*
X142316954Y-65902585D01*
X142311500Y-65937019D01*
X142311500Y-66142981D01*
X142313331Y-66154542D01*
X142343719Y-66346408D01*
X142407367Y-66542294D01*
X142461479Y-66648492D01*
X142498602Y-66721350D01*
X142500873Y-66725806D01*
X142621926Y-66892423D01*
X142621930Y-66892428D01*
X142767571Y-67038069D01*
X142767576Y-67038073D01*
X142934195Y-67159128D01*
X143013459Y-67199516D01*
X143064254Y-67247490D01*
X143081049Y-67315311D01*
X143058511Y-67381446D01*
X143013459Y-67420484D01*
X142934195Y-67460871D01*
X142767576Y-67581926D01*
X142767571Y-67581930D01*
X142621930Y-67727571D01*
X142621926Y-67727576D01*
X142500873Y-67894193D01*
X142407367Y-68077705D01*
X142343719Y-68273591D01*
X142325467Y-68388835D01*
X142311500Y-68477019D01*
X142311500Y-68682981D01*
X142312897Y-68691801D01*
X142343719Y-68886408D01*
X142407367Y-69082294D01*
X142471671Y-69208496D01*
X142498602Y-69261350D01*
X142500873Y-69265806D01*
X142621926Y-69432423D01*
X142621930Y-69432428D01*
X142767571Y-69578069D01*
X142767576Y-69578073D01*
X142934195Y-69699128D01*
X143013459Y-69739516D01*
X143064254Y-69787490D01*
X143081049Y-69855311D01*
X143058511Y-69921446D01*
X143013459Y-69960484D01*
X142934195Y-70000871D01*
X142767576Y-70121926D01*
X142767571Y-70121930D01*
X142621930Y-70267571D01*
X142621926Y-70267576D01*
X142500873Y-70434193D01*
X142407367Y-70617705D01*
X142343719Y-70813591D01*
X142311500Y-71017019D01*
X142311500Y-71222980D01*
X142343719Y-71426408D01*
X142407367Y-71622294D01*
X142463521Y-71732500D01*
X142500870Y-71805802D01*
X142500873Y-71805806D01*
X142621926Y-71972423D01*
X142621930Y-71972428D01*
X142767571Y-72118069D01*
X142767576Y-72118073D01*
X142901991Y-72215730D01*
X142934197Y-72239129D01*
X143022819Y-72284284D01*
X143073615Y-72332259D01*
X143090410Y-72400080D01*
X143067873Y-72466214D01*
X143022820Y-72505253D01*
X142938648Y-72548141D01*
X142938645Y-72548143D01*
X142894077Y-72580523D01*
X142894077Y-72580524D01*
X143573554Y-73260000D01*
X143567339Y-73260000D01*
X143465606Y-73287259D01*
X143374394Y-73339920D01*
X143299920Y-73414394D01*
X143247259Y-73505606D01*
X143220000Y-73607339D01*
X143220000Y-73613553D01*
X142540524Y-72934077D01*
X142540523Y-72934077D01*
X142508143Y-72978644D01*
X142415244Y-73160968D01*
X142352009Y-73355582D01*
X142320000Y-73557682D01*
X142320000Y-73762317D01*
X142352009Y-73964417D01*
X142415244Y-74159031D01*
X142508141Y-74341350D01*
X142508147Y-74341359D01*
X142540523Y-74385921D01*
X142540524Y-74385922D01*
X143220000Y-73706446D01*
X143220000Y-73712661D01*
X143247259Y-73814394D01*
X143299920Y-73905606D01*
X143374394Y-73980080D01*
X143465606Y-74032741D01*
X143567339Y-74060000D01*
X143573553Y-74060000D01*
X142894076Y-74739474D01*
X142895826Y-74761706D01*
X142901733Y-74769365D01*
X142907714Y-74838978D01*
X142875110Y-74900774D01*
X142825188Y-74932063D01*
X142747262Y-74957885D01*
X142747259Y-74957886D01*
X142596346Y-75050971D01*
X142470971Y-75176346D01*
X142377886Y-75327259D01*
X142377884Y-75327264D01*
X142322113Y-75495572D01*
X142311500Y-75599447D01*
X142311500Y-76800537D01*
X142311501Y-76800553D01*
X142322113Y-76904427D01*
X142371153Y-77052423D01*
X142377885Y-77072738D01*
X142470970Y-77223652D01*
X142596348Y-77349030D01*
X142747262Y-77442115D01*
X142915574Y-77497887D01*
X143019455Y-77508500D01*
X144220544Y-77508499D01*
X144324426Y-77497887D01*
X144492738Y-77442115D01*
X144643652Y-77349030D01*
X144769030Y-77223652D01*
X144803726Y-77167400D01*
X144855672Y-77120679D01*
X144909263Y-77108500D01*
X145080109Y-77108500D01*
X145080110Y-77108500D01*
X145080111Y-77108500D01*
X145157491Y-77087766D01*
X145234873Y-77067032D01*
X145373627Y-76986922D01*
X146486922Y-75873627D01*
X146567032Y-75734872D01*
X146608500Y-75580111D01*
X146608500Y-59192676D01*
X146614738Y-59171430D01*
X146616318Y-59149342D01*
X146624390Y-59138558D01*
X146628185Y-59125637D01*
X146644918Y-59111137D01*
X146658190Y-59093409D01*
X146670810Y-59088701D01*
X146680989Y-59079882D01*
X146702906Y-59076730D01*
X146723654Y-59068992D01*
X146736814Y-59071854D01*
G37*
%TD.AperFunction*%
%TA.AperFunction,Conductor*%
G36*
X144822570Y-64273635D02*
G01*
X144869664Y-64305102D01*
X145035000Y-64373587D01*
X145125056Y-64391500D01*
X145210516Y-64408499D01*
X145210520Y-64408500D01*
X145267500Y-64408500D01*
X145334539Y-64428185D01*
X145380294Y-64480989D01*
X145391500Y-64532500D01*
X145391500Y-75196588D01*
X145371815Y-75263627D01*
X145355181Y-75284269D01*
X145116286Y-75523163D01*
X145054963Y-75556648D01*
X144985271Y-75551664D01*
X144929338Y-75509792D01*
X144910899Y-75474485D01*
X144882290Y-75388147D01*
X144862115Y-75327262D01*
X144769030Y-75176348D01*
X144643652Y-75050970D01*
X144492738Y-74957885D01*
X144414811Y-74932063D01*
X144357366Y-74892290D01*
X144330543Y-74827775D01*
X144342858Y-74758999D01*
X144344541Y-74757010D01*
X144345921Y-74739474D01*
X143666447Y-74060000D01*
X143672661Y-74060000D01*
X143774394Y-74032741D01*
X143865606Y-73980080D01*
X143940080Y-73905606D01*
X143992741Y-73814394D01*
X144020000Y-73712661D01*
X144020000Y-73706447D01*
X144699474Y-74385921D01*
X144731859Y-74341349D01*
X144824755Y-74159031D01*
X144887990Y-73964417D01*
X144920000Y-73762317D01*
X144920000Y-73557682D01*
X144887990Y-73355582D01*
X144824755Y-73160968D01*
X144731859Y-72978650D01*
X144699474Y-72934077D01*
X144699474Y-72934076D01*
X144020000Y-73613551D01*
X144020000Y-73607339D01*
X143992741Y-73505606D01*
X143940080Y-73414394D01*
X143865606Y-73339920D01*
X143774394Y-73287259D01*
X143672661Y-73260000D01*
X143666446Y-73260000D01*
X144345922Y-72580524D01*
X144345921Y-72580523D01*
X144301359Y-72548147D01*
X144301350Y-72548141D01*
X144217180Y-72505254D01*
X144166384Y-72457279D01*
X144149589Y-72389458D01*
X144172127Y-72323323D01*
X144217179Y-72284284D01*
X144305803Y-72239129D01*
X144472430Y-72118068D01*
X144618068Y-71972430D01*
X144739129Y-71805803D01*
X144832634Y-71622290D01*
X144896280Y-71426408D01*
X144928500Y-71222981D01*
X144928500Y-71017019D01*
X144920902Y-70969049D01*
X144896280Y-70813591D01*
X144843871Y-70652294D01*
X144832634Y-70617710D01*
X144832632Y-70617707D01*
X144832632Y-70617705D01*
X144779322Y-70513080D01*
X144739129Y-70434197D01*
X144702880Y-70384304D01*
X144618073Y-70267576D01*
X144618069Y-70267571D01*
X144472428Y-70121930D01*
X144472423Y-70121926D01*
X144305806Y-70000873D01*
X144305805Y-70000872D01*
X144305803Y-70000871D01*
X144226540Y-69960484D01*
X144175745Y-69912510D01*
X144158950Y-69844689D01*
X144181487Y-69778554D01*
X144226541Y-69739515D01*
X144305803Y-69699129D01*
X144472430Y-69578068D01*
X144618068Y-69432430D01*
X144739129Y-69265803D01*
X144832634Y-69082290D01*
X144896280Y-68886408D01*
X144928500Y-68682981D01*
X144928500Y-68477019D01*
X144913926Y-68385001D01*
X144896280Y-68273591D01*
X144843871Y-68112294D01*
X144832634Y-68077710D01*
X144832632Y-68077707D01*
X144832632Y-68077705D01*
X144798134Y-68010000D01*
X144739129Y-67894197D01*
X144708113Y-67851507D01*
X144618073Y-67727576D01*
X144618069Y-67727571D01*
X144472428Y-67581930D01*
X144472423Y-67581926D01*
X144305806Y-67460873D01*
X144305805Y-67460872D01*
X144305803Y-67460871D01*
X144226540Y-67420484D01*
X144175745Y-67372510D01*
X144158950Y-67304689D01*
X144181487Y-67238554D01*
X144226541Y-67199515D01*
X144305803Y-67159129D01*
X144472430Y-67038068D01*
X144618068Y-66892430D01*
X144739129Y-66725803D01*
X144832634Y-66542290D01*
X144896280Y-66346408D01*
X144928500Y-66142981D01*
X144928500Y-65937019D01*
X144913926Y-65845001D01*
X144896280Y-65733591D01*
X144842161Y-65567031D01*
X144832634Y-65537710D01*
X144832632Y-65537707D01*
X144832632Y-65537705D01*
X144763236Y-65401510D01*
X144739129Y-65354197D01*
X144708113Y-65311507D01*
X144618073Y-65187576D01*
X144618069Y-65187571D01*
X144472428Y-65041930D01*
X144472423Y-65041926D01*
X144305806Y-64920873D01*
X144305805Y-64920872D01*
X144305803Y-64920871D01*
X144226540Y-64880484D01*
X144175745Y-64832510D01*
X144158950Y-64764689D01*
X144181487Y-64698554D01*
X144226541Y-64659515D01*
X144305803Y-64619129D01*
X144472430Y-64498068D01*
X144618068Y-64352430D01*
X144653361Y-64303851D01*
X144708688Y-64261187D01*
X144778301Y-64255206D01*
X144822570Y-64273635D01*
G37*
%TD.AperFunction*%
%TA.AperFunction,Conductor*%
G36*
X127763628Y-62628185D02*
G01*
X127784270Y-62644819D01*
X128355181Y-63215730D01*
X128388666Y-63277053D01*
X128391500Y-63303411D01*
X128391500Y-64313336D01*
X128371815Y-64380375D01*
X128319011Y-64426130D01*
X128249853Y-64436074D01*
X128235407Y-64433111D01*
X128143556Y-64408500D01*
X128142056Y-64408098D01*
X128080111Y-64391500D01*
X128080110Y-64391500D01*
X126691613Y-64391500D01*
X126628493Y-64374232D01*
X126563601Y-64335855D01*
X126563596Y-64335853D01*
X126403835Y-64289438D01*
X126403829Y-64289437D01*
X126366507Y-64286500D01*
X126366502Y-64286500D01*
X124583498Y-64286500D01*
X124583492Y-64286500D01*
X124546170Y-64289437D01*
X124546164Y-64289438D01*
X124386403Y-64335853D01*
X124386398Y-64335855D01*
X124243196Y-64420544D01*
X124243187Y-64420551D01*
X124125551Y-64538187D01*
X124125544Y-64538196D01*
X124040855Y-64681398D01*
X124040853Y-64681403D01*
X123994438Y-64841164D01*
X123994437Y-64841170D01*
X123991500Y-64878492D01*
X123991500Y-65311507D01*
X123994437Y-65348829D01*
X123994438Y-65348835D01*
X124040853Y-65508596D01*
X124040855Y-65508601D01*
X124125547Y-65651808D01*
X124127249Y-65654002D01*
X124128047Y-65656034D01*
X124129518Y-65658522D01*
X124129116Y-65658759D01*
X124152783Y-65719039D01*
X124139101Y-65787556D01*
X124127249Y-65805998D01*
X124125547Y-65808191D01*
X124040855Y-65951398D01*
X124040853Y-65951403D01*
X123994438Y-66111164D01*
X123994437Y-66111170D01*
X123991500Y-66148492D01*
X123991500Y-66581507D01*
X123994437Y-66618829D01*
X123994438Y-66618835D01*
X124040853Y-66778596D01*
X124040855Y-66778601D01*
X124125547Y-66921808D01*
X124127249Y-66924002D01*
X124128047Y-66926034D01*
X124129518Y-66928522D01*
X124129116Y-66928759D01*
X124152783Y-66989039D01*
X124139101Y-67057556D01*
X124127249Y-67075998D01*
X124125547Y-67078191D01*
X124040855Y-67221398D01*
X124040853Y-67221403D01*
X123994438Y-67381164D01*
X123994437Y-67381170D01*
X123991500Y-67418492D01*
X123991500Y-67851507D01*
X123994437Y-67888829D01*
X123994438Y-67888835D01*
X124040853Y-68048596D01*
X124040855Y-68048601D01*
X124125544Y-68191803D01*
X124130330Y-68197973D01*
X124128416Y-68199457D01*
X124156151Y-68250250D01*
X124151167Y-68319942D01*
X124136252Y-68346708D01*
X124136288Y-68346729D01*
X124135482Y-68348091D01*
X124132969Y-68352602D01*
X124132319Y-68353439D01*
X124048718Y-68494801D01*
X124002899Y-68652513D01*
X124002704Y-68654998D01*
X124002705Y-68655000D01*
X126947295Y-68655000D01*
X126947295Y-68654998D01*
X126947100Y-68652513D01*
X126901281Y-68494801D01*
X126817683Y-68353443D01*
X126817031Y-68352603D01*
X126816725Y-68351824D01*
X126813712Y-68346729D01*
X126814534Y-68346242D01*
X126791499Y-68287565D01*
X126805182Y-68219048D01*
X126820318Y-68198468D01*
X126819673Y-68197968D01*
X126824445Y-68191814D01*
X126824453Y-68191807D01*
X126909145Y-68048601D01*
X126955562Y-67888831D01*
X126958500Y-67851502D01*
X126958500Y-67444635D01*
X126978185Y-67377596D01*
X127030989Y-67331841D01*
X127100147Y-67321897D01*
X127129945Y-67330071D01*
X127235000Y-67373587D01*
X127410516Y-67408499D01*
X127410520Y-67408500D01*
X127410521Y-67408500D01*
X127589480Y-67408500D01*
X127589481Y-67408499D01*
X127765000Y-67373587D01*
X127930336Y-67305102D01*
X128079135Y-67205678D01*
X128125687Y-67159126D01*
X128179819Y-67104995D01*
X128241142Y-67071510D01*
X128310834Y-67076494D01*
X128366767Y-67118366D01*
X128391184Y-67183830D01*
X128391500Y-67192676D01*
X128391500Y-69696589D01*
X128371815Y-69763628D01*
X128355181Y-69784270D01*
X127784270Y-70355181D01*
X127722947Y-70388666D01*
X127696589Y-70391500D01*
X117919889Y-70391500D01*
X117834715Y-70414321D01*
X117834716Y-70414322D01*
X117765126Y-70432968D01*
X117765125Y-70432969D01*
X117626376Y-70513075D01*
X117626371Y-70513079D01*
X117087681Y-71051770D01*
X117026358Y-71085255D01*
X116956666Y-71080271D01*
X116912319Y-71051770D01*
X116373629Y-70513080D01*
X116373627Y-70513078D01*
X116234873Y-70432968D01*
X116157491Y-70412234D01*
X116157490Y-70412233D01*
X116100844Y-70397055D01*
X116080111Y-70391500D01*
X116080110Y-70391500D01*
X115327326Y-70391500D01*
X115260287Y-70371815D01*
X115214532Y-70319011D01*
X115203968Y-70280101D01*
X115197887Y-70220573D01*
X115155117Y-70091500D01*
X115142115Y-70052262D01*
X115049030Y-69901348D01*
X114967863Y-69820181D01*
X114934378Y-69758858D01*
X114939362Y-69689166D01*
X114981234Y-69633233D01*
X115046698Y-69608816D01*
X115055544Y-69608500D01*
X119308387Y-69608500D01*
X119371506Y-69625767D01*
X119436399Y-69664145D01*
X119478530Y-69676385D01*
X119596164Y-69710561D01*
X119596167Y-69710561D01*
X119596169Y-69710562D01*
X119633498Y-69713500D01*
X119633504Y-69713500D01*
X121416496Y-69713500D01*
X121416502Y-69713500D01*
X121453831Y-69710562D01*
X121453833Y-69710561D01*
X121453835Y-69710561D01*
X121527477Y-69689166D01*
X121613601Y-69664145D01*
X121756807Y-69579453D01*
X121874453Y-69461807D01*
X121959145Y-69318601D01*
X121994592Y-69196589D01*
X122005561Y-69158835D01*
X122005562Y-69158829D01*
X122005863Y-69155001D01*
X124002704Y-69155001D01*
X124002899Y-69157486D01*
X124048718Y-69315198D01*
X124132314Y-69456552D01*
X124132321Y-69456561D01*
X124248438Y-69572678D01*
X124248447Y-69572685D01*
X124389803Y-69656282D01*
X124389806Y-69656283D01*
X124547504Y-69702099D01*
X124547510Y-69702100D01*
X124584350Y-69704999D01*
X124584366Y-69705000D01*
X125225000Y-69705000D01*
X125725000Y-69705000D01*
X126365634Y-69705000D01*
X126365649Y-69704999D01*
X126402489Y-69702100D01*
X126402495Y-69702099D01*
X126560193Y-69656283D01*
X126560196Y-69656282D01*
X126701552Y-69572685D01*
X126701561Y-69572678D01*
X126817678Y-69456561D01*
X126817685Y-69456552D01*
X126901281Y-69315198D01*
X126947100Y-69157486D01*
X126947295Y-69155001D01*
X126947295Y-69155000D01*
X125725000Y-69155000D01*
X125725000Y-69705000D01*
X125225000Y-69705000D01*
X125225000Y-69155000D01*
X124002705Y-69155000D01*
X124002704Y-69155001D01*
X122005863Y-69155001D01*
X122008500Y-69121502D01*
X122008500Y-68688498D01*
X122005562Y-68651169D01*
X121993040Y-68608069D01*
X121965444Y-68513081D01*
X121959145Y-68491399D01*
X121898489Y-68388835D01*
X121874456Y-68348197D01*
X121872755Y-68346005D01*
X121871956Y-68343970D01*
X121870482Y-68341478D01*
X121870883Y-68341240D01*
X121847217Y-68280970D01*
X121860894Y-68212452D01*
X121872755Y-68193995D01*
X121874449Y-68191810D01*
X121874453Y-68191807D01*
X121959145Y-68048601D01*
X122005562Y-67888831D01*
X122008500Y-67851502D01*
X122008500Y-67418498D01*
X122005562Y-67381169D01*
X122004060Y-67376000D01*
X121969327Y-67256446D01*
X121959145Y-67221399D01*
X121898489Y-67118835D01*
X121874456Y-67078197D01*
X121872755Y-67076005D01*
X121871956Y-67073970D01*
X121870482Y-67071478D01*
X121870883Y-67071240D01*
X121847217Y-67010970D01*
X121860894Y-66942452D01*
X121872755Y-66923995D01*
X121874449Y-66921810D01*
X121874453Y-66921807D01*
X121959145Y-66778601D01*
X122005562Y-66618831D01*
X122008500Y-66581502D01*
X122008500Y-66148498D01*
X122005562Y-66111169D01*
X121984885Y-66039999D01*
X121959146Y-65951403D01*
X121959145Y-65951399D01*
X121905127Y-65860059D01*
X121874456Y-65808197D01*
X121872755Y-65806005D01*
X121871956Y-65803970D01*
X121870482Y-65801478D01*
X121870883Y-65801240D01*
X121847217Y-65740970D01*
X121860894Y-65672452D01*
X121872755Y-65653995D01*
X121874449Y-65651810D01*
X121874453Y-65651807D01*
X121959145Y-65508601D01*
X122005562Y-65348831D01*
X122008500Y-65311502D01*
X122008500Y-64878498D01*
X122005562Y-64841169D01*
X122004018Y-64835855D01*
X121971385Y-64723530D01*
X121959145Y-64681399D01*
X121874453Y-64538193D01*
X121874451Y-64538191D01*
X121874448Y-64538187D01*
X121756812Y-64420551D01*
X121756803Y-64420544D01*
X121613601Y-64335855D01*
X121613596Y-64335853D01*
X121453835Y-64289438D01*
X121453829Y-64289437D01*
X121416507Y-64286500D01*
X121416502Y-64286500D01*
X119633498Y-64286500D01*
X119633492Y-64286500D01*
X119596170Y-64289437D01*
X119596164Y-64289438D01*
X119436403Y-64335853D01*
X119436398Y-64335855D01*
X119408372Y-64352430D01*
X119371506Y-64374232D01*
X119355606Y-64378582D01*
X119343322Y-64386477D01*
X119308387Y-64391500D01*
X119303411Y-64391500D01*
X119236372Y-64371815D01*
X119215730Y-64355181D01*
X118644819Y-63784270D01*
X118611334Y-63722947D01*
X118608500Y-63696589D01*
X118608500Y-63303411D01*
X118628185Y-63236372D01*
X118644819Y-63215730D01*
X119215730Y-62644819D01*
X119277053Y-62611334D01*
X119303411Y-62608500D01*
X127696589Y-62608500D01*
X127763628Y-62628185D01*
G37*
%TD.AperFunction*%
%TA.AperFunction,Conductor*%
G36*
X160763628Y-66128185D02*
G01*
X160784270Y-66144819D01*
X161355181Y-66715730D01*
X161388666Y-66777053D01*
X161391500Y-66803411D01*
X161391500Y-69196589D01*
X161371815Y-69263628D01*
X161355181Y-69284270D01*
X160784270Y-69855181D01*
X160757342Y-69869884D01*
X160731524Y-69886477D01*
X160725323Y-69887368D01*
X160722947Y-69888666D01*
X160696589Y-69891500D01*
X160686937Y-69891500D01*
X160619898Y-69871815D01*
X160574143Y-69819011D01*
X160569006Y-69805818D01*
X160517634Y-69647710D01*
X160424129Y-69464197D01*
X160371312Y-69391500D01*
X160303073Y-69297576D01*
X160303069Y-69297571D01*
X160157428Y-69151930D01*
X160157423Y-69151926D01*
X159990806Y-69030873D01*
X159990805Y-69030872D01*
X159990803Y-69030871D01*
X159911541Y-68990485D01*
X159902180Y-68985715D01*
X159851384Y-68937740D01*
X159834589Y-68869919D01*
X159857127Y-68803784D01*
X159902181Y-68764745D01*
X159986346Y-68721861D01*
X159986347Y-68721861D01*
X160030921Y-68689474D01*
X159351447Y-68010000D01*
X159357661Y-68010000D01*
X159459394Y-67982741D01*
X159550606Y-67930080D01*
X159625080Y-67855606D01*
X159677741Y-67764394D01*
X159705000Y-67662661D01*
X159705000Y-67656448D01*
X160384474Y-68335922D01*
X160384474Y-68335921D01*
X160416859Y-68291349D01*
X160509755Y-68109031D01*
X160572990Y-67914417D01*
X160605000Y-67712317D01*
X160605000Y-67507682D01*
X160572990Y-67305582D01*
X160509755Y-67110968D01*
X160416859Y-66928650D01*
X160384474Y-66884077D01*
X160384474Y-66884076D01*
X159705000Y-67563551D01*
X159705000Y-67557339D01*
X159677741Y-67455606D01*
X159625080Y-67364394D01*
X159550606Y-67289920D01*
X159459394Y-67237259D01*
X159357661Y-67210000D01*
X159351446Y-67210000D01*
X160030922Y-66530524D01*
X160030921Y-66530523D01*
X159986359Y-66498147D01*
X159986350Y-66498141D01*
X159804031Y-66405244D01*
X159635335Y-66350431D01*
X159577660Y-66310993D01*
X159550462Y-66246634D01*
X159562377Y-66177788D01*
X159609621Y-66126312D01*
X159673654Y-66108500D01*
X160696589Y-66108500D01*
X160763628Y-66128185D01*
G37*
%TD.AperFunction*%
%TA.AperFunction,Conductor*%
G36*
X179942459Y-33520004D02*
G01*
X179988506Y-33572553D01*
X180000000Y-33624690D01*
X180000000Y-104876000D01*
X179980315Y-104943039D01*
X179927511Y-104988794D01*
X179876000Y-105000000D01*
X90124000Y-105000000D01*
X90056961Y-104980315D01*
X90011206Y-104927511D01*
X90000000Y-104876000D01*
X90000000Y-96897682D01*
X119200000Y-96897682D01*
X119200000Y-97102317D01*
X119232009Y-97304417D01*
X119295244Y-97499031D01*
X119388141Y-97681350D01*
X119388147Y-97681359D01*
X119420523Y-97725921D01*
X119420524Y-97725922D01*
X120100000Y-97046446D01*
X120100000Y-97052661D01*
X120127259Y-97154394D01*
X120179920Y-97245606D01*
X120254394Y-97320080D01*
X120345606Y-97372741D01*
X120447339Y-97400000D01*
X120453553Y-97400000D01*
X119774076Y-98079474D01*
X119818650Y-98111859D01*
X120000968Y-98204755D01*
X120195582Y-98267990D01*
X120397683Y-98300000D01*
X120602317Y-98300000D01*
X120804417Y-98267990D01*
X120999031Y-98204755D01*
X121181349Y-98111859D01*
X121225921Y-98079474D01*
X120546447Y-97400000D01*
X120552661Y-97400000D01*
X120654394Y-97372741D01*
X120745606Y-97320080D01*
X120820080Y-97245606D01*
X120872741Y-97154394D01*
X120900000Y-97052661D01*
X120900000Y-97046447D01*
X121579474Y-97725921D01*
X121611859Y-97681349D01*
X121704755Y-97499031D01*
X121767990Y-97304417D01*
X121800000Y-97102317D01*
X121800000Y-96897682D01*
X121767990Y-96695582D01*
X121704755Y-96500968D01*
X121611859Y-96318650D01*
X121579474Y-96274077D01*
X121579474Y-96274076D01*
X120900000Y-96953551D01*
X120900000Y-96947339D01*
X120872741Y-96845606D01*
X120820080Y-96754394D01*
X120745606Y-96679920D01*
X120654394Y-96627259D01*
X120552661Y-96600000D01*
X120546446Y-96600000D01*
X121225922Y-95920524D01*
X121225921Y-95920523D01*
X121181359Y-95888147D01*
X121181350Y-95888141D01*
X120999031Y-95795244D01*
X120804417Y-95732009D01*
X120602317Y-95700000D01*
X120397683Y-95700000D01*
X120195582Y-95732009D01*
X120000968Y-95795244D01*
X119818644Y-95888143D01*
X119774077Y-95920523D01*
X119774077Y-95920524D01*
X120453554Y-96600000D01*
X120447339Y-96600000D01*
X120345606Y-96627259D01*
X120254394Y-96679920D01*
X120179920Y-96754394D01*
X120127259Y-96845606D01*
X120100000Y-96947339D01*
X120100000Y-96953553D01*
X119420524Y-96274077D01*
X119420523Y-96274077D01*
X119388143Y-96318644D01*
X119295244Y-96500968D01*
X119232009Y-96695582D01*
X119200000Y-96897682D01*
X90000000Y-96897682D01*
X90000000Y-86786654D01*
X97737501Y-86786654D01*
X97747819Y-86887652D01*
X97802046Y-87051300D01*
X97802051Y-87051311D01*
X97892552Y-87198034D01*
X97892555Y-87198038D01*
X98014461Y-87319944D01*
X98014465Y-87319947D01*
X98161188Y-87410448D01*
X98161199Y-87410453D01*
X98324847Y-87464680D01*
X98425851Y-87474999D01*
X98525000Y-87474998D01*
X98525000Y-86750000D01*
X97737501Y-86750000D01*
X97737501Y-86786654D01*
X90000000Y-86786654D01*
X90000000Y-86213345D01*
X97737500Y-86213345D01*
X97737500Y-86250000D01*
X98525000Y-86250000D01*
X98525000Y-85524999D01*
X98425860Y-85525000D01*
X98425844Y-85525001D01*
X98324847Y-85535319D01*
X98161199Y-85589546D01*
X98161188Y-85589551D01*
X98014465Y-85680052D01*
X98014461Y-85680055D01*
X97892555Y-85801961D01*
X97892552Y-85801965D01*
X97802051Y-85948688D01*
X97802046Y-85948699D01*
X97747819Y-86112347D01*
X97737500Y-86213345D01*
X90000000Y-86213345D01*
X90000000Y-65300000D01*
X90282987Y-65300000D01*
X90903181Y-65300000D01*
X90905989Y-65297567D01*
X90919317Y-65295650D01*
X90931137Y-65289196D01*
X90953225Y-65290775D01*
X90975147Y-65287623D01*
X90987398Y-65293217D01*
X91000829Y-65294178D01*
X91018556Y-65307447D01*
X91038703Y-65316648D01*
X91045984Y-65327978D01*
X91056764Y-65336047D01*
X91064503Y-65356795D01*
X91076477Y-65375426D01*
X91079627Y-65397337D01*
X91081184Y-65401510D01*
X91081500Y-65410361D01*
X91081500Y-65589638D01*
X91061815Y-65656677D01*
X91009011Y-65702432D01*
X90939853Y-65712376D01*
X90912753Y-65700000D01*
X90282990Y-65700000D01*
X90282988Y-65700001D01*
X90290442Y-65756627D01*
X90290444Y-65756633D01*
X90350899Y-65902585D01*
X90447075Y-66027924D01*
X90572413Y-66124100D01*
X90718365Y-66184554D01*
X90718369Y-66184555D01*
X90835676Y-66199999D01*
X90892499Y-66199998D01*
X90892500Y-66199998D01*
X90892500Y-65888142D01*
X90912185Y-65821103D01*
X90964989Y-65775348D01*
X91034147Y-65765404D01*
X91097703Y-65794429D01*
X91131061Y-65840690D01*
X91158474Y-65906873D01*
X91158475Y-65906875D01*
X91158476Y-65906876D01*
X91239967Y-66013076D01*
X91256017Y-66033992D01*
X91256181Y-66034156D01*
X91256274Y-66034328D01*
X91260961Y-66040435D01*
X91260008Y-66041165D01*
X91289666Y-66095479D01*
X91292500Y-66121837D01*
X91292500Y-66199999D01*
X91349323Y-66199999D01*
X91467474Y-66184444D01*
X91498560Y-66184282D01*
X91515421Y-66186323D01*
X91531150Y-66192838D01*
X91650115Y-66208500D01*
X91698624Y-66208499D01*
X91706044Y-66209398D01*
X91731543Y-66220361D01*
X91758180Y-66228182D01*
X91763195Y-66233970D01*
X91770233Y-66236996D01*
X91785758Y-66260007D01*
X91803936Y-66280985D01*
X91805026Y-66288566D01*
X91809310Y-66294916D01*
X91809930Y-66322668D01*
X91813881Y-66350143D01*
X91810699Y-66357109D01*
X91810871Y-66364768D01*
X91796388Y-66388449D01*
X91784858Y-66413700D01*
X91776956Y-66420224D01*
X91774418Y-66424375D01*
X91768405Y-66427285D01*
X91753144Y-66439886D01*
X91626373Y-66513077D01*
X90513080Y-67626370D01*
X90513076Y-67626376D01*
X90432968Y-67765126D01*
X90432968Y-67765127D01*
X90430350Y-67774898D01*
X90391500Y-67919889D01*
X90391500Y-76919889D01*
X90391500Y-76919890D01*
X90391500Y-77080110D01*
X90412234Y-77157491D01*
X90432968Y-77234874D01*
X90461487Y-77284270D01*
X90513078Y-77373627D01*
X91126373Y-77986922D01*
X91126374Y-77986923D01*
X91126376Y-77986924D01*
X91171678Y-78013079D01*
X91265128Y-78067032D01*
X91419889Y-78108500D01*
X91419890Y-78108500D01*
X91580110Y-78108500D01*
X92467500Y-78108500D01*
X92534539Y-78128185D01*
X92580294Y-78180989D01*
X92591500Y-78232500D01*
X92591500Y-80748654D01*
X92598011Y-80809202D01*
X92598011Y-80809204D01*
X92639296Y-80919889D01*
X92649111Y-80946204D01*
X92736739Y-81063261D01*
X92853796Y-81150889D01*
X92990799Y-81201989D01*
X93018050Y-81204918D01*
X93051345Y-81208499D01*
X93051362Y-81208500D01*
X96048638Y-81208500D01*
X96048654Y-81208499D01*
X96075692Y-81205591D01*
X96109201Y-81201989D01*
X96246204Y-81150889D01*
X96363261Y-81063261D01*
X96450889Y-80946204D01*
X96501989Y-80809201D01*
X96508354Y-80750000D01*
X96508499Y-80748654D01*
X96508500Y-80748637D01*
X96508500Y-75251362D01*
X96508499Y-75251345D01*
X96505157Y-75220270D01*
X96501989Y-75190799D01*
X96496598Y-75176346D01*
X96460988Y-75080873D01*
X96450889Y-75053796D01*
X96363261Y-74936739D01*
X96246204Y-74849111D01*
X96189001Y-74827775D01*
X96109203Y-74798011D01*
X96048654Y-74791500D01*
X96048638Y-74791500D01*
X93051362Y-74791500D01*
X93051345Y-74791500D01*
X92990797Y-74798011D01*
X92990795Y-74798011D01*
X92853795Y-74849111D01*
X92736739Y-74936739D01*
X92649111Y-75053795D01*
X92598011Y-75190795D01*
X92598011Y-75190797D01*
X92591500Y-75251345D01*
X92591500Y-76767500D01*
X92571815Y-76834539D01*
X92519011Y-76880294D01*
X92467500Y-76891500D01*
X91803411Y-76891500D01*
X91773970Y-76882855D01*
X91743984Y-76876332D01*
X91738968Y-76872577D01*
X91736372Y-76871815D01*
X91715730Y-76855181D01*
X91644819Y-76784270D01*
X91611334Y-76722947D01*
X91608500Y-76696589D01*
X91608500Y-71268411D01*
X91628185Y-71201372D01*
X91680989Y-71155617D01*
X91750147Y-71145673D01*
X91813703Y-71174698D01*
X91820181Y-71180730D01*
X92126373Y-71486922D01*
X92126375Y-71486923D01*
X92126379Y-71486926D01*
X92236195Y-71550328D01*
X92236198Y-71550329D01*
X92265125Y-71567031D01*
X92265127Y-71567031D01*
X92265128Y-71567032D01*
X92419889Y-71608500D01*
X92419890Y-71608500D01*
X92580110Y-71608500D01*
X105772325Y-71608500D01*
X105839364Y-71628185D01*
X105860001Y-71644814D01*
X105890724Y-71675537D01*
X105920866Y-71705679D01*
X106069657Y-71805098D01*
X106069661Y-71805100D01*
X106069664Y-71805102D01*
X106235000Y-71873587D01*
X106291691Y-71884863D01*
X106353601Y-71917246D01*
X106388176Y-71977961D01*
X106391500Y-72006480D01*
X106391500Y-74785016D01*
X106371815Y-74852055D01*
X106319011Y-74897810D01*
X106249853Y-74907754D01*
X106193190Y-74884284D01*
X106146204Y-74849111D01*
X106009203Y-74798011D01*
X105948654Y-74791500D01*
X105948638Y-74791500D01*
X102951362Y-74791500D01*
X102951345Y-74791500D01*
X102890797Y-74798011D01*
X102890795Y-74798011D01*
X102753795Y-74849111D01*
X102636739Y-74936739D01*
X102549111Y-75053795D01*
X102498011Y-75190795D01*
X102498011Y-75190797D01*
X102491500Y-75251345D01*
X102491500Y-80748654D01*
X102498011Y-80809202D01*
X102498011Y-80809204D01*
X102539296Y-80919889D01*
X102549111Y-80946204D01*
X102636739Y-81063261D01*
X102753796Y-81150889D01*
X102890799Y-81201989D01*
X102918050Y-81204918D01*
X102951345Y-81208499D01*
X102951362Y-81208500D01*
X105948638Y-81208500D01*
X105948654Y-81208499D01*
X105975692Y-81205591D01*
X106009201Y-81201989D01*
X106146204Y-81150889D01*
X106193190Y-81115715D01*
X106258653Y-81091299D01*
X106326926Y-81106150D01*
X106376332Y-81155556D01*
X106391500Y-81214983D01*
X106391500Y-85696589D01*
X106382855Y-85726029D01*
X106376332Y-85756016D01*
X106372577Y-85761031D01*
X106371815Y-85763628D01*
X106355181Y-85784270D01*
X106284270Y-85855181D01*
X106222947Y-85888666D01*
X106196589Y-85891500D01*
X101516866Y-85891500D01*
X101449827Y-85871815D01*
X101411327Y-85832596D01*
X101389158Y-85796654D01*
X101265846Y-85673342D01*
X101265842Y-85673339D01*
X101117428Y-85581795D01*
X101117422Y-85581792D01*
X101117420Y-85581791D01*
X101079540Y-85569239D01*
X100951882Y-85526938D01*
X100849714Y-85516500D01*
X100150294Y-85516500D01*
X100150278Y-85516501D01*
X100048117Y-85526938D01*
X99882582Y-85581790D01*
X99882571Y-85581795D01*
X99734157Y-85673339D01*
X99734152Y-85673343D01*
X99719168Y-85688327D01*
X99657844Y-85721811D01*
X99588153Y-85716825D01*
X99543808Y-85688325D01*
X99535538Y-85680055D01*
X99535534Y-85680052D01*
X99388811Y-85589551D01*
X99388800Y-85589546D01*
X99225152Y-85535319D01*
X99124154Y-85525000D01*
X99025000Y-85525000D01*
X99025000Y-87474999D01*
X99124140Y-87474999D01*
X99124154Y-87474998D01*
X99225152Y-87464680D01*
X99388800Y-87410453D01*
X99388811Y-87410448D01*
X99535534Y-87319947D01*
X99543801Y-87311680D01*
X99605122Y-87278191D01*
X99674814Y-87283170D01*
X99719170Y-87311674D01*
X99734153Y-87326657D01*
X99734157Y-87326660D01*
X99882571Y-87418204D01*
X99882574Y-87418205D01*
X99882580Y-87418209D01*
X100048119Y-87473062D01*
X100150287Y-87483500D01*
X100849712Y-87483499D01*
X100951881Y-87473062D01*
X101117420Y-87418209D01*
X101265846Y-87326658D01*
X101389158Y-87203346D01*
X101411327Y-87167403D01*
X101463275Y-87120679D01*
X101516866Y-87108500D01*
X106580109Y-87108500D01*
X106580110Y-87108500D01*
X106580111Y-87108500D01*
X106657491Y-87087766D01*
X106734873Y-87067032D01*
X106873627Y-86986922D01*
X107486922Y-86373627D01*
X107567032Y-86234872D01*
X107608500Y-86080110D01*
X107608500Y-85919890D01*
X107608500Y-85919889D01*
X107608500Y-84344998D01*
X118552704Y-84344998D01*
X118552705Y-84345000D01*
X119775000Y-84345000D01*
X120275000Y-84345000D01*
X121497295Y-84345000D01*
X121497295Y-84344998D01*
X121497100Y-84342513D01*
X121451281Y-84184801D01*
X121367685Y-84043447D01*
X121367678Y-84043438D01*
X121251561Y-83927321D01*
X121251552Y-83927314D01*
X121110196Y-83843717D01*
X121110193Y-83843716D01*
X120952495Y-83797900D01*
X120952489Y-83797899D01*
X120915649Y-83795000D01*
X120275000Y-83795000D01*
X120275000Y-84345000D01*
X119775000Y-84345000D01*
X119775000Y-83795000D01*
X119134350Y-83795000D01*
X119097510Y-83797899D01*
X119097504Y-83797900D01*
X118939806Y-83843716D01*
X118939803Y-83843717D01*
X118798447Y-83927314D01*
X118798438Y-83927321D01*
X118682321Y-84043438D01*
X118682314Y-84043447D01*
X118598718Y-84184801D01*
X118552899Y-84342513D01*
X118552704Y-84344998D01*
X107608500Y-84344998D01*
X107608500Y-82268411D01*
X107628185Y-82201372D01*
X107680989Y-82155617D01*
X107750147Y-82145673D01*
X107813703Y-82174698D01*
X107820181Y-82180730D01*
X108626373Y-82986922D01*
X108626375Y-82986923D01*
X108626379Y-82986926D01*
X108732783Y-83048358D01*
X108732786Y-83048359D01*
X108765125Y-83067031D01*
X108765127Y-83067031D01*
X108765128Y-83067032D01*
X108919889Y-83108500D01*
X108919890Y-83108500D01*
X109080111Y-83108500D01*
X115419889Y-83108500D01*
X132419889Y-83108500D01*
X132419890Y-83108500D01*
X132580110Y-83108500D01*
X140696589Y-83108500D01*
X140726029Y-83117144D01*
X140756016Y-83123668D01*
X140761031Y-83127422D01*
X140763628Y-83128185D01*
X140784270Y-83144819D01*
X140855181Y-83215730D01*
X140888666Y-83277053D01*
X140891500Y-83303411D01*
X140891500Y-84231589D01*
X140871815Y-84298628D01*
X140819011Y-84344383D01*
X140749853Y-84354327D01*
X140686297Y-84325302D01*
X140679819Y-84319270D01*
X140373629Y-84013080D01*
X140373627Y-84013078D01*
X140234873Y-83932968D01*
X140157491Y-83912234D01*
X140157490Y-83912233D01*
X140100844Y-83897055D01*
X140080111Y-83891500D01*
X140080110Y-83891500D01*
X126191613Y-83891500D01*
X126128493Y-83874232D01*
X126063601Y-83835855D01*
X126063596Y-83835853D01*
X125903835Y-83789438D01*
X125903829Y-83789437D01*
X125866507Y-83786500D01*
X125866502Y-83786500D01*
X124083498Y-83786500D01*
X124083492Y-83786500D01*
X124046170Y-83789437D01*
X124046164Y-83789438D01*
X123886403Y-83835853D01*
X123886398Y-83835855D01*
X123743196Y-83920544D01*
X123743187Y-83920551D01*
X123625551Y-84038187D01*
X123625544Y-84038196D01*
X123540855Y-84181398D01*
X123540853Y-84181403D01*
X123494438Y-84341164D01*
X123494437Y-84341170D01*
X123491500Y-84378492D01*
X123491500Y-84811507D01*
X123494437Y-84848829D01*
X123494438Y-84848835D01*
X123540853Y-85008596D01*
X123540855Y-85008601D01*
X123625547Y-85151808D01*
X123627249Y-85154002D01*
X123628047Y-85156034D01*
X123629518Y-85158522D01*
X123629116Y-85158759D01*
X123652783Y-85219039D01*
X123639101Y-85287556D01*
X123627249Y-85305998D01*
X123625547Y-85308191D01*
X123540855Y-85451398D01*
X123540853Y-85451403D01*
X123494438Y-85611164D01*
X123494437Y-85611170D01*
X123491500Y-85648492D01*
X123491500Y-86081501D01*
X123494437Y-86118829D01*
X123494438Y-86118835D01*
X123540853Y-86278596D01*
X123540855Y-86278601D01*
X123625547Y-86421808D01*
X123627249Y-86424002D01*
X123628047Y-86426034D01*
X123629518Y-86428522D01*
X123629116Y-86428759D01*
X123652783Y-86489039D01*
X123639101Y-86557556D01*
X123627249Y-86575998D01*
X123625547Y-86578191D01*
X123540855Y-86721398D01*
X123540853Y-86721403D01*
X123494438Y-86881164D01*
X123494437Y-86881170D01*
X123491500Y-86918492D01*
X123491500Y-87351507D01*
X123494437Y-87388829D01*
X123494438Y-87388835D01*
X123540853Y-87548596D01*
X123540855Y-87548601D01*
X123625547Y-87691808D01*
X123627249Y-87694002D01*
X123628047Y-87696034D01*
X123629518Y-87698522D01*
X123629116Y-87698759D01*
X123652783Y-87759039D01*
X123639101Y-87827556D01*
X123627249Y-87845998D01*
X123625547Y-87848191D01*
X123540855Y-87991398D01*
X123540853Y-87991403D01*
X123494438Y-88151164D01*
X123494438Y-88151169D01*
X123491500Y-88188492D01*
X123491500Y-88621507D01*
X123494437Y-88658829D01*
X123494438Y-88658835D01*
X123540853Y-88818596D01*
X123540855Y-88818601D01*
X123625544Y-88961803D01*
X123625551Y-88961812D01*
X123743187Y-89079448D01*
X123743196Y-89079455D01*
X123760146Y-89089479D01*
X123886399Y-89164145D01*
X123928530Y-89176385D01*
X124046164Y-89210561D01*
X124046167Y-89210561D01*
X124046169Y-89210562D01*
X124083498Y-89213500D01*
X124083504Y-89213500D01*
X125866496Y-89213500D01*
X125866502Y-89213500D01*
X125903831Y-89210562D01*
X125903833Y-89210561D01*
X125903835Y-89210561D01*
X125945962Y-89198321D01*
X126063601Y-89164145D01*
X126128493Y-89125767D01*
X126144393Y-89121417D01*
X126156678Y-89113523D01*
X126191613Y-89108500D01*
X126196589Y-89108500D01*
X126263628Y-89128185D01*
X126284270Y-89144819D01*
X126855181Y-89715730D01*
X126888666Y-89777053D01*
X126891500Y-89803411D01*
X126891500Y-90813336D01*
X126871815Y-90880375D01*
X126819011Y-90926130D01*
X126749853Y-90936074D01*
X126735407Y-90933111D01*
X126657491Y-90912234D01*
X126657490Y-90912233D01*
X126600844Y-90897055D01*
X126580111Y-90891500D01*
X126580110Y-90891500D01*
X118803411Y-90891500D01*
X118736372Y-90871815D01*
X118715730Y-90855181D01*
X118144819Y-90284270D01*
X118111334Y-90222947D01*
X118108500Y-90196589D01*
X118108500Y-89803411D01*
X118128185Y-89736372D01*
X118144819Y-89715730D01*
X118715730Y-89144819D01*
X118742657Y-89130115D01*
X118768476Y-89113523D01*
X118774676Y-89112631D01*
X118777053Y-89111334D01*
X118803411Y-89108500D01*
X118808387Y-89108500D01*
X118871506Y-89125767D01*
X118936399Y-89164145D01*
X118978530Y-89176385D01*
X119096164Y-89210561D01*
X119096167Y-89210561D01*
X119096169Y-89210562D01*
X119133498Y-89213500D01*
X119133504Y-89213500D01*
X120916496Y-89213500D01*
X120916502Y-89213500D01*
X120953831Y-89210562D01*
X120953833Y-89210561D01*
X120953835Y-89210561D01*
X120995962Y-89198321D01*
X121113601Y-89164145D01*
X121256807Y-89079453D01*
X121374453Y-88961807D01*
X121459145Y-88818601D01*
X121505562Y-88658831D01*
X121508500Y-88621502D01*
X121508500Y-88188498D01*
X121505562Y-88151169D01*
X121498369Y-88126411D01*
X121459146Y-87991403D01*
X121459145Y-87991399D01*
X121399463Y-87890482D01*
X121374456Y-87848197D01*
X121372755Y-87846005D01*
X121371956Y-87843970D01*
X121370482Y-87841478D01*
X121370883Y-87841240D01*
X121347217Y-87780970D01*
X121360894Y-87712452D01*
X121372755Y-87693995D01*
X121374449Y-87691810D01*
X121374453Y-87691807D01*
X121459145Y-87548601D01*
X121505562Y-87388831D01*
X121508500Y-87351502D01*
X121508500Y-86918498D01*
X121505562Y-86881169D01*
X121503371Y-86873629D01*
X121463060Y-86734874D01*
X121459145Y-86721399D01*
X121405160Y-86630115D01*
X121374456Y-86578197D01*
X121372755Y-86576005D01*
X121371956Y-86573970D01*
X121370482Y-86571478D01*
X121370883Y-86571240D01*
X121347217Y-86510970D01*
X121360894Y-86442452D01*
X121372755Y-86423995D01*
X121374449Y-86421810D01*
X121374453Y-86421807D01*
X121375013Y-86420861D01*
X121394403Y-86388073D01*
X121459145Y-86278601D01*
X121493713Y-86159616D01*
X121505561Y-86118835D01*
X121505562Y-86118829D01*
X121508500Y-86081501D01*
X121508500Y-85648504D01*
X121508500Y-85648498D01*
X121505562Y-85611169D01*
X121499281Y-85589551D01*
X121465943Y-85474798D01*
X121459145Y-85451399D01*
X121400427Y-85352113D01*
X121374455Y-85308196D01*
X121369670Y-85302027D01*
X121371583Y-85300542D01*
X121343848Y-85249749D01*
X121348832Y-85180057D01*
X121363748Y-85153292D01*
X121363712Y-85153271D01*
X121364545Y-85151862D01*
X121367042Y-85147382D01*
X121367684Y-85146553D01*
X121451281Y-85005198D01*
X121497100Y-84847486D01*
X121497295Y-84845001D01*
X121497295Y-84845000D01*
X118552705Y-84845000D01*
X118552704Y-84845001D01*
X118552899Y-84847486D01*
X118598718Y-85005198D01*
X118682319Y-85146560D01*
X118682969Y-85147398D01*
X118683273Y-85148173D01*
X118686288Y-85153271D01*
X118685465Y-85153757D01*
X118708500Y-85212436D01*
X118694816Y-85280953D01*
X118679684Y-85301533D01*
X118680327Y-85302032D01*
X118675543Y-85308198D01*
X118590855Y-85451398D01*
X118590853Y-85451403D01*
X118544438Y-85611164D01*
X118544437Y-85611170D01*
X118541500Y-85648492D01*
X118541500Y-86055364D01*
X118521815Y-86122403D01*
X118469011Y-86168158D01*
X118399853Y-86178102D01*
X118370047Y-86169925D01*
X118265000Y-86126413D01*
X118264992Y-86126411D01*
X118089483Y-86091500D01*
X118089479Y-86091500D01*
X117910521Y-86091500D01*
X117910516Y-86091500D01*
X117735007Y-86126411D01*
X117734999Y-86126413D01*
X117569667Y-86194896D01*
X117569657Y-86194901D01*
X117420865Y-86294321D01*
X117420861Y-86294324D01*
X117294324Y-86420861D01*
X117294321Y-86420865D01*
X117194901Y-86569657D01*
X117194896Y-86569667D01*
X117126413Y-86734999D01*
X117126411Y-86735007D01*
X117091500Y-86910516D01*
X117091500Y-87089483D01*
X117126411Y-87264992D01*
X117126413Y-87265000D01*
X117194896Y-87430332D01*
X117194901Y-87430342D01*
X117294321Y-87579134D01*
X117294324Y-87579138D01*
X117420861Y-87705675D01*
X117420865Y-87705678D01*
X117569657Y-87805098D01*
X117569661Y-87805100D01*
X117569664Y-87805102D01*
X117735000Y-87873587D01*
X117825056Y-87891500D01*
X117910516Y-87908499D01*
X117910520Y-87908500D01*
X117931589Y-87908500D01*
X117998628Y-87928185D01*
X118044383Y-87980989D01*
X118054327Y-88050147D01*
X118025302Y-88113703D01*
X118019270Y-88120181D01*
X117013080Y-89126370D01*
X117013076Y-89126376D01*
X116932967Y-89265126D01*
X116932968Y-89265126D01*
X116932968Y-89265127D01*
X116932968Y-89265128D01*
X116891500Y-89419889D01*
X116891500Y-90580111D01*
X116912234Y-90657491D01*
X116932968Y-90734874D01*
X116932969Y-90734875D01*
X116946609Y-90758500D01*
X117013078Y-90873627D01*
X118126373Y-91986922D01*
X118265128Y-92067032D01*
X118419889Y-92108500D01*
X118419890Y-92108500D01*
X118580111Y-92108500D01*
X126196589Y-92108500D01*
X126263628Y-92128185D01*
X126284270Y-92144819D01*
X126855181Y-92715730D01*
X126888666Y-92777053D01*
X126891500Y-92803411D01*
X126891500Y-95696589D01*
X126871815Y-95763628D01*
X126855181Y-95784270D01*
X126284270Y-96355181D01*
X126222947Y-96388666D01*
X126196589Y-96391500D01*
X125234504Y-96391500D01*
X125167465Y-96371815D01*
X125124018Y-96323793D01*
X125119129Y-96314197D01*
X125119127Y-96314194D01*
X125119126Y-96314192D01*
X124998073Y-96147576D01*
X124998069Y-96147571D01*
X124852428Y-96001930D01*
X124852423Y-96001926D01*
X124685806Y-95880873D01*
X124685805Y-95880872D01*
X124685803Y-95880871D01*
X124628496Y-95851671D01*
X124502294Y-95787367D01*
X124306408Y-95723719D01*
X124130794Y-95695905D01*
X124102981Y-95691500D01*
X123897019Y-95691500D01*
X123872550Y-95695375D01*
X123693591Y-95723719D01*
X123497705Y-95787367D01*
X123314193Y-95880873D01*
X123147576Y-96001926D01*
X123147571Y-96001930D01*
X123001930Y-96147571D01*
X123001926Y-96147576D01*
X122880873Y-96314193D01*
X122787367Y-96497705D01*
X122723719Y-96693591D01*
X122691500Y-96897019D01*
X122691500Y-97102980D01*
X122723719Y-97306408D01*
X122787367Y-97502294D01*
X122841482Y-97608499D01*
X122878602Y-97681350D01*
X122880873Y-97685806D01*
X123001926Y-97852423D01*
X123001930Y-97852428D01*
X123147571Y-97998069D01*
X123147576Y-97998073D01*
X123259616Y-98079474D01*
X123314197Y-98119129D01*
X123431128Y-98178709D01*
X123497705Y-98212632D01*
X123497707Y-98212632D01*
X123497710Y-98212634D01*
X123602707Y-98246749D01*
X123693591Y-98276280D01*
X123795305Y-98292390D01*
X123897019Y-98308500D01*
X123897020Y-98308500D01*
X124102980Y-98308500D01*
X124102981Y-98308500D01*
X124306408Y-98276280D01*
X124502290Y-98212634D01*
X124685803Y-98119129D01*
X124852430Y-97998068D01*
X124998068Y-97852430D01*
X125119129Y-97685803D01*
X125124018Y-97676206D01*
X125171992Y-97625410D01*
X125234504Y-97608500D01*
X126580109Y-97608500D01*
X126580110Y-97608500D01*
X126580111Y-97608500D01*
X126689703Y-97579135D01*
X126734873Y-97567032D01*
X126873627Y-97486922D01*
X127986922Y-96373627D01*
X128067032Y-96234872D01*
X128108500Y-96080110D01*
X128108500Y-95919889D01*
X128108500Y-90803411D01*
X128128185Y-90736372D01*
X128144819Y-90715730D01*
X128715730Y-90144819D01*
X128777053Y-90111334D01*
X128803411Y-90108500D01*
X132522353Y-90108500D01*
X132589392Y-90128185D01*
X132635147Y-90180989D01*
X132640059Y-90193496D01*
X132670138Y-90284270D01*
X132682885Y-90322738D01*
X132775970Y-90473652D01*
X132901348Y-90599030D01*
X133052262Y-90692115D01*
X133220574Y-90747887D01*
X133324455Y-90758500D01*
X134675544Y-90758499D01*
X134779426Y-90747887D01*
X134947738Y-90692115D01*
X135098652Y-90599030D01*
X135224030Y-90473652D01*
X135317115Y-90322738D01*
X135372887Y-90154426D01*
X135383500Y-90050545D01*
X135383499Y-89149456D01*
X135372887Y-89045574D01*
X135317115Y-88877262D01*
X135224030Y-88726348D01*
X135098652Y-88600970D01*
X134947738Y-88507885D01*
X134947735Y-88507884D01*
X134779427Y-88452113D01*
X134675545Y-88441500D01*
X133324462Y-88441500D01*
X133324446Y-88441501D01*
X133220572Y-88452113D01*
X133052264Y-88507884D01*
X133052259Y-88507886D01*
X132901346Y-88600971D01*
X132775970Y-88726347D01*
X132775967Y-88726351D01*
X132710434Y-88832597D01*
X132658486Y-88879322D01*
X132604896Y-88891500D01*
X128419889Y-88891500D01*
X128348901Y-88910520D01*
X128348902Y-88910521D01*
X128265126Y-88932968D01*
X128265125Y-88932969D01*
X128126376Y-89013075D01*
X128126371Y-89013079D01*
X128087680Y-89051770D01*
X128026357Y-89085255D01*
X127956665Y-89080269D01*
X127912319Y-89051769D01*
X126873629Y-88013080D01*
X126873627Y-88013078D01*
X126734873Y-87932968D01*
X126643556Y-87908500D01*
X126643555Y-87908499D01*
X126597110Y-87896054D01*
X126580111Y-87891500D01*
X126580110Y-87891500D01*
X126422671Y-87891500D01*
X126414858Y-87889205D01*
X126406817Y-87890482D01*
X126381822Y-87879505D01*
X126355632Y-87871815D01*
X126350300Y-87865662D01*
X126342845Y-87862388D01*
X126327751Y-87839638D01*
X126309877Y-87819011D01*
X126308718Y-87810952D01*
X126304216Y-87804167D01*
X126303817Y-87776871D01*
X126299933Y-87749853D01*
X126303289Y-87740649D01*
X126303197Y-87734305D01*
X126311986Y-87716800D01*
X126317388Y-87701990D01*
X126322523Y-87693736D01*
X126324453Y-87691807D01*
X126338436Y-87668162D01*
X126339166Y-87666990D01*
X126364245Y-87644609D01*
X126388786Y-87621696D01*
X126390333Y-87621329D01*
X126391297Y-87620469D01*
X126399357Y-87619189D01*
X126444449Y-87608500D01*
X127080109Y-87608500D01*
X127080110Y-87608500D01*
X127080111Y-87608500D01*
X127157491Y-87587766D01*
X127234873Y-87567032D01*
X127373627Y-87486922D01*
X128215730Y-86644819D01*
X128242657Y-86630115D01*
X128268476Y-86613523D01*
X128274676Y-86612631D01*
X128277053Y-86611334D01*
X128303411Y-86608500D01*
X128350021Y-86608500D01*
X128417060Y-86628185D01*
X128437703Y-86644820D01*
X128479365Y-86686483D01*
X128479369Y-86686486D01*
X128479371Y-86686488D01*
X128620403Y-86769894D01*
X128661895Y-86781948D01*
X128777741Y-86815605D01*
X128777744Y-86815605D01*
X128777746Y-86815606D01*
X128814516Y-86818500D01*
X128814522Y-86818500D01*
X129225478Y-86818500D01*
X129225484Y-86818500D01*
X129262254Y-86815606D01*
X129419597Y-86769894D01*
X129445226Y-86754736D01*
X129512948Y-86737553D01*
X129571473Y-86754738D01*
X129583804Y-86762031D01*
X129730000Y-86804504D01*
X129730000Y-86804503D01*
X130230000Y-86804503D01*
X130376195Y-86762031D01*
X130515374Y-86679721D01*
X130515383Y-86679714D01*
X130629714Y-86565383D01*
X130629721Y-86565374D01*
X130712031Y-86426195D01*
X130712033Y-86426190D01*
X130757144Y-86270918D01*
X130757145Y-86270912D01*
X130758790Y-86250000D01*
X130230000Y-86250000D01*
X130230000Y-86804503D01*
X129730000Y-86804503D01*
X129730000Y-86514067D01*
X129747268Y-86450946D01*
X129759894Y-86429597D01*
X129803762Y-86278601D01*
X129805605Y-86272258D01*
X129805606Y-86272252D01*
X129805711Y-86270918D01*
X129808500Y-86235484D01*
X129808500Y-86124000D01*
X129828185Y-86056961D01*
X129880989Y-86011206D01*
X129932500Y-86000000D01*
X129980000Y-86000000D01*
X129980000Y-85874000D01*
X129999685Y-85806961D01*
X130052489Y-85761206D01*
X130104000Y-85750000D01*
X130758790Y-85750000D01*
X130757145Y-85729089D01*
X130712031Y-85573804D01*
X130629721Y-85434625D01*
X130629714Y-85434616D01*
X130515279Y-85320181D01*
X130481794Y-85258858D01*
X130486778Y-85189166D01*
X130528650Y-85133233D01*
X130594114Y-85108816D01*
X130602960Y-85108500D01*
X133187324Y-85108500D01*
X133254363Y-85128185D01*
X133300118Y-85180989D01*
X133310062Y-85250147D01*
X133281037Y-85313703D01*
X133226328Y-85350206D01*
X133052264Y-85407884D01*
X133052259Y-85407886D01*
X132901346Y-85500971D01*
X132775971Y-85626346D01*
X132682886Y-85777259D01*
X132682884Y-85777264D01*
X132627113Y-85945572D01*
X132616500Y-86049447D01*
X132616500Y-86950537D01*
X132616501Y-86950553D01*
X132627113Y-87054427D01*
X132682884Y-87222735D01*
X132682886Y-87222740D01*
X132717089Y-87278191D01*
X132775970Y-87373652D01*
X132901348Y-87499030D01*
X133052262Y-87592115D01*
X133220574Y-87647887D01*
X133324455Y-87658500D01*
X134675544Y-87658499D01*
X134779426Y-87647887D01*
X134947738Y-87592115D01*
X135098652Y-87499030D01*
X135224030Y-87373652D01*
X135317115Y-87222738D01*
X135372887Y-87054426D01*
X135383500Y-86950545D01*
X135383499Y-86049456D01*
X135372887Y-85945574D01*
X135317115Y-85777262D01*
X135224030Y-85626348D01*
X135098652Y-85500970D01*
X135085700Y-85492981D01*
X135084256Y-85492090D01*
X135068704Y-85474798D01*
X135050088Y-85460863D01*
X135045778Y-85449309D01*
X135037533Y-85440141D01*
X135033798Y-85417186D01*
X135025672Y-85395398D01*
X135028293Y-85383348D01*
X135026313Y-85371178D01*
X135035580Y-85349850D01*
X135040524Y-85327125D01*
X135052276Y-85311425D01*
X135054158Y-85307096D01*
X135061649Y-85298898D01*
X135215731Y-85144816D01*
X135277054Y-85111334D01*
X135303411Y-85108500D01*
X139696589Y-85108500D01*
X139763628Y-85128185D01*
X139784270Y-85144819D01*
X140355181Y-85715730D01*
X140388666Y-85777053D01*
X140391500Y-85803411D01*
X140391500Y-86419889D01*
X140391500Y-86419890D01*
X140391500Y-86580110D01*
X140408839Y-86644820D01*
X140432968Y-86734874D01*
X140453187Y-86769893D01*
X140513078Y-86873627D01*
X140513080Y-86873629D01*
X141055181Y-87415730D01*
X141088666Y-87477053D01*
X141091500Y-87503411D01*
X141091500Y-87589483D01*
X141126411Y-87764992D01*
X141126413Y-87765000D01*
X141194896Y-87930332D01*
X141194901Y-87930342D01*
X141294321Y-88079134D01*
X141294324Y-88079138D01*
X141395005Y-88179819D01*
X141428490Y-88241142D01*
X141423506Y-88310834D01*
X141381634Y-88366767D01*
X141316170Y-88391184D01*
X141307324Y-88391500D01*
X140727675Y-88391500D01*
X140660636Y-88371815D01*
X140639998Y-88355185D01*
X140579135Y-88294322D01*
X140579134Y-88294321D01*
X140579133Y-88294320D01*
X140430342Y-88194901D01*
X140430332Y-88194896D01*
X140265000Y-88126413D01*
X140264992Y-88126411D01*
X140089483Y-88091500D01*
X140089479Y-88091500D01*
X139910521Y-88091500D01*
X139910516Y-88091500D01*
X139735007Y-88126411D01*
X139734999Y-88126413D01*
X139569667Y-88194896D01*
X139569657Y-88194901D01*
X139420865Y-88294321D01*
X139420861Y-88294324D01*
X139294324Y-88420861D01*
X139294321Y-88420865D01*
X139194901Y-88569657D01*
X139194896Y-88569667D01*
X139126413Y-88734999D01*
X139126411Y-88735007D01*
X139091500Y-88910516D01*
X139091500Y-89089483D01*
X139126411Y-89264992D01*
X139126413Y-89265000D01*
X139194896Y-89430332D01*
X139194901Y-89430342D01*
X139294321Y-89579134D01*
X139294324Y-89579138D01*
X139420861Y-89705675D01*
X139420865Y-89705678D01*
X139569657Y-89805098D01*
X139569661Y-89805100D01*
X139569664Y-89805102D01*
X139735000Y-89873587D01*
X139910516Y-89908499D01*
X139910520Y-89908500D01*
X139910521Y-89908500D01*
X140089480Y-89908500D01*
X140089481Y-89908499D01*
X140265000Y-89873587D01*
X140430336Y-89805102D01*
X140579135Y-89705678D01*
X140639995Y-89644817D01*
X140701316Y-89611334D01*
X140727675Y-89608500D01*
X161080109Y-89608500D01*
X161080110Y-89608500D01*
X161080111Y-89608500D01*
X161157491Y-89587766D01*
X161234873Y-89567032D01*
X161373627Y-89486922D01*
X162486922Y-88373627D01*
X162567032Y-88234872D01*
X162589460Y-88151169D01*
X162608500Y-88080111D01*
X162608500Y-83919889D01*
X162567032Y-83765128D01*
X162530833Y-83702430D01*
X162486922Y-83626373D01*
X161373627Y-82513078D01*
X161234873Y-82432968D01*
X161157491Y-82412234D01*
X161157490Y-82412233D01*
X161100844Y-82397055D01*
X161080111Y-82391500D01*
X161080110Y-82391500D01*
X160615934Y-82391500D01*
X160548895Y-82371815D01*
X160505449Y-82323795D01*
X160477229Y-82268411D01*
X160424129Y-82164197D01*
X160314337Y-82013080D01*
X160303073Y-81997576D01*
X160303069Y-81997571D01*
X160157428Y-81851930D01*
X160157423Y-81851926D01*
X159990806Y-81730873D01*
X159990805Y-81730872D01*
X159990803Y-81730871D01*
X159909740Y-81689567D01*
X159807294Y-81637367D01*
X159611408Y-81573719D01*
X159435794Y-81545905D01*
X159407981Y-81541500D01*
X159202019Y-81541500D01*
X159177550Y-81545375D01*
X158998591Y-81573719D01*
X158802705Y-81637367D01*
X158619193Y-81730873D01*
X158452576Y-81851926D01*
X158452571Y-81851930D01*
X158306930Y-81997571D01*
X158306926Y-81997576D01*
X158185873Y-82164193D01*
X158092367Y-82347705D01*
X158028719Y-82543591D01*
X157996500Y-82747019D01*
X157996500Y-82952980D01*
X158028719Y-83156408D01*
X158092367Y-83352294D01*
X158185873Y-83535806D01*
X158306926Y-83702423D01*
X158306930Y-83702428D01*
X158452571Y-83848069D01*
X158452576Y-83848073D01*
X158542601Y-83913480D01*
X158585267Y-83968810D01*
X158591246Y-84038423D01*
X158558641Y-84100218D01*
X158508721Y-84131504D01*
X158435878Y-84155642D01*
X158435875Y-84155643D01*
X158286654Y-84247684D01*
X158162684Y-84371654D01*
X158070643Y-84520875D01*
X158070641Y-84520880D01*
X158015494Y-84687302D01*
X158015493Y-84687309D01*
X158005000Y-84790013D01*
X158005000Y-85140000D01*
X158989314Y-85140000D01*
X158984920Y-85144394D01*
X158932259Y-85235606D01*
X158905000Y-85337339D01*
X158905000Y-85442661D01*
X158932259Y-85544394D01*
X158984920Y-85635606D01*
X158989314Y-85640000D01*
X158005001Y-85640000D01*
X158005001Y-85989986D01*
X158015494Y-86092697D01*
X158070641Y-86259119D01*
X158070643Y-86259124D01*
X158162684Y-86408345D01*
X158286654Y-86532315D01*
X158435875Y-86624356D01*
X158435880Y-86624358D01*
X158602302Y-86679505D01*
X158602309Y-86679506D01*
X158705019Y-86689999D01*
X159054999Y-86689999D01*
X159055000Y-86689998D01*
X159055000Y-85705686D01*
X159059394Y-85710080D01*
X159150606Y-85762741D01*
X159252339Y-85790000D01*
X159357661Y-85790000D01*
X159459394Y-85762741D01*
X159550606Y-85710080D01*
X159555000Y-85705686D01*
X159555000Y-86689999D01*
X159904972Y-86689999D01*
X159904986Y-86689998D01*
X160007697Y-86679505D01*
X160174119Y-86624358D01*
X160174124Y-86624356D01*
X160323345Y-86532315D01*
X160447315Y-86408345D01*
X160539356Y-86259124D01*
X160539358Y-86259119D01*
X160594505Y-86092697D01*
X160594506Y-86092690D01*
X160604999Y-85989986D01*
X160605000Y-85989973D01*
X160605000Y-85640000D01*
X159620686Y-85640000D01*
X159625080Y-85635606D01*
X159677741Y-85544394D01*
X159705000Y-85442661D01*
X159705000Y-85337339D01*
X159677741Y-85235606D01*
X159625080Y-85144394D01*
X159620686Y-85140000D01*
X160604999Y-85140000D01*
X160604999Y-84790028D01*
X160604998Y-84790013D01*
X160594505Y-84687302D01*
X160539358Y-84520880D01*
X160539356Y-84520875D01*
X160447315Y-84371654D01*
X160323345Y-84247684D01*
X160174124Y-84155643D01*
X160174119Y-84155641D01*
X160101278Y-84131504D01*
X160043833Y-84091731D01*
X160017010Y-84027215D01*
X160029325Y-83958439D01*
X160067396Y-83913480D01*
X160157430Y-83848068D01*
X160303068Y-83702430D01*
X160334175Y-83659615D01*
X160389505Y-83616949D01*
X160434493Y-83608500D01*
X160696589Y-83608500D01*
X160763628Y-83628185D01*
X160784270Y-83644819D01*
X161355181Y-84215730D01*
X161388666Y-84277053D01*
X161391500Y-84303411D01*
X161391500Y-87696589D01*
X161371815Y-87763628D01*
X161355181Y-87784270D01*
X160784270Y-88355181D01*
X160722947Y-88388666D01*
X160696589Y-88391500D01*
X142692676Y-88391500D01*
X142625637Y-88371815D01*
X142579882Y-88319011D01*
X142569938Y-88249853D01*
X142598963Y-88186297D01*
X142604995Y-88179819D01*
X142705675Y-88079138D01*
X142705678Y-88079135D01*
X142805102Y-87930336D01*
X142873587Y-87765000D01*
X142908500Y-87589479D01*
X142908500Y-87410521D01*
X142873587Y-87235000D01*
X142805102Y-87069664D01*
X142805100Y-87069661D01*
X142805098Y-87069657D01*
X142705678Y-86920865D01*
X142705675Y-86920861D01*
X142579138Y-86794324D01*
X142579134Y-86794321D01*
X142430342Y-86694901D01*
X142430332Y-86694896D01*
X142265000Y-86626413D01*
X142264992Y-86626411D01*
X142089483Y-86591500D01*
X142089479Y-86591500D01*
X142003411Y-86591500D01*
X141936372Y-86571815D01*
X141915730Y-86555181D01*
X141644819Y-86284270D01*
X141630115Y-86257342D01*
X141613523Y-86231524D01*
X141612631Y-86225323D01*
X141611334Y-86222947D01*
X141608500Y-86196589D01*
X141608500Y-86186663D01*
X141628185Y-86119624D01*
X141680989Y-86073869D01*
X141750147Y-86063925D01*
X141764594Y-86066888D01*
X141765125Y-86067030D01*
X141765128Y-86067032D01*
X141919889Y-86108500D01*
X141919890Y-86108500D01*
X141919892Y-86108500D01*
X148080109Y-86108500D01*
X148080110Y-86108500D01*
X148080111Y-86108500D01*
X148180869Y-86081502D01*
X148234873Y-86067032D01*
X148236998Y-86065804D01*
X148246757Y-86063077D01*
X148256489Y-86063203D01*
X148280138Y-86058499D01*
X148719863Y-86058499D01*
X148757019Y-86065889D01*
X148757277Y-86064928D01*
X148765126Y-86067031D01*
X148765128Y-86067032D01*
X148919889Y-86108500D01*
X148919890Y-86108500D01*
X149080110Y-86108500D01*
X150526446Y-86108500D01*
X150593485Y-86128185D01*
X150626763Y-86159614D01*
X150640195Y-86178102D01*
X150686928Y-86242426D01*
X150832571Y-86388069D01*
X150832576Y-86388073D01*
X150971545Y-86489039D01*
X150999197Y-86509129D01*
X151109601Y-86565383D01*
X151182705Y-86602632D01*
X151182707Y-86602632D01*
X151182710Y-86602634D01*
X151249570Y-86624358D01*
X151378591Y-86666280D01*
X151462097Y-86679506D01*
X151582019Y-86698500D01*
X151582020Y-86698500D01*
X151787980Y-86698500D01*
X151787981Y-86698500D01*
X151991408Y-86666280D01*
X152187290Y-86602634D01*
X152370803Y-86509129D01*
X152537430Y-86388068D01*
X152683068Y-86242430D01*
X152804129Y-86075803D01*
X152897634Y-85892290D01*
X152961280Y-85696408D01*
X152974781Y-85611169D01*
X152981422Y-85569240D01*
X152981422Y-85569239D01*
X152993500Y-85492981D01*
X152993500Y-85287019D01*
X152961280Y-85083591D01*
X152897632Y-84887705D01*
X152847862Y-84790028D01*
X152804129Y-84704197D01*
X152769901Y-84657086D01*
X152683073Y-84537576D01*
X152683069Y-84537571D01*
X152537428Y-84391930D01*
X152537423Y-84391926D01*
X152370806Y-84270873D01*
X152370805Y-84270872D01*
X152370803Y-84270871D01*
X152291540Y-84230484D01*
X152240745Y-84182510D01*
X152223950Y-84114689D01*
X152246487Y-84048554D01*
X152291541Y-84009515D01*
X152370803Y-83969129D01*
X152537430Y-83848068D01*
X152683068Y-83702430D01*
X152804129Y-83535803D01*
X152897634Y-83352290D01*
X152961280Y-83156408D01*
X152993500Y-82952981D01*
X152993500Y-82747019D01*
X152969896Y-82597988D01*
X152961280Y-82543591D01*
X152897632Y-82347705D01*
X152857229Y-82268411D01*
X152804129Y-82164197D01*
X152694337Y-82013080D01*
X152683073Y-81997576D01*
X152683069Y-81997571D01*
X152537428Y-81851930D01*
X152537423Y-81851926D01*
X152370806Y-81730873D01*
X152370805Y-81730872D01*
X152370803Y-81730871D01*
X152289740Y-81689567D01*
X152187294Y-81637367D01*
X151991408Y-81573719D01*
X151815794Y-81545905D01*
X151787981Y-81541500D01*
X151582019Y-81541500D01*
X151557550Y-81545375D01*
X151378591Y-81573719D01*
X151182705Y-81637367D01*
X150999193Y-81730873D01*
X150832576Y-81851926D01*
X150832571Y-81851930D01*
X150686930Y-81997571D01*
X150686926Y-81997576D01*
X150565873Y-82164193D01*
X150484551Y-82323795D01*
X150436576Y-82374591D01*
X150374066Y-82391500D01*
X148919889Y-82391500D01*
X148813939Y-82419888D01*
X148813940Y-82419889D01*
X148765126Y-82432968D01*
X148765125Y-82432969D01*
X148626371Y-82513078D01*
X148584267Y-82555182D01*
X148522944Y-82588666D01*
X148496587Y-82591500D01*
X148167727Y-82591500D01*
X148096354Y-82597985D01*
X148096344Y-82597988D01*
X147932090Y-82649171D01*
X147784843Y-82738185D01*
X147728709Y-82794320D01*
X147667846Y-82855182D01*
X147606526Y-82888666D01*
X147580167Y-82891500D01*
X145727675Y-82891500D01*
X145660636Y-82871815D01*
X145639998Y-82855185D01*
X145579135Y-82794322D01*
X145579134Y-82794321D01*
X145579133Y-82794320D01*
X145430342Y-82694901D01*
X145430332Y-82694896D01*
X145265000Y-82626413D01*
X145264992Y-82626411D01*
X145089483Y-82591500D01*
X145089479Y-82591500D01*
X144910521Y-82591500D01*
X144910516Y-82591500D01*
X144735007Y-82626411D01*
X144734999Y-82626413D01*
X144569667Y-82694896D01*
X144569657Y-82694901D01*
X144420865Y-82794321D01*
X144420861Y-82794324D01*
X144294324Y-82920861D01*
X144294321Y-82920865D01*
X144194901Y-83069657D01*
X144194896Y-83069667D01*
X144126413Y-83234999D01*
X144126411Y-83235007D01*
X144091500Y-83410516D01*
X144091500Y-83589483D01*
X144126411Y-83764992D01*
X144126413Y-83765000D01*
X144194896Y-83930332D01*
X144194901Y-83930342D01*
X144294321Y-84079134D01*
X144294324Y-84079138D01*
X144420861Y-84205675D01*
X144420865Y-84205678D01*
X144569657Y-84305098D01*
X144569661Y-84305100D01*
X144569664Y-84305102D01*
X144735000Y-84373587D01*
X144910516Y-84408499D01*
X144910520Y-84408500D01*
X144910521Y-84408500D01*
X145089480Y-84408500D01*
X145089481Y-84408499D01*
X145265000Y-84373587D01*
X145430336Y-84305102D01*
X145579135Y-84205678D01*
X145639995Y-84144817D01*
X145701316Y-84111334D01*
X145727675Y-84108500D01*
X147580167Y-84108500D01*
X147609607Y-84117144D01*
X147639594Y-84123668D01*
X147644609Y-84127422D01*
X147647206Y-84128185D01*
X147667848Y-84144819D01*
X147760347Y-84237318D01*
X147793832Y-84298641D01*
X147788848Y-84368333D01*
X147760348Y-84412680D01*
X147663185Y-84509843D01*
X147574173Y-84657086D01*
X147561864Y-84696589D01*
X147528271Y-84804392D01*
X147489535Y-84862538D01*
X147425510Y-84890512D01*
X147409887Y-84891500D01*
X142303411Y-84891500D01*
X142273970Y-84882855D01*
X142243984Y-84876332D01*
X142238968Y-84872577D01*
X142236372Y-84871815D01*
X142215730Y-84855181D01*
X142144819Y-84784270D01*
X142111334Y-84722947D01*
X142108500Y-84696589D01*
X142108500Y-82919891D01*
X142108500Y-82919889D01*
X142067032Y-82765128D01*
X142026485Y-82694898D01*
X141986922Y-82626373D01*
X141373627Y-82013078D01*
X141234873Y-81932968D01*
X141157491Y-81912234D01*
X141157490Y-81912233D01*
X141100844Y-81897055D01*
X141080111Y-81891500D01*
X141080110Y-81891500D01*
X137426067Y-81891500D01*
X137359028Y-81871815D01*
X137313273Y-81819011D01*
X137303329Y-81749853D01*
X137332354Y-81686297D01*
X137387062Y-81649794D01*
X137410238Y-81642115D01*
X137561152Y-81549030D01*
X137686530Y-81423652D01*
X137779615Y-81272738D01*
X137789143Y-81243984D01*
X137805873Y-81193497D01*
X137845645Y-81136052D01*
X137910160Y-81109228D01*
X137923579Y-81108500D01*
X139419890Y-81108500D01*
X139580110Y-81108500D01*
X141222674Y-81108500D01*
X141289713Y-81128185D01*
X141335468Y-81180989D01*
X141346032Y-81219899D01*
X141352112Y-81279426D01*
X141399904Y-81423652D01*
X141407885Y-81447738D01*
X141500970Y-81598652D01*
X141626348Y-81724030D01*
X141777262Y-81817115D01*
X141945574Y-81872887D01*
X142049455Y-81883500D01*
X142950544Y-81883499D01*
X143054426Y-81872887D01*
X143222738Y-81817115D01*
X143373652Y-81724030D01*
X143499030Y-81598652D01*
X143592115Y-81447738D01*
X143647887Y-81279426D01*
X143658500Y-81175545D01*
X143658500Y-81174986D01*
X144450001Y-81174986D01*
X144460494Y-81277697D01*
X144515641Y-81444119D01*
X144515643Y-81444124D01*
X144607684Y-81593345D01*
X144731654Y-81717315D01*
X144880875Y-81809356D01*
X144880880Y-81809358D01*
X145047302Y-81864505D01*
X145047309Y-81864506D01*
X145150019Y-81874999D01*
X145349999Y-81874999D01*
X145850000Y-81874999D01*
X146049972Y-81874999D01*
X146049986Y-81874998D01*
X146152697Y-81864505D01*
X146319119Y-81809358D01*
X146319124Y-81809356D01*
X146468345Y-81717315D01*
X146592315Y-81593345D01*
X146684356Y-81444124D01*
X146684358Y-81444119D01*
X146739505Y-81277697D01*
X146739506Y-81277690D01*
X146749999Y-81174986D01*
X146750000Y-81174973D01*
X146750000Y-80750000D01*
X145850000Y-80750000D01*
X145850000Y-81874999D01*
X145349999Y-81874999D01*
X145350000Y-81874998D01*
X145350000Y-80750000D01*
X144450001Y-80750000D01*
X144450001Y-81174986D01*
X143658500Y-81174986D01*
X143658499Y-80284270D01*
X143658499Y-79824462D01*
X143658498Y-79824446D01*
X143653968Y-79780103D01*
X143647887Y-79720574D01*
X143592115Y-79552262D01*
X143499030Y-79401348D01*
X143417863Y-79320181D01*
X143384378Y-79258858D01*
X143389362Y-79189166D01*
X143431234Y-79133233D01*
X143496698Y-79108816D01*
X143505544Y-79108500D01*
X144606477Y-79108500D01*
X144673516Y-79128185D01*
X144719271Y-79180989D01*
X144729215Y-79250147D01*
X144700190Y-79313703D01*
X144694158Y-79320181D01*
X144607684Y-79406654D01*
X144515643Y-79555875D01*
X144515641Y-79555880D01*
X144460494Y-79722302D01*
X144460493Y-79722309D01*
X144450000Y-79825013D01*
X144450000Y-80250000D01*
X146749999Y-80250000D01*
X146749999Y-79825028D01*
X146749998Y-79825013D01*
X146739505Y-79722302D01*
X146684358Y-79555880D01*
X146684356Y-79555875D01*
X146592315Y-79406654D01*
X146505842Y-79320181D01*
X146472357Y-79258858D01*
X146477341Y-79189166D01*
X146519213Y-79133233D01*
X146584677Y-79108816D01*
X146593523Y-79108500D01*
X147580109Y-79108500D01*
X147580110Y-79108500D01*
X147580111Y-79108500D01*
X147657491Y-79087766D01*
X147734873Y-79067032D01*
X147873627Y-78986922D01*
X148986922Y-77873627D01*
X149067032Y-77734872D01*
X149108500Y-77580110D01*
X149108500Y-77419889D01*
X149108500Y-70268411D01*
X149128185Y-70201372D01*
X149180989Y-70155617D01*
X149250147Y-70145673D01*
X149313703Y-70174698D01*
X149320181Y-70180730D01*
X149626373Y-70486922D01*
X149626375Y-70486923D01*
X149626379Y-70486926D01*
X149732783Y-70548358D01*
X149732786Y-70548359D01*
X149765125Y-70567031D01*
X149765127Y-70567031D01*
X149765128Y-70567032D01*
X149919889Y-70608500D01*
X149919890Y-70608500D01*
X150080110Y-70608500D01*
X150374066Y-70608500D01*
X150441105Y-70628185D01*
X150484551Y-70676205D01*
X150554553Y-70813591D01*
X150565873Y-70835806D01*
X150686926Y-71002423D01*
X150686930Y-71002428D01*
X150832571Y-71148069D01*
X150832576Y-71148073D01*
X150905937Y-71201372D01*
X150999197Y-71269129D01*
X151116128Y-71328709D01*
X151182705Y-71362632D01*
X151182707Y-71362632D01*
X151182710Y-71362634D01*
X151287707Y-71396749D01*
X151378591Y-71426280D01*
X151480305Y-71442390D01*
X151582019Y-71458500D01*
X151582020Y-71458500D01*
X151787980Y-71458500D01*
X151787981Y-71458500D01*
X151991408Y-71426280D01*
X152187290Y-71362634D01*
X152370803Y-71269129D01*
X152537430Y-71148068D01*
X152683068Y-71002430D01*
X152804129Y-70835803D01*
X152897634Y-70652290D01*
X152961280Y-70456408D01*
X152993500Y-70252981D01*
X152993500Y-70047019D01*
X152970428Y-69901348D01*
X152961280Y-69843591D01*
X152918056Y-69710562D01*
X152897634Y-69647710D01*
X152897632Y-69647707D01*
X152897632Y-69647705D01*
X152838167Y-69531000D01*
X152804129Y-69464197D01*
X152751312Y-69391500D01*
X152683073Y-69297576D01*
X152683069Y-69297571D01*
X152537428Y-69151930D01*
X152537423Y-69151926D01*
X152370806Y-69030873D01*
X152370805Y-69030872D01*
X152370803Y-69030871D01*
X152291540Y-68990484D01*
X152240745Y-68942510D01*
X152223950Y-68874689D01*
X152246487Y-68808554D01*
X152291541Y-68769515D01*
X152370803Y-68729129D01*
X152537430Y-68608068D01*
X152683068Y-68462430D01*
X152804129Y-68295803D01*
X152897634Y-68112290D01*
X152961280Y-67916408D01*
X152993500Y-67712981D01*
X152993500Y-67507019D01*
X152983619Y-67444635D01*
X152961280Y-67303591D01*
X152914340Y-67159126D01*
X152897634Y-67107710D01*
X152897632Y-67107707D01*
X152897632Y-67107705D01*
X152848342Y-67010970D01*
X152804129Y-66924197D01*
X152774235Y-66883051D01*
X152683073Y-66757576D01*
X152683069Y-66757571D01*
X152537428Y-66611930D01*
X152537423Y-66611926D01*
X152370806Y-66490873D01*
X152370805Y-66490872D01*
X152370803Y-66490871D01*
X152293343Y-66451403D01*
X152187294Y-66397367D01*
X152042839Y-66350431D01*
X151985164Y-66310993D01*
X151957966Y-66246634D01*
X151969881Y-66177788D01*
X152017125Y-66126312D01*
X152081158Y-66108500D01*
X158936346Y-66108500D01*
X159003385Y-66128185D01*
X159049140Y-66180989D01*
X159059084Y-66250147D01*
X159030059Y-66313703D01*
X158974665Y-66350431D01*
X158805968Y-66405244D01*
X158623644Y-66498143D01*
X158579077Y-66530523D01*
X158579077Y-66530524D01*
X159258554Y-67210000D01*
X159252339Y-67210000D01*
X159150606Y-67237259D01*
X159059394Y-67289920D01*
X158984920Y-67364394D01*
X158932259Y-67455606D01*
X158905000Y-67557339D01*
X158905000Y-67563553D01*
X158225524Y-66884077D01*
X158225523Y-66884077D01*
X158193143Y-66928644D01*
X158100244Y-67110968D01*
X158037009Y-67305582D01*
X158005000Y-67507682D01*
X158005000Y-67712317D01*
X158037009Y-67914417D01*
X158100244Y-68109031D01*
X158193141Y-68291350D01*
X158193147Y-68291359D01*
X158225523Y-68335921D01*
X158225524Y-68335922D01*
X158905000Y-67656446D01*
X158905000Y-67662661D01*
X158932259Y-67764394D01*
X158984920Y-67855606D01*
X159059394Y-67930080D01*
X159150606Y-67982741D01*
X159252339Y-68010000D01*
X159258553Y-68010000D01*
X158579076Y-68689474D01*
X158623652Y-68721861D01*
X158707818Y-68764745D01*
X158758614Y-68812719D01*
X158775410Y-68880540D01*
X158752873Y-68946675D01*
X158707820Y-68985714D01*
X158619195Y-69030871D01*
X158452576Y-69151926D01*
X158452571Y-69151930D01*
X158306930Y-69297571D01*
X158306926Y-69297576D01*
X158185873Y-69464193D01*
X158092367Y-69647705D01*
X158028719Y-69843591D01*
X157996500Y-70047019D01*
X157996500Y-70252980D01*
X158028719Y-70456408D01*
X158092367Y-70652294D01*
X158104551Y-70676205D01*
X158174553Y-70813591D01*
X158185873Y-70835806D01*
X158306926Y-71002423D01*
X158306930Y-71002428D01*
X158452571Y-71148069D01*
X158452576Y-71148073D01*
X158525937Y-71201372D01*
X158619197Y-71269129D01*
X158736128Y-71328709D01*
X158802705Y-71362632D01*
X158802707Y-71362632D01*
X158802710Y-71362634D01*
X158907707Y-71396749D01*
X158998591Y-71426280D01*
X159100305Y-71442390D01*
X159202019Y-71458500D01*
X159202020Y-71458500D01*
X159407980Y-71458500D01*
X159407981Y-71458500D01*
X159611408Y-71426280D01*
X159807290Y-71362634D01*
X159990803Y-71269129D01*
X160157430Y-71148068D01*
X160160679Y-71144819D01*
X160222002Y-71111334D01*
X160248360Y-71108500D01*
X161080109Y-71108500D01*
X161080110Y-71108500D01*
X161080111Y-71108500D01*
X161157491Y-71087766D01*
X161234873Y-71067032D01*
X161373627Y-70986922D01*
X162486922Y-69873627D01*
X162567032Y-69734872D01*
X162598749Y-69616501D01*
X162608500Y-69580111D01*
X162608500Y-66419889D01*
X162567032Y-66265128D01*
X162564075Y-66260007D01*
X162501606Y-66151807D01*
X162501605Y-66151805D01*
X162486924Y-66126376D01*
X162486920Y-66126371D01*
X161448230Y-65087681D01*
X161414745Y-65026358D01*
X161419729Y-64956666D01*
X161448230Y-64912319D01*
X161952451Y-64408098D01*
X162486922Y-63873627D01*
X162567032Y-63734872D01*
X162608500Y-63580110D01*
X162608500Y-63419889D01*
X162608500Y-62803411D01*
X162628185Y-62736372D01*
X162644819Y-62715730D01*
X163215730Y-62144819D01*
X163277053Y-62111334D01*
X163303411Y-62108500D01*
X169580109Y-62108500D01*
X169580110Y-62108500D01*
X169580111Y-62108500D01*
X169657491Y-62087766D01*
X169734873Y-62067032D01*
X169873627Y-61986922D01*
X170986922Y-60873627D01*
X171067032Y-60734872D01*
X171096104Y-60626372D01*
X171096110Y-60626352D01*
X171101443Y-60606446D01*
X171108500Y-60580111D01*
X171108500Y-59419889D01*
X171067032Y-59265128D01*
X171033277Y-59206662D01*
X170986922Y-59126373D01*
X169873627Y-58013078D01*
X169734873Y-57932968D01*
X169645728Y-57909082D01*
X169645725Y-57909081D01*
X169615704Y-57901037D01*
X169580111Y-57891500D01*
X169580110Y-57891500D01*
X169215732Y-57891500D01*
X169148693Y-57871815D01*
X169117357Y-57842987D01*
X169096779Y-57816170D01*
X169091157Y-57808843D01*
X168969268Y-57715314D01*
X168827324Y-57656519D01*
X168813064Y-57654641D01*
X168713251Y-57641500D01*
X168713244Y-57641500D01*
X167856756Y-57641500D01*
X167856748Y-57641500D01*
X167742676Y-57656519D01*
X167742672Y-57656520D01*
X167732448Y-57660755D01*
X167662978Y-57668221D01*
X167637552Y-57660755D01*
X167627327Y-57656520D01*
X167627325Y-57656519D01*
X167627324Y-57656519D01*
X167613064Y-57654641D01*
X167513251Y-57641500D01*
X167513244Y-57641500D01*
X167286756Y-57641500D01*
X167286748Y-57641500D01*
X167172676Y-57656519D01*
X167172675Y-57656519D01*
X167030733Y-57715313D01*
X166991299Y-57745572D01*
X166908843Y-57808843D01*
X166908842Y-57808844D01*
X166908841Y-57808845D01*
X166882643Y-57842987D01*
X166826215Y-57884189D01*
X166784268Y-57891500D01*
X165524772Y-57891500D01*
X165457733Y-57871815D01*
X165411978Y-57819011D01*
X165401414Y-57780101D01*
X165398909Y-57755583D01*
X165397887Y-57745574D01*
X165342115Y-57577262D01*
X165249030Y-57426348D01*
X165123652Y-57300970D01*
X165029898Y-57243142D01*
X164972740Y-57207886D01*
X164972735Y-57207884D01*
X164804427Y-57152113D01*
X164700546Y-57141500D01*
X163799462Y-57141500D01*
X163799446Y-57141501D01*
X163695572Y-57152113D01*
X163527264Y-57207884D01*
X163527259Y-57207886D01*
X163376346Y-57300971D01*
X163250971Y-57426346D01*
X163157886Y-57577259D01*
X163157884Y-57577264D01*
X163102113Y-57745572D01*
X163091500Y-57849447D01*
X163091500Y-59150537D01*
X163091501Y-59150553D01*
X163102113Y-59254427D01*
X163157884Y-59422735D01*
X163157886Y-59422740D01*
X163162575Y-59430342D01*
X163250970Y-59573652D01*
X163376348Y-59699030D01*
X163527262Y-59792115D01*
X163695574Y-59847887D01*
X163799455Y-59858500D01*
X164700544Y-59858499D01*
X164804426Y-59847887D01*
X164972738Y-59792115D01*
X165123652Y-59699030D01*
X165249030Y-59573652D01*
X165342115Y-59422738D01*
X165397887Y-59254426D01*
X165400662Y-59227259D01*
X165401415Y-59219896D01*
X165427812Y-59155205D01*
X165484993Y-59115054D01*
X165524773Y-59108500D01*
X166784268Y-59108500D01*
X166851307Y-59128185D01*
X166882643Y-59157013D01*
X166908843Y-59191157D01*
X167030732Y-59284686D01*
X167172676Y-59343481D01*
X167286756Y-59358500D01*
X167286763Y-59358500D01*
X167513237Y-59358500D01*
X167513244Y-59358500D01*
X167627324Y-59343481D01*
X167637545Y-59339246D01*
X167707013Y-59331777D01*
X167732451Y-59339245D01*
X167742676Y-59343481D01*
X167856756Y-59358500D01*
X167856763Y-59358500D01*
X168713237Y-59358500D01*
X168713244Y-59358500D01*
X168827324Y-59343481D01*
X168969268Y-59284686D01*
X169091157Y-59191157D01*
X169109045Y-59167844D01*
X169165470Y-59126642D01*
X169235216Y-59122487D01*
X169295101Y-59155650D01*
X169855181Y-59715730D01*
X169888666Y-59777053D01*
X169891500Y-59803411D01*
X169891500Y-60196589D01*
X169871815Y-60263628D01*
X169855181Y-60284270D01*
X169284270Y-60855181D01*
X169222947Y-60888666D01*
X169196589Y-60891500D01*
X162919889Y-60891500D01*
X162813939Y-60919888D01*
X162813940Y-60919889D01*
X162765126Y-60932968D01*
X162765125Y-60932969D01*
X162626376Y-61013075D01*
X162626371Y-61013079D01*
X161513080Y-62126370D01*
X161513076Y-62126376D01*
X161432967Y-62265126D01*
X161432968Y-62265126D01*
X161432968Y-62265127D01*
X161391500Y-62419889D01*
X161391500Y-63196589D01*
X161371815Y-63263628D01*
X161355181Y-63284270D01*
X160784270Y-63855181D01*
X160722947Y-63888666D01*
X160696589Y-63891500D01*
X159268411Y-63891500D01*
X159201372Y-63871815D01*
X159155617Y-63819011D01*
X159145673Y-63749853D01*
X159174698Y-63686297D01*
X159180730Y-63679819D01*
X159583496Y-63277053D01*
X159986922Y-62873627D01*
X160067032Y-62734872D01*
X160072161Y-62715730D01*
X160077744Y-62694897D01*
X160090425Y-62647567D01*
X160108500Y-62580111D01*
X160108500Y-61419889D01*
X160067032Y-61265128D01*
X160034338Y-61208500D01*
X159986922Y-61126373D01*
X159373627Y-60513078D01*
X159234873Y-60432968D01*
X159151098Y-60410521D01*
X159151097Y-60410520D01*
X159099131Y-60396596D01*
X159080111Y-60391500D01*
X159080110Y-60391500D01*
X158298171Y-60391500D01*
X158254838Y-60383682D01*
X158159198Y-60348010D01*
X158159199Y-60348010D01*
X158098654Y-60341500D01*
X158098638Y-60341500D01*
X157501362Y-60341500D01*
X157501345Y-60341500D01*
X157440800Y-60348010D01*
X157440798Y-60348011D01*
X157412188Y-60358682D01*
X157368856Y-60366500D01*
X156431144Y-60366500D01*
X156387812Y-60358682D01*
X156359201Y-60348011D01*
X156359199Y-60348010D01*
X156298654Y-60341500D01*
X156298638Y-60341500D01*
X155701362Y-60341500D01*
X155701345Y-60341500D01*
X155640800Y-60348010D01*
X155545162Y-60383682D01*
X155539532Y-60384697D01*
X155536764Y-60386477D01*
X155501829Y-60391500D01*
X155303411Y-60391500D01*
X155236372Y-60371815D01*
X155215730Y-60355181D01*
X155144819Y-60284270D01*
X155111334Y-60222947D01*
X155108500Y-60196589D01*
X155108500Y-59303411D01*
X155128185Y-59236372D01*
X155144819Y-59215730D01*
X155215730Y-59144819D01*
X155277053Y-59111334D01*
X155303411Y-59108500D01*
X159475228Y-59108500D01*
X159542267Y-59128185D01*
X159588022Y-59180989D01*
X159598586Y-59219899D01*
X159602113Y-59254427D01*
X159657884Y-59422735D01*
X159657886Y-59422740D01*
X159662575Y-59430342D01*
X159750970Y-59573652D01*
X159876348Y-59699030D01*
X160027262Y-59792115D01*
X160195574Y-59847887D01*
X160299455Y-59858500D01*
X161200544Y-59858499D01*
X161304426Y-59847887D01*
X161472738Y-59792115D01*
X161623652Y-59699030D01*
X161749030Y-59573652D01*
X161842115Y-59422738D01*
X161897887Y-59254426D01*
X161908500Y-59150545D01*
X161908499Y-57849456D01*
X161897887Y-57745574D01*
X161842115Y-57577262D01*
X161749030Y-57426348D01*
X161623652Y-57300970D01*
X161529898Y-57243142D01*
X161472740Y-57207886D01*
X161472735Y-57207884D01*
X161304427Y-57152113D01*
X161200546Y-57141500D01*
X160299462Y-57141500D01*
X160299446Y-57141501D01*
X160195572Y-57152113D01*
X160027264Y-57207884D01*
X160027259Y-57207886D01*
X159876346Y-57300971D01*
X159750971Y-57426346D01*
X159657886Y-57577259D01*
X159657884Y-57577264D01*
X159602113Y-57745572D01*
X159598585Y-57780104D01*
X159572188Y-57844795D01*
X159515007Y-57884946D01*
X159475227Y-57891500D01*
X155300419Y-57891500D01*
X155233380Y-57871815D01*
X155187625Y-57819011D01*
X155177681Y-57749853D01*
X155194302Y-57703351D01*
X155261917Y-57591500D01*
X155274082Y-57571376D01*
X155322379Y-57416386D01*
X155328500Y-57349030D01*
X155328500Y-56845970D01*
X155322379Y-56778614D01*
X155274082Y-56623624D01*
X155238127Y-56564147D01*
X155220292Y-56496596D01*
X155238127Y-56435852D01*
X155274082Y-56376376D01*
X155322379Y-56221386D01*
X155328500Y-56154030D01*
X155328500Y-55650970D01*
X155322379Y-55583614D01*
X155285875Y-55466469D01*
X155274083Y-55428626D01*
X155274081Y-55428622D01*
X155190100Y-55289699D01*
X155190097Y-55289695D01*
X155144819Y-55244417D01*
X155111334Y-55183094D01*
X155108500Y-55156736D01*
X155108500Y-54919891D01*
X155108500Y-54919889D01*
X155067032Y-54765128D01*
X155056058Y-54746121D01*
X154986923Y-54626375D01*
X154986922Y-54626373D01*
X154986921Y-54626372D01*
X154873628Y-54513079D01*
X154373627Y-54013078D01*
X154234873Y-53932968D01*
X154157491Y-53912234D01*
X154157490Y-53912233D01*
X154100844Y-53897055D01*
X154080111Y-53891500D01*
X154080110Y-53891500D01*
X153303411Y-53891500D01*
X153273970Y-53882855D01*
X153243984Y-53876332D01*
X153238968Y-53872577D01*
X153236372Y-53871815D01*
X153215730Y-53855181D01*
X153198230Y-53837681D01*
X153164745Y-53776358D01*
X153169729Y-53706666D01*
X153198230Y-53662319D01*
X153215730Y-53644819D01*
X153277053Y-53611334D01*
X153303411Y-53608500D01*
X157172674Y-53608500D01*
X157239713Y-53628185D01*
X157285468Y-53680989D01*
X157296032Y-53719899D01*
X157302112Y-53779426D01*
X157346120Y-53912233D01*
X157357885Y-53947738D01*
X157450970Y-54098652D01*
X157576348Y-54224030D01*
X157727262Y-54317115D01*
X157895574Y-54372887D01*
X157999455Y-54383500D01*
X158900544Y-54383499D01*
X159004426Y-54372887D01*
X159172738Y-54317115D01*
X159323652Y-54224030D01*
X159449030Y-54098652D01*
X159542115Y-53947738D01*
X159597887Y-53779426D01*
X159608500Y-53675545D01*
X159608500Y-53674986D01*
X160400001Y-53674986D01*
X160410494Y-53777697D01*
X160465641Y-53944119D01*
X160465643Y-53944124D01*
X160557684Y-54093345D01*
X160681654Y-54217315D01*
X160830875Y-54309356D01*
X160830880Y-54309358D01*
X160997302Y-54364505D01*
X160997309Y-54364506D01*
X161100019Y-54374999D01*
X161299999Y-54374999D01*
X161800000Y-54374999D01*
X161999972Y-54374999D01*
X161999986Y-54374998D01*
X162102697Y-54364505D01*
X162269119Y-54309358D01*
X162269124Y-54309356D01*
X162418345Y-54217315D01*
X162542315Y-54093345D01*
X162634356Y-53944124D01*
X162634358Y-53944119D01*
X162689505Y-53777697D01*
X162689506Y-53777690D01*
X162699999Y-53674986D01*
X162700000Y-53674973D01*
X162700000Y-53250000D01*
X161800000Y-53250000D01*
X161800000Y-54374999D01*
X161299999Y-54374999D01*
X161300000Y-54374998D01*
X161300000Y-53250000D01*
X160400001Y-53250000D01*
X160400001Y-53674986D01*
X159608500Y-53674986D01*
X159608499Y-52325013D01*
X160400000Y-52325013D01*
X160400000Y-52750000D01*
X161300000Y-52750000D01*
X161800000Y-52750000D01*
X162699999Y-52750000D01*
X162699999Y-52325028D01*
X162699998Y-52325013D01*
X162689505Y-52222302D01*
X162634358Y-52055880D01*
X162634356Y-52055875D01*
X162542315Y-51906654D01*
X162418345Y-51782684D01*
X162269124Y-51690643D01*
X162269119Y-51690641D01*
X162102697Y-51635494D01*
X162102690Y-51635493D01*
X161999986Y-51625000D01*
X161800000Y-51625000D01*
X161800000Y-52750000D01*
X161300000Y-52750000D01*
X161300000Y-51625000D01*
X161100029Y-51625000D01*
X161100012Y-51625001D01*
X160997302Y-51635494D01*
X160830880Y-51690641D01*
X160830875Y-51690643D01*
X160681654Y-51782684D01*
X160557684Y-51906654D01*
X160465643Y-52055875D01*
X160465641Y-52055880D01*
X160410494Y-52222302D01*
X160410493Y-52222309D01*
X160400000Y-52325013D01*
X159608499Y-52325013D01*
X159608499Y-52324456D01*
X159597887Y-52220574D01*
X159542115Y-52052262D01*
X159449030Y-51901348D01*
X159323652Y-51775970D01*
X159185316Y-51690643D01*
X159172740Y-51682886D01*
X159172735Y-51682884D01*
X159004427Y-51627113D01*
X158900546Y-51616500D01*
X157999462Y-51616500D01*
X157999446Y-51616501D01*
X157895572Y-51627113D01*
X157727264Y-51682884D01*
X157727259Y-51682886D01*
X157576346Y-51775971D01*
X157450971Y-51901346D01*
X157357886Y-52052259D01*
X157357884Y-52052264D01*
X157302113Y-52220573D01*
X157296031Y-52280103D01*
X157269634Y-52344795D01*
X157212454Y-52384946D01*
X157172673Y-52391500D01*
X152919889Y-52391500D01*
X152765128Y-52432968D01*
X152765125Y-52432969D01*
X152626376Y-52513075D01*
X152626371Y-52513079D01*
X152013080Y-53126370D01*
X152013076Y-53126376D01*
X151932967Y-53265126D01*
X151932968Y-53265126D01*
X151932968Y-53265127D01*
X151897531Y-53397382D01*
X151891500Y-53419889D01*
X151891500Y-54080111D01*
X151899107Y-54108500D01*
X151932968Y-54234873D01*
X152013078Y-54373627D01*
X152013080Y-54373629D01*
X152051770Y-54412319D01*
X152085255Y-54473642D01*
X152080271Y-54543334D01*
X152051770Y-54587681D01*
X152013080Y-54626370D01*
X152013076Y-54626376D01*
X151932967Y-54765126D01*
X151932968Y-54765126D01*
X151932968Y-54765127D01*
X151891500Y-54919889D01*
X151891500Y-61080111D01*
X151899107Y-61108501D01*
X151933111Y-61235407D01*
X151931448Y-61305257D01*
X151892285Y-61363119D01*
X151828057Y-61390623D01*
X151813336Y-61391500D01*
X151303411Y-61391500D01*
X151236372Y-61371815D01*
X151215730Y-61355181D01*
X150644819Y-60784270D01*
X150611334Y-60722947D01*
X150608500Y-60696589D01*
X150608500Y-59727675D01*
X150628185Y-59660636D01*
X150644814Y-59639998D01*
X150705678Y-59579135D01*
X150805102Y-59430336D01*
X150873587Y-59265000D01*
X150908500Y-59089479D01*
X150908500Y-58910521D01*
X150873587Y-58735000D01*
X150805102Y-58569664D01*
X150805100Y-58569661D01*
X150805098Y-58569657D01*
X150705678Y-58420865D01*
X150705675Y-58420861D01*
X150579138Y-58294324D01*
X150579134Y-58294321D01*
X150430342Y-58194901D01*
X150430332Y-58194896D01*
X150265000Y-58126413D01*
X150264992Y-58126411D01*
X150089483Y-58091500D01*
X150089479Y-58091500D01*
X149910521Y-58091500D01*
X149910516Y-58091500D01*
X149735007Y-58126411D01*
X149734999Y-58126413D01*
X149569667Y-58194896D01*
X149569657Y-58194901D01*
X149420865Y-58294321D01*
X149420861Y-58294324D01*
X149294324Y-58420861D01*
X149294321Y-58420865D01*
X149194901Y-58569657D01*
X149194896Y-58569667D01*
X149126413Y-58734999D01*
X149126411Y-58735007D01*
X149091500Y-58910516D01*
X149091500Y-58931589D01*
X149071815Y-58998628D01*
X149019011Y-59044383D01*
X148949853Y-59054327D01*
X148886297Y-59025302D01*
X148879819Y-59019270D01*
X148444819Y-58584270D01*
X148411334Y-58522947D01*
X148408500Y-58496589D01*
X148408500Y-58410520D01*
X148408499Y-58410516D01*
X148385387Y-58294322D01*
X148373587Y-58235000D01*
X148305102Y-58069664D01*
X148305100Y-58069661D01*
X148305098Y-58069657D01*
X148205678Y-57920865D01*
X148205675Y-57920861D01*
X148079138Y-57794324D01*
X148079134Y-57794321D01*
X147930342Y-57694901D01*
X147930332Y-57694896D01*
X147765000Y-57626413D01*
X147764992Y-57626411D01*
X147589483Y-57591500D01*
X147589479Y-57591500D01*
X147410521Y-57591500D01*
X147410516Y-57591500D01*
X147235007Y-57626411D01*
X147234999Y-57626413D01*
X147069667Y-57694896D01*
X147069657Y-57694901D01*
X146920865Y-57794321D01*
X146920861Y-57794324D01*
X146820181Y-57895005D01*
X146758858Y-57928490D01*
X146689166Y-57923506D01*
X146633233Y-57881634D01*
X146608816Y-57816170D01*
X146608500Y-57807324D01*
X146608500Y-56637486D01*
X147300001Y-56637486D01*
X147310494Y-56740197D01*
X147365641Y-56906619D01*
X147365643Y-56906624D01*
X147457684Y-57055845D01*
X147581654Y-57179815D01*
X147730875Y-57271856D01*
X147730880Y-57271858D01*
X147897302Y-57327005D01*
X147897309Y-57327006D01*
X148000019Y-57337499D01*
X148249999Y-57337499D01*
X148750000Y-57337499D01*
X148999972Y-57337499D01*
X148999986Y-57337498D01*
X149102697Y-57327005D01*
X149269119Y-57271858D01*
X149269124Y-57271856D01*
X149418345Y-57179815D01*
X149542315Y-57055845D01*
X149634356Y-56906624D01*
X149634358Y-56906619D01*
X149689505Y-56740197D01*
X149689506Y-56740190D01*
X149699999Y-56637486D01*
X149700000Y-56637473D01*
X149700000Y-56575000D01*
X148750000Y-56575000D01*
X148750000Y-57337499D01*
X148249999Y-57337499D01*
X148250000Y-57337498D01*
X148250000Y-56575000D01*
X147300001Y-56575000D01*
X147300001Y-56637486D01*
X146608500Y-56637486D01*
X146608500Y-54303411D01*
X146628185Y-54236372D01*
X146644819Y-54215730D01*
X147215730Y-53644819D01*
X147242657Y-53630115D01*
X147268476Y-53613523D01*
X147274676Y-53612631D01*
X147277053Y-53611334D01*
X147303411Y-53608500D01*
X147324615Y-53608500D01*
X147391654Y-53628185D01*
X147437409Y-53680989D01*
X147447353Y-53750147D01*
X147430153Y-53797597D01*
X147357889Y-53914753D01*
X147357884Y-53914764D01*
X147302113Y-54083072D01*
X147291500Y-54186947D01*
X147291500Y-54813037D01*
X147291501Y-54813053D01*
X147302113Y-54916927D01*
X147307429Y-54932969D01*
X147357885Y-55085238D01*
X147447220Y-55230073D01*
X147450971Y-55236153D01*
X147545647Y-55330829D01*
X147579132Y-55392152D01*
X147574148Y-55461844D01*
X147545648Y-55506191D01*
X147457682Y-55594157D01*
X147365643Y-55743375D01*
X147365641Y-55743380D01*
X147310494Y-55909802D01*
X147310493Y-55909809D01*
X147300000Y-56012513D01*
X147300000Y-56075000D01*
X149699999Y-56075000D01*
X149699999Y-56012528D01*
X149699998Y-56012513D01*
X149689505Y-55909802D01*
X149634358Y-55743380D01*
X149634356Y-55743375D01*
X149542315Y-55594154D01*
X149454352Y-55506191D01*
X149420867Y-55444868D01*
X149425851Y-55375176D01*
X149454348Y-55330833D01*
X149549030Y-55236152D01*
X149642115Y-55085238D01*
X149697887Y-54916926D01*
X149708500Y-54813045D01*
X149708499Y-54186956D01*
X149697887Y-54083074D01*
X149642115Y-53914762D01*
X149549030Y-53763848D01*
X149423652Y-53638470D01*
X149272738Y-53545385D01*
X149193495Y-53519126D01*
X149136051Y-53479354D01*
X149109228Y-53414838D01*
X149108500Y-53401421D01*
X149108500Y-52598578D01*
X149128185Y-52531539D01*
X149180989Y-52485784D01*
X149193481Y-52480877D01*
X149272738Y-52454615D01*
X149423652Y-52361530D01*
X149549030Y-52236152D01*
X149642115Y-52085238D01*
X149697887Y-51916926D01*
X149708500Y-51813045D01*
X149708499Y-51186956D01*
X149697887Y-51083074D01*
X149642115Y-50914762D01*
X149549030Y-50763848D01*
X149460363Y-50675181D01*
X149426878Y-50613858D01*
X149431862Y-50544166D01*
X149460363Y-50499819D01*
X149549030Y-50411152D01*
X149642115Y-50260238D01*
X149642117Y-50260233D01*
X149664231Y-50193497D01*
X149704003Y-50136052D01*
X149768518Y-50109228D01*
X149781937Y-50108500D01*
X153272325Y-50108500D01*
X153339364Y-50128185D01*
X153360001Y-50144814D01*
X153391392Y-50176205D01*
X153420866Y-50205679D01*
X153569657Y-50305098D01*
X153569661Y-50305100D01*
X153569664Y-50305102D01*
X153735000Y-50373587D01*
X153910516Y-50408499D01*
X153910520Y-50408500D01*
X153910521Y-50408500D01*
X154089480Y-50408500D01*
X154089481Y-50408499D01*
X154265000Y-50373587D01*
X154430336Y-50305102D01*
X154579135Y-50205678D01*
X154705678Y-50079135D01*
X154805102Y-49930336D01*
X154873587Y-49765000D01*
X154908500Y-49589479D01*
X154908500Y-49410521D01*
X154873587Y-49235000D01*
X154805102Y-49069664D01*
X154805100Y-49069661D01*
X154805098Y-49069657D01*
X154705678Y-48920865D01*
X154705675Y-48920861D01*
X154579138Y-48794324D01*
X154579134Y-48794321D01*
X154430342Y-48694901D01*
X154430332Y-48694896D01*
X154265000Y-48626413D01*
X154264992Y-48626411D01*
X154089483Y-48591500D01*
X154089479Y-48591500D01*
X153910521Y-48591500D01*
X153910516Y-48591500D01*
X153735007Y-48626411D01*
X153734999Y-48626413D01*
X153569667Y-48694896D01*
X153569657Y-48694901D01*
X153420866Y-48794320D01*
X153405524Y-48809663D01*
X153360004Y-48855182D01*
X153298684Y-48888666D01*
X153272325Y-48891500D01*
X149553044Y-48891500D01*
X149486005Y-48871815D01*
X149465363Y-48855181D01*
X149423653Y-48813471D01*
X149423652Y-48813470D01*
X149272738Y-48720385D01*
X149272735Y-48720384D01*
X149104427Y-48664613D01*
X149000546Y-48654000D01*
X147999462Y-48654000D01*
X147999446Y-48654001D01*
X147895572Y-48664613D01*
X147727264Y-48720384D01*
X147727259Y-48720386D01*
X147576346Y-48813471D01*
X147534637Y-48855181D01*
X147473314Y-48888666D01*
X147446956Y-48891500D01*
X142692676Y-48891500D01*
X142625637Y-48871815D01*
X142579882Y-48819011D01*
X142569938Y-48749853D01*
X142598963Y-48686297D01*
X142604995Y-48679819D01*
X142705675Y-48579138D01*
X142705678Y-48579135D01*
X142805102Y-48430336D01*
X142873587Y-48265000D01*
X142908500Y-48089479D01*
X142908500Y-47910521D01*
X142873587Y-47735000D01*
X142805102Y-47569664D01*
X142805100Y-47569661D01*
X142805098Y-47569657D01*
X142705678Y-47420865D01*
X142705675Y-47420861D01*
X142644819Y-47360005D01*
X142611334Y-47298682D01*
X142608500Y-47272324D01*
X142608500Y-41919891D01*
X142608500Y-41919889D01*
X142567032Y-41765128D01*
X142497571Y-41644819D01*
X142486923Y-41626375D01*
X142486922Y-41626373D01*
X142486921Y-41626372D01*
X142373628Y-41513079D01*
X141373627Y-40513078D01*
X141234873Y-40432968D01*
X141143556Y-40408500D01*
X141143555Y-40408499D01*
X141097110Y-40396054D01*
X141080111Y-40391500D01*
X135919889Y-40391500D01*
X135802265Y-40423017D01*
X135802264Y-40423016D01*
X135765132Y-40432966D01*
X135765125Y-40432969D01*
X135626376Y-40513075D01*
X135626371Y-40513079D01*
X134513080Y-41626370D01*
X134513076Y-41626376D01*
X134432967Y-41765126D01*
X134432968Y-41765126D01*
X134432968Y-41765127D01*
X134391500Y-41919889D01*
X134391500Y-42951827D01*
X134383682Y-42995161D01*
X134348010Y-43090798D01*
X134341500Y-43151345D01*
X134341500Y-44848654D01*
X134348011Y-44909202D01*
X134348011Y-44909204D01*
X134391557Y-45025951D01*
X134399111Y-45046204D01*
X134486739Y-45163261D01*
X134603796Y-45250889D01*
X134718297Y-45293596D01*
X134735463Y-45299999D01*
X134740799Y-45301989D01*
X134768050Y-45304918D01*
X134801345Y-45308499D01*
X134801362Y-45308500D01*
X135398638Y-45308500D01*
X135398654Y-45308499D01*
X135425692Y-45305591D01*
X135459201Y-45301989D01*
X135464537Y-45299999D01*
X135481703Y-45293596D01*
X135596204Y-45250889D01*
X135713261Y-45163261D01*
X135800889Y-45046204D01*
X135800889Y-45046202D01*
X135806041Y-45039321D01*
X135861975Y-44997450D01*
X135931666Y-44992466D01*
X135992989Y-45025951D01*
X136004574Y-45039321D01*
X136092809Y-45157187D01*
X136092812Y-45157190D01*
X136207906Y-45243350D01*
X136207913Y-45243354D01*
X136342620Y-45293596D01*
X136342627Y-45293598D01*
X136402155Y-45299999D01*
X136402172Y-45300000D01*
X136450000Y-45300000D01*
X136450000Y-42700000D01*
X136402155Y-42700000D01*
X136342627Y-42706401D01*
X136342620Y-42706403D01*
X136207913Y-42756645D01*
X136207906Y-42756649D01*
X136092812Y-42842809D01*
X136004574Y-42960679D01*
X135948640Y-43002549D01*
X135878948Y-43007533D01*
X135817626Y-42974047D01*
X135806041Y-42960678D01*
X135794037Y-42944643D01*
X135713261Y-42836739D01*
X135658189Y-42795512D01*
X135616318Y-42739578D01*
X135608500Y-42696245D01*
X135608500Y-42303411D01*
X135628185Y-42236372D01*
X135644819Y-42215730D01*
X136215730Y-41644819D01*
X136277053Y-41611334D01*
X136303411Y-41608500D01*
X140696589Y-41608500D01*
X140763628Y-41628185D01*
X140784270Y-41644819D01*
X141355181Y-42215730D01*
X141369884Y-42242657D01*
X141386477Y-42268476D01*
X141387368Y-42274676D01*
X141388666Y-42277053D01*
X141391500Y-42303411D01*
X141391500Y-42500480D01*
X141371815Y-42567519D01*
X141319011Y-42613274D01*
X141249853Y-42623218D01*
X141243310Y-42622098D01*
X141126502Y-42598864D01*
X141089479Y-42591500D01*
X140910521Y-42591500D01*
X140910516Y-42591500D01*
X140735007Y-42626411D01*
X140734999Y-42626413D01*
X140569667Y-42694896D01*
X140569657Y-42694901D01*
X140420866Y-42794320D01*
X140390436Y-42824750D01*
X140360004Y-42855182D01*
X140298684Y-42888666D01*
X140272325Y-42891500D01*
X139016324Y-42891500D01*
X138949285Y-42871815D01*
X138917057Y-42841810D01*
X138913262Y-42836740D01*
X138913259Y-42836738D01*
X138796204Y-42749111D01*
X138659203Y-42698011D01*
X138598654Y-42691500D01*
X138598638Y-42691500D01*
X138001362Y-42691500D01*
X138001345Y-42691500D01*
X137940797Y-42698011D01*
X137940795Y-42698011D01*
X137803795Y-42749111D01*
X137686736Y-42836741D01*
X137593957Y-42960678D01*
X137538023Y-43002549D01*
X137468332Y-43007533D01*
X137407009Y-42974047D01*
X137395425Y-42960678D01*
X137307190Y-42842812D01*
X137307187Y-42842809D01*
X137192093Y-42756649D01*
X137192086Y-42756645D01*
X137057379Y-42706403D01*
X137057372Y-42706401D01*
X136997844Y-42700000D01*
X136950000Y-42700000D01*
X136950000Y-45300000D01*
X136997828Y-45300000D01*
X136997844Y-45299999D01*
X137057372Y-45293598D01*
X137057379Y-45293596D01*
X137192086Y-45243354D01*
X137192093Y-45243350D01*
X137307186Y-45157191D01*
X137395424Y-45039321D01*
X137451358Y-44997450D01*
X137521050Y-44992466D01*
X137582373Y-45025951D01*
X137593958Y-45039321D01*
X137599111Y-45046204D01*
X137686739Y-45163261D01*
X137803796Y-45250889D01*
X137918297Y-45293596D01*
X137935463Y-45299999D01*
X137940799Y-45301989D01*
X137968050Y-45304918D01*
X138001345Y-45308499D01*
X138001362Y-45308500D01*
X138598638Y-45308500D01*
X138598654Y-45308499D01*
X138625692Y-45305591D01*
X138659201Y-45301989D01*
X138664537Y-45299999D01*
X138681703Y-45293596D01*
X138796204Y-45250889D01*
X138913261Y-45163261D01*
X139000889Y-45046204D01*
X139051989Y-44909201D01*
X139055823Y-44873536D01*
X139058499Y-44848654D01*
X139058500Y-44848637D01*
X139058500Y-44232500D01*
X139078185Y-44165461D01*
X139130989Y-44119706D01*
X139182500Y-44108500D01*
X140272325Y-44108500D01*
X140339364Y-44128185D01*
X140360001Y-44144814D01*
X140420865Y-44205678D01*
X140420866Y-44205679D01*
X140569657Y-44305098D01*
X140569661Y-44305100D01*
X140569664Y-44305102D01*
X140735000Y-44373587D01*
X140910516Y-44408499D01*
X140910520Y-44408500D01*
X140910521Y-44408500D01*
X141089480Y-44408500D01*
X141089481Y-44408499D01*
X141139145Y-44398620D01*
X141243309Y-44377902D01*
X141312901Y-44384129D01*
X141368078Y-44426992D01*
X141391322Y-44492882D01*
X141391500Y-44499519D01*
X141391500Y-47272324D01*
X141371815Y-47339363D01*
X141355181Y-47360005D01*
X141294324Y-47420861D01*
X141294321Y-47420865D01*
X141194901Y-47569657D01*
X141194896Y-47569667D01*
X141126413Y-47734999D01*
X141126411Y-47735007D01*
X141091500Y-47910516D01*
X141091500Y-48089483D01*
X141126411Y-48264992D01*
X141126413Y-48265000D01*
X141194896Y-48430332D01*
X141194901Y-48430342D01*
X141294321Y-48579134D01*
X141294324Y-48579138D01*
X141395005Y-48679819D01*
X141428490Y-48741142D01*
X141423506Y-48810834D01*
X141381634Y-48866767D01*
X141316170Y-48891184D01*
X141307324Y-48891500D01*
X139732500Y-48891500D01*
X139665461Y-48871815D01*
X139619706Y-48819011D01*
X139608500Y-48767500D01*
X139608500Y-47951362D01*
X139608499Y-47951345D01*
X139604109Y-47910520D01*
X139601989Y-47890799D01*
X139550889Y-47753796D01*
X139463261Y-47636739D01*
X139346204Y-47549111D01*
X139275477Y-47522730D01*
X139219544Y-47480858D01*
X139195128Y-47415393D01*
X139209981Y-47347120D01*
X139231132Y-47318867D01*
X139249999Y-47300000D01*
X139750000Y-47300000D01*
X139997828Y-47300000D01*
X139997844Y-47299999D01*
X140057372Y-47293598D01*
X140057379Y-47293596D01*
X140192086Y-47243354D01*
X140192093Y-47243350D01*
X140307187Y-47157190D01*
X140307190Y-47157187D01*
X140393350Y-47042093D01*
X140393354Y-47042086D01*
X140443596Y-46907379D01*
X140443598Y-46907372D01*
X140449999Y-46847844D01*
X140450000Y-46847827D01*
X140450000Y-46750000D01*
X139750000Y-46750000D01*
X139750000Y-47300000D01*
X139249999Y-47300000D01*
X139250000Y-47299999D01*
X139250000Y-46750000D01*
X138550000Y-46750000D01*
X138550000Y-46847844D01*
X138556401Y-46907372D01*
X138556403Y-46907379D01*
X138606645Y-47042086D01*
X138606649Y-47042093D01*
X138692809Y-47157187D01*
X138692812Y-47157190D01*
X138807906Y-47243350D01*
X138807913Y-47243354D01*
X138829265Y-47251318D01*
X138885199Y-47293189D01*
X138909616Y-47358654D01*
X138894764Y-47426927D01*
X138845359Y-47476332D01*
X138785932Y-47491500D01*
X137251345Y-47491500D01*
X137190797Y-47498011D01*
X137190795Y-47498011D01*
X137053795Y-47549111D01*
X136936739Y-47636739D01*
X136849111Y-47753795D01*
X136816181Y-47842082D01*
X136774309Y-47898015D01*
X136708845Y-47922431D01*
X136640572Y-47907578D01*
X136591167Y-47858173D01*
X136583819Y-47842082D01*
X136566595Y-47795907D01*
X136550889Y-47753796D01*
X136463261Y-47636739D01*
X136346204Y-47549111D01*
X136209203Y-47498011D01*
X136148654Y-47491500D01*
X136148638Y-47491500D01*
X134614068Y-47491500D01*
X134547029Y-47471815D01*
X134501274Y-47419011D01*
X134491330Y-47349853D01*
X134520355Y-47286297D01*
X134570735Y-47251318D01*
X134592086Y-47243354D01*
X134592093Y-47243350D01*
X134707187Y-47157190D01*
X134707190Y-47157187D01*
X134793350Y-47042093D01*
X134793354Y-47042086D01*
X134843596Y-46907379D01*
X134843598Y-46907372D01*
X134849999Y-46847844D01*
X134850000Y-46847827D01*
X134850000Y-46750000D01*
X134150000Y-46750000D01*
X134150000Y-47300000D01*
X134168868Y-47318868D01*
X134202353Y-47380191D01*
X134197369Y-47449883D01*
X134155497Y-47505816D01*
X134124523Y-47522730D01*
X134053794Y-47549111D01*
X133936739Y-47636739D01*
X133849111Y-47753795D01*
X133798011Y-47890795D01*
X133798011Y-47890797D01*
X133791500Y-47951345D01*
X133791500Y-48767500D01*
X133771815Y-48834539D01*
X133719011Y-48880294D01*
X133667500Y-48891500D01*
X129217867Y-48891500D01*
X129150828Y-48871815D01*
X129107383Y-48823795D01*
X129100185Y-48809668D01*
X128960620Y-48617573D01*
X128792722Y-48449675D01*
X128600627Y-48310110D01*
X128389067Y-48202314D01*
X128163241Y-48128938D01*
X127928727Y-48091795D01*
X127928722Y-48091795D01*
X127691278Y-48091795D01*
X127691273Y-48091795D01*
X127456758Y-48128938D01*
X127230932Y-48202314D01*
X127019372Y-48310110D01*
X126827275Y-48449677D01*
X126659382Y-48617570D01*
X126519815Y-48809667D01*
X126412019Y-49021227D01*
X126338643Y-49247053D01*
X126301500Y-49481567D01*
X126301500Y-49719022D01*
X126338643Y-49953536D01*
X126412019Y-50179362D01*
X126476088Y-50305103D01*
X126519815Y-50390922D01*
X126659380Y-50583017D01*
X126827278Y-50750915D01*
X127019373Y-50890480D01*
X127119328Y-50941409D01*
X127230932Y-50998275D01*
X127230934Y-50998275D01*
X127230937Y-50998277D01*
X127351984Y-51037607D01*
X127456758Y-51071651D01*
X127691273Y-51108795D01*
X127691278Y-51108795D01*
X127928727Y-51108795D01*
X128163241Y-51071651D01*
X128389063Y-50998277D01*
X128600627Y-50890480D01*
X128792722Y-50750915D01*
X128960620Y-50583017D01*
X129100185Y-50390922D01*
X129174615Y-50244842D01*
X129209589Y-50176205D01*
X129257564Y-50125409D01*
X129320074Y-50108500D01*
X133955900Y-50108500D01*
X134022939Y-50128185D01*
X134030211Y-50133234D01*
X134053792Y-50150887D01*
X134053793Y-50150888D01*
X134130124Y-50179358D01*
X134190799Y-50201989D01*
X134218050Y-50204918D01*
X134251345Y-50208499D01*
X134251362Y-50208500D01*
X136148638Y-50208500D01*
X136148654Y-50208499D01*
X136175692Y-50205591D01*
X136209201Y-50201989D01*
X136346204Y-50150889D01*
X136463261Y-50063261D01*
X136550889Y-49946204D01*
X136583819Y-49857917D01*
X136625690Y-49801984D01*
X136691155Y-49777568D01*
X136759428Y-49792420D01*
X136808833Y-49841826D01*
X136816181Y-49857917D01*
X136849111Y-49946204D01*
X136936739Y-50063261D01*
X137053796Y-50150889D01*
X137190799Y-50201989D01*
X137218050Y-50204918D01*
X137251345Y-50208499D01*
X137251362Y-50208500D01*
X139148638Y-50208500D01*
X139148654Y-50208499D01*
X139175692Y-50205591D01*
X139209201Y-50201989D01*
X139346204Y-50150889D01*
X139346204Y-50150888D01*
X139346206Y-50150888D01*
X139346207Y-50150887D01*
X139369789Y-50133234D01*
X139435253Y-50108816D01*
X139444100Y-50108500D01*
X147218063Y-50108500D01*
X147285102Y-50128185D01*
X147330857Y-50180989D01*
X147335769Y-50193497D01*
X147357882Y-50260233D01*
X147357884Y-50260237D01*
X147357885Y-50260238D01*
X147449334Y-50408500D01*
X147450971Y-50411153D01*
X147539637Y-50499819D01*
X147573122Y-50561142D01*
X147568138Y-50630834D01*
X147539637Y-50675181D01*
X147450971Y-50763846D01*
X147357886Y-50914759D01*
X147357884Y-50914764D01*
X147302113Y-51083072D01*
X147291500Y-51186947D01*
X147291500Y-51813037D01*
X147291501Y-51813053D01*
X147302113Y-51916927D01*
X147357884Y-52085235D01*
X147357889Y-52085246D01*
X147430153Y-52202403D01*
X147448594Y-52269795D01*
X147427672Y-52336459D01*
X147374030Y-52381229D01*
X147324615Y-52391500D01*
X146919889Y-52391500D01*
X146765128Y-52432968D01*
X146765125Y-52432969D01*
X146626376Y-52513075D01*
X146626371Y-52513079D01*
X145513080Y-53626370D01*
X145513078Y-53626373D01*
X145433708Y-53763846D01*
X145432968Y-53765127D01*
X145412234Y-53842508D01*
X145404381Y-53871815D01*
X145391500Y-53919889D01*
X145391500Y-57807324D01*
X145371815Y-57874363D01*
X145319011Y-57920118D01*
X145249853Y-57930062D01*
X145186297Y-57901037D01*
X145179819Y-57895005D01*
X145079138Y-57794324D01*
X145079134Y-57794321D01*
X144930342Y-57694901D01*
X144930332Y-57694896D01*
X144765000Y-57626413D01*
X144764992Y-57626411D01*
X144589483Y-57591500D01*
X144589479Y-57591500D01*
X144410521Y-57591500D01*
X144410516Y-57591500D01*
X144235007Y-57626411D01*
X144234999Y-57626413D01*
X144069667Y-57694896D01*
X144069657Y-57694901D01*
X143920866Y-57794320D01*
X143901851Y-57813336D01*
X143860004Y-57855182D01*
X143798684Y-57888666D01*
X143772325Y-57891500D01*
X133919889Y-57891500D01*
X133810296Y-57920865D01*
X133764593Y-57933111D01*
X133694743Y-57931448D01*
X133636881Y-57892285D01*
X133609377Y-57828057D01*
X133608500Y-57813336D01*
X133608500Y-56803411D01*
X133628185Y-56736372D01*
X133644819Y-56715730D01*
X134215730Y-56144819D01*
X134242657Y-56130115D01*
X134268476Y-56113523D01*
X134274676Y-56112631D01*
X134277053Y-56111334D01*
X134303411Y-56108500D01*
X134488921Y-56108500D01*
X134555960Y-56128185D01*
X134601715Y-56180989D01*
X134606627Y-56193497D01*
X134632882Y-56272733D01*
X134632884Y-56272737D01*
X134632885Y-56272738D01*
X134725970Y-56423652D01*
X134851348Y-56549030D01*
X135002262Y-56642115D01*
X135170574Y-56697887D01*
X135274455Y-56708500D01*
X135900544Y-56708499D01*
X136004426Y-56697887D01*
X136172738Y-56642115D01*
X136323652Y-56549030D01*
X136412319Y-56460363D01*
X136473642Y-56426878D01*
X136543334Y-56431862D01*
X136587681Y-56460363D01*
X136676348Y-56549030D01*
X136827262Y-56642115D01*
X136995574Y-56697887D01*
X137099455Y-56708500D01*
X137725544Y-56708499D01*
X137829426Y-56697887D01*
X137997738Y-56642115D01*
X138148652Y-56549030D01*
X138274030Y-56423652D01*
X138367115Y-56272738D01*
X138422367Y-56105996D01*
X138462139Y-56048551D01*
X138526655Y-56021728D01*
X138540073Y-56021000D01*
X139272325Y-56021000D01*
X139339364Y-56040685D01*
X139360001Y-56057314D01*
X139396176Y-56093489D01*
X139420866Y-56118179D01*
X139569657Y-56217598D01*
X139569661Y-56217600D01*
X139569664Y-56217602D01*
X139735000Y-56286087D01*
X139884726Y-56315869D01*
X139910516Y-56320999D01*
X139910520Y-56321000D01*
X139910521Y-56321000D01*
X140089480Y-56321000D01*
X140089481Y-56320999D01*
X140265000Y-56286087D01*
X140430336Y-56217602D01*
X140579135Y-56118178D01*
X140639995Y-56057317D01*
X140666926Y-56042611D01*
X140692740Y-56026023D01*
X140698939Y-56025131D01*
X140701316Y-56023834D01*
X140727675Y-56021000D01*
X140784927Y-56021000D01*
X140851966Y-56040685D01*
X140897721Y-56093489D01*
X140902633Y-56105996D01*
X140957884Y-56272735D01*
X140957886Y-56272740D01*
X140987653Y-56320999D01*
X141050970Y-56423652D01*
X141176348Y-56549030D01*
X141327262Y-56642115D01*
X141495574Y-56697887D01*
X141599455Y-56708500D01*
X142400544Y-56708499D01*
X142504426Y-56697887D01*
X142672738Y-56642115D01*
X142823652Y-56549030D01*
X142918332Y-56454349D01*
X142979651Y-56420867D01*
X143049343Y-56425851D01*
X143093691Y-56454352D01*
X143181654Y-56542315D01*
X143330875Y-56634356D01*
X143330880Y-56634358D01*
X143497302Y-56689505D01*
X143497309Y-56689506D01*
X143600019Y-56699999D01*
X143749999Y-56699999D01*
X144250000Y-56699999D01*
X144399972Y-56699999D01*
X144399986Y-56699998D01*
X144502697Y-56689505D01*
X144669119Y-56634358D01*
X144669124Y-56634356D01*
X144818345Y-56542315D01*
X144942315Y-56418345D01*
X145034356Y-56269124D01*
X145034358Y-56269119D01*
X145089505Y-56102697D01*
X145089506Y-56102690D01*
X145099999Y-55999986D01*
X145100000Y-55999973D01*
X145100000Y-55750000D01*
X144250000Y-55750000D01*
X144250000Y-56699999D01*
X143749999Y-56699999D01*
X143750000Y-56699998D01*
X143750000Y-55250000D01*
X144250000Y-55250000D01*
X145099999Y-55250000D01*
X145099999Y-55000028D01*
X145099998Y-55000013D01*
X145089505Y-54897302D01*
X145034358Y-54730880D01*
X145034356Y-54730875D01*
X144942315Y-54581654D01*
X144818345Y-54457684D01*
X144669124Y-54365643D01*
X144669119Y-54365641D01*
X144502697Y-54310494D01*
X144502690Y-54310493D01*
X144399986Y-54300000D01*
X144250000Y-54300000D01*
X144250000Y-55250000D01*
X143750000Y-55250000D01*
X143750000Y-54300000D01*
X143600027Y-54300000D01*
X143600012Y-54300001D01*
X143497302Y-54310494D01*
X143330880Y-54365641D01*
X143330875Y-54365643D01*
X143181657Y-54457682D01*
X143093691Y-54545648D01*
X143032367Y-54579132D01*
X142962676Y-54574148D01*
X142918329Y-54545647D01*
X142823653Y-54450971D01*
X142823652Y-54450970D01*
X142700484Y-54374999D01*
X142672740Y-54357886D01*
X142672735Y-54357884D01*
X142504427Y-54302113D01*
X142400546Y-54291500D01*
X141599462Y-54291500D01*
X141599446Y-54291501D01*
X141495572Y-54302113D01*
X141327264Y-54357884D01*
X141327259Y-54357886D01*
X141176346Y-54450971D01*
X141050971Y-54576346D01*
X140957884Y-54727264D01*
X140955488Y-54732403D01*
X140944024Y-54745422D01*
X140936818Y-54761203D01*
X140921414Y-54771102D01*
X140909316Y-54784843D01*
X140892431Y-54789728D01*
X140878040Y-54798977D01*
X140843105Y-54804000D01*
X140727675Y-54804000D01*
X140660636Y-54784315D01*
X140639998Y-54767685D01*
X140579135Y-54706822D01*
X140579134Y-54706821D01*
X140579133Y-54706820D01*
X140430342Y-54607401D01*
X140430332Y-54607396D01*
X140265000Y-54538913D01*
X140264992Y-54538911D01*
X140089483Y-54504000D01*
X140089479Y-54504000D01*
X139910521Y-54504000D01*
X139910516Y-54504000D01*
X139735007Y-54538911D01*
X139734999Y-54538913D01*
X139569667Y-54607396D01*
X139569657Y-54607401D01*
X139420866Y-54706820D01*
X139400425Y-54727262D01*
X139360004Y-54767682D01*
X139298684Y-54801166D01*
X139272325Y-54804000D01*
X138481895Y-54804000D01*
X138414856Y-54784315D01*
X138369512Y-54732403D01*
X138367116Y-54727266D01*
X138367115Y-54727262D01*
X138274030Y-54576348D01*
X138148652Y-54450970D01*
X138025484Y-54374999D01*
X137997740Y-54357886D01*
X137997735Y-54357884D01*
X137829427Y-54302113D01*
X137725546Y-54291500D01*
X137099462Y-54291500D01*
X137099446Y-54291501D01*
X136995572Y-54302113D01*
X136827264Y-54357884D01*
X136827259Y-54357886D01*
X136676346Y-54450971D01*
X136587681Y-54539637D01*
X136526358Y-54573122D01*
X136456666Y-54568138D01*
X136412319Y-54539637D01*
X136323653Y-54450971D01*
X136323652Y-54450970D01*
X136200484Y-54374999D01*
X136172740Y-54357886D01*
X136172735Y-54357884D01*
X136004427Y-54302113D01*
X135900546Y-54291500D01*
X135274462Y-54291500D01*
X135274446Y-54291501D01*
X135170572Y-54302113D01*
X135002264Y-54357884D01*
X135002259Y-54357886D01*
X134851346Y-54450971D01*
X134725971Y-54576346D01*
X134632882Y-54727266D01*
X134606627Y-54806503D01*
X134566855Y-54863948D01*
X134502340Y-54890772D01*
X134488921Y-54891500D01*
X133919886Y-54891500D01*
X133904684Y-54895573D01*
X133904685Y-54895574D01*
X133765126Y-54932968D01*
X133765125Y-54932969D01*
X133626376Y-55013075D01*
X133626371Y-55013079D01*
X132513080Y-56126370D01*
X132513076Y-56126376D01*
X132432967Y-56265126D01*
X132432968Y-56265126D01*
X132432968Y-56265127D01*
X132391500Y-56419889D01*
X132391500Y-81696589D01*
X132382855Y-81726029D01*
X132376332Y-81756016D01*
X132372577Y-81761031D01*
X132371815Y-81763628D01*
X132355181Y-81784270D01*
X132284270Y-81855181D01*
X132222947Y-81888666D01*
X132196589Y-81891500D01*
X109303411Y-81891500D01*
X109236372Y-81871815D01*
X109215730Y-81855181D01*
X107644819Y-80284270D01*
X107611334Y-80222947D01*
X107608500Y-80196589D01*
X107608500Y-71732500D01*
X107628185Y-71665461D01*
X107680989Y-71619706D01*
X107732500Y-71608500D01*
X109672674Y-71608500D01*
X109739713Y-71628185D01*
X109785468Y-71680989D01*
X109796032Y-71719899D01*
X109802112Y-71779426D01*
X109844883Y-71908500D01*
X109857885Y-71947738D01*
X109950970Y-72098652D01*
X110076348Y-72224030D01*
X110227262Y-72317115D01*
X110395574Y-72372887D01*
X110499455Y-72383500D01*
X111400544Y-72383499D01*
X111504426Y-72372887D01*
X111672738Y-72317115D01*
X111823652Y-72224030D01*
X111949030Y-72098652D01*
X112042115Y-71947738D01*
X112097887Y-71779426D01*
X112108500Y-71675545D01*
X112108499Y-70324456D01*
X112097887Y-70220574D01*
X112042115Y-70052262D01*
X111949030Y-69901348D01*
X111867863Y-69820181D01*
X111834378Y-69758858D01*
X111839362Y-69689166D01*
X111881234Y-69633233D01*
X111946698Y-69608816D01*
X111955544Y-69608500D01*
X113044456Y-69608500D01*
X113111495Y-69628185D01*
X113157250Y-69680989D01*
X113167194Y-69750147D01*
X113138169Y-69813703D01*
X113132137Y-69820181D01*
X113050971Y-69901346D01*
X112957886Y-70052259D01*
X112957884Y-70052264D01*
X112902113Y-70220572D01*
X112891500Y-70324447D01*
X112891500Y-71675537D01*
X112891501Y-71675553D01*
X112902113Y-71779427D01*
X112934744Y-71877902D01*
X112957885Y-71947738D01*
X113050970Y-72098652D01*
X113176348Y-72224030D01*
X113327262Y-72317115D01*
X113495574Y-72372887D01*
X113599455Y-72383500D01*
X114500544Y-72383499D01*
X114604426Y-72372887D01*
X114772738Y-72317115D01*
X114923652Y-72224030D01*
X115049030Y-72098652D01*
X115142115Y-71947738D01*
X115197887Y-71779426D01*
X115203969Y-71719897D01*
X115230366Y-71655205D01*
X115287546Y-71615054D01*
X115327327Y-71608500D01*
X115696589Y-71608500D01*
X115763628Y-71628185D01*
X115784270Y-71644819D01*
X116355181Y-72215730D01*
X116388666Y-72277053D01*
X116391500Y-72303411D01*
X116391500Y-76080111D01*
X116399107Y-76108500D01*
X116432968Y-76234873D01*
X116513078Y-76373627D01*
X117126373Y-76986922D01*
X117239837Y-77052430D01*
X117265124Y-77067030D01*
X117265128Y-77067032D01*
X117419889Y-77108500D01*
X117419890Y-77108500D01*
X117580110Y-77108500D01*
X119515496Y-77108500D01*
X119582535Y-77128185D01*
X119625982Y-77176207D01*
X119630873Y-77185807D01*
X119751926Y-77352423D01*
X119751930Y-77352428D01*
X119897571Y-77498069D01*
X119897576Y-77498073D01*
X120042908Y-77603661D01*
X120064197Y-77619129D01*
X120181128Y-77678709D01*
X120247705Y-77712632D01*
X120247707Y-77712632D01*
X120247710Y-77712634D01*
X120316158Y-77734874D01*
X120443591Y-77776280D01*
X120545305Y-77792390D01*
X120647019Y-77808500D01*
X120647020Y-77808500D01*
X120852980Y-77808500D01*
X120852981Y-77808500D01*
X121056408Y-77776280D01*
X121252290Y-77712634D01*
X121435803Y-77619129D01*
X121602430Y-77498068D01*
X121748068Y-77352430D01*
X121869129Y-77185803D01*
X121962634Y-77002290D01*
X122026280Y-76806408D01*
X122058500Y-76602981D01*
X122058500Y-76397682D01*
X122950000Y-76397682D01*
X122950000Y-76602317D01*
X122982009Y-76804417D01*
X123045244Y-76999031D01*
X123138141Y-77181350D01*
X123138147Y-77181359D01*
X123170523Y-77225921D01*
X123170524Y-77225922D01*
X123850000Y-76546446D01*
X123850000Y-76552661D01*
X123877259Y-76654394D01*
X123929920Y-76745606D01*
X124004394Y-76820080D01*
X124095606Y-76872741D01*
X124197339Y-76900000D01*
X124203553Y-76900000D01*
X123524076Y-77579474D01*
X123568650Y-77611859D01*
X123750968Y-77704755D01*
X123945582Y-77767990D01*
X124147683Y-77800000D01*
X124352317Y-77800000D01*
X124554417Y-77767990D01*
X124749031Y-77704755D01*
X124931349Y-77611859D01*
X124975921Y-77579474D01*
X124296447Y-76900000D01*
X124302661Y-76900000D01*
X124404394Y-76872741D01*
X124495606Y-76820080D01*
X124570080Y-76745606D01*
X124622741Y-76654394D01*
X124650000Y-76552661D01*
X124650000Y-76546447D01*
X125329474Y-77225921D01*
X125361859Y-77181349D01*
X125454755Y-76999031D01*
X125517990Y-76804417D01*
X125550000Y-76602317D01*
X125550000Y-76397682D01*
X125517990Y-76195582D01*
X125454755Y-76000968D01*
X125361859Y-75818650D01*
X125329474Y-75774077D01*
X125329474Y-75774076D01*
X124650000Y-76453551D01*
X124650000Y-76447339D01*
X124622741Y-76345606D01*
X124570080Y-76254394D01*
X124495606Y-76179920D01*
X124404394Y-76127259D01*
X124302661Y-76100000D01*
X124296446Y-76100000D01*
X124975922Y-75420524D01*
X124975921Y-75420523D01*
X124931359Y-75388147D01*
X124931350Y-75388141D01*
X124749031Y-75295244D01*
X124554417Y-75232009D01*
X124352317Y-75200000D01*
X124147683Y-75200000D01*
X123945582Y-75232009D01*
X123750968Y-75295244D01*
X123568644Y-75388143D01*
X123524077Y-75420523D01*
X123524077Y-75420524D01*
X124203554Y-76100000D01*
X124197339Y-76100000D01*
X124095606Y-76127259D01*
X124004394Y-76179920D01*
X123929920Y-76254394D01*
X123877259Y-76345606D01*
X123850000Y-76447339D01*
X123850000Y-76453553D01*
X123170524Y-75774077D01*
X123170523Y-75774077D01*
X123138143Y-75818644D01*
X123045244Y-76000968D01*
X122982009Y-76195582D01*
X122950000Y-76397682D01*
X122058500Y-76397682D01*
X122058500Y-76397019D01*
X122035910Y-76254394D01*
X122026280Y-76193591D01*
X121989408Y-76080111D01*
X121962634Y-75997710D01*
X121962632Y-75997707D01*
X121962632Y-75997705D01*
X121904112Y-75882855D01*
X121869129Y-75814197D01*
X121811498Y-75734874D01*
X121748073Y-75647576D01*
X121748069Y-75647571D01*
X121602428Y-75501930D01*
X121602423Y-75501926D01*
X121435806Y-75380873D01*
X121435805Y-75380872D01*
X121435803Y-75380871D01*
X121370458Y-75347576D01*
X121252294Y-75287367D01*
X121056408Y-75223719D01*
X120880794Y-75195905D01*
X120852981Y-75191500D01*
X120647019Y-75191500D01*
X120622550Y-75195375D01*
X120443591Y-75223719D01*
X120247705Y-75287367D01*
X120064193Y-75380873D01*
X119897576Y-75501926D01*
X119897571Y-75501930D01*
X119751930Y-75647571D01*
X119751926Y-75647576D01*
X119630873Y-75814192D01*
X119625982Y-75823793D01*
X119578008Y-75874590D01*
X119515496Y-75891500D01*
X117803411Y-75891500D01*
X117773970Y-75882855D01*
X117743984Y-75876332D01*
X117738968Y-75872577D01*
X117736372Y-75871815D01*
X117715730Y-75855181D01*
X117644819Y-75784270D01*
X117611334Y-75722947D01*
X117608500Y-75696589D01*
X117608500Y-72303411D01*
X117628185Y-72236372D01*
X117644819Y-72215730D01*
X118215730Y-71644819D01*
X118277053Y-71611334D01*
X118303411Y-71608500D01*
X128080109Y-71608500D01*
X128080110Y-71608500D01*
X128080111Y-71608500D01*
X128157491Y-71587766D01*
X128234873Y-71567032D01*
X128373627Y-71486922D01*
X129486922Y-70373627D01*
X129567032Y-70234872D01*
X129608500Y-70080110D01*
X129608500Y-69919889D01*
X129608500Y-62919889D01*
X129567032Y-62765128D01*
X129556705Y-62747242D01*
X129486923Y-62626375D01*
X129486922Y-62626373D01*
X129486921Y-62626372D01*
X129373628Y-62513079D01*
X128373627Y-61513078D01*
X128234873Y-61432968D01*
X128143556Y-61408500D01*
X128143555Y-61408499D01*
X128097110Y-61396054D01*
X128080111Y-61391500D01*
X118919889Y-61391500D01*
X118813939Y-61419888D01*
X118813940Y-61419889D01*
X118765126Y-61432968D01*
X118765125Y-61432969D01*
X118626376Y-61513075D01*
X118626371Y-61513079D01*
X117513080Y-62626370D01*
X117513076Y-62626376D01*
X117432969Y-62765124D01*
X117432968Y-62765125D01*
X117425146Y-62794321D01*
X117419820Y-62814197D01*
X117404545Y-62871204D01*
X117391500Y-62919889D01*
X117391500Y-64080109D01*
X117432968Y-64234874D01*
X117444707Y-64255206D01*
X117513078Y-64373627D01*
X118626373Y-65486922D01*
X118714341Y-65537710D01*
X118765128Y-65567032D01*
X118919889Y-65608500D01*
X118919890Y-65608500D01*
X119077329Y-65608500D01*
X119085141Y-65610794D01*
X119093183Y-65609518D01*
X119118177Y-65620494D01*
X119144368Y-65628185D01*
X119149699Y-65634337D01*
X119157155Y-65637612D01*
X119172248Y-65660361D01*
X119190123Y-65680989D01*
X119191281Y-65689047D01*
X119195784Y-65695833D01*
X119196182Y-65723128D01*
X119200067Y-65750147D01*
X119196710Y-65759350D01*
X119196803Y-65765695D01*
X119188013Y-65783199D01*
X119182612Y-65798010D01*
X119177476Y-65806263D01*
X119175547Y-65808193D01*
X119161563Y-65831837D01*
X119160834Y-65833010D01*
X119135754Y-65855390D01*
X119111214Y-65878304D01*
X119109666Y-65878670D01*
X119108703Y-65879531D01*
X119100642Y-65880810D01*
X119055551Y-65891500D01*
X118909889Y-65891500D01*
X118755128Y-65932968D01*
X118755127Y-65932968D01*
X118755125Y-65932969D01*
X118755124Y-65932969D01*
X118616375Y-66013076D01*
X118616373Y-66013078D01*
X118503078Y-66126372D01*
X118497579Y-66135897D01*
X118477875Y-66161574D01*
X117784270Y-66855181D01*
X117722947Y-66888666D01*
X117696589Y-66891500D01*
X115649979Y-66891500D01*
X115582940Y-66871815D01*
X115562297Y-66855180D01*
X115520634Y-66813516D01*
X115520626Y-66813510D01*
X115379597Y-66730106D01*
X115379592Y-66730104D01*
X115222258Y-66684394D01*
X115222252Y-66684393D01*
X115185489Y-66681500D01*
X115185484Y-66681500D01*
X114774516Y-66681500D01*
X114774510Y-66681500D01*
X114737747Y-66684393D01*
X114737741Y-66684394D01*
X114580404Y-66730105D01*
X114580401Y-66730106D01*
X114554771Y-66745264D01*
X114487047Y-66762446D01*
X114428528Y-66745262D01*
X114416194Y-66737967D01*
X114416190Y-66737966D01*
X114270001Y-66695493D01*
X114270000Y-66695494D01*
X114270000Y-66985931D01*
X114252733Y-67049050D01*
X114240108Y-67070397D01*
X114240104Y-67070407D01*
X114194394Y-67227741D01*
X114194393Y-67227747D01*
X114191500Y-67264510D01*
X114191500Y-67376000D01*
X114171815Y-67443039D01*
X114119011Y-67488794D01*
X114067500Y-67500000D01*
X114020000Y-67500000D01*
X114020000Y-67626000D01*
X114000315Y-67693039D01*
X113947511Y-67738794D01*
X113896000Y-67750000D01*
X113241210Y-67750000D01*
X113242854Y-67770910D01*
X113287968Y-67926195D01*
X113370278Y-68065374D01*
X113370285Y-68065383D01*
X113484721Y-68179819D01*
X113518206Y-68241142D01*
X113513222Y-68310834D01*
X113471350Y-68366767D01*
X113405886Y-68391184D01*
X113397040Y-68391500D01*
X108419889Y-68391500D01*
X108342508Y-68412233D01*
X108342508Y-68412234D01*
X108265127Y-68432968D01*
X108265125Y-68432968D01*
X108265125Y-68432969D01*
X108126372Y-68513079D01*
X108126369Y-68513081D01*
X106584270Y-70055181D01*
X106522947Y-70088666D01*
X106496589Y-70091500D01*
X106410516Y-70091500D01*
X106235007Y-70126411D01*
X106234999Y-70126413D01*
X106069667Y-70194896D01*
X106069657Y-70194901D01*
X105920866Y-70294320D01*
X105896176Y-70319011D01*
X105860004Y-70355182D01*
X105798684Y-70388666D01*
X105772325Y-70391500D01*
X100115414Y-70391500D01*
X100048375Y-70371815D01*
X100002620Y-70319011D01*
X99992676Y-70249853D01*
X100021701Y-70186297D01*
X100054614Y-70162166D01*
X100053483Y-70160253D01*
X100201552Y-70072685D01*
X100201561Y-70072678D01*
X100317678Y-69956561D01*
X100317685Y-69956552D01*
X100401281Y-69815198D01*
X100447100Y-69657486D01*
X100447295Y-69655001D01*
X100447295Y-69655000D01*
X97502705Y-69655000D01*
X97502704Y-69655001D01*
X97502899Y-69657486D01*
X97548718Y-69815198D01*
X97632314Y-69956552D01*
X97632321Y-69956561D01*
X97748438Y-70072678D01*
X97748447Y-70072685D01*
X97896517Y-70160253D01*
X97894931Y-70162933D01*
X97937542Y-70198392D01*
X97958561Y-70265025D01*
X97940219Y-70332444D01*
X97888339Y-70379244D01*
X97834586Y-70391500D01*
X95165414Y-70391500D01*
X95098375Y-70371815D01*
X95052620Y-70319011D01*
X95042676Y-70249853D01*
X95071701Y-70186297D01*
X95104614Y-70162166D01*
X95103483Y-70160253D01*
X95251552Y-70072685D01*
X95251561Y-70072678D01*
X95367678Y-69956561D01*
X95367685Y-69956552D01*
X95451281Y-69815198D01*
X95497100Y-69657486D01*
X95497295Y-69655001D01*
X95497295Y-69655000D01*
X94149000Y-69655000D01*
X94081961Y-69635315D01*
X94036206Y-69582511D01*
X94025000Y-69531000D01*
X94025000Y-69279000D01*
X94044685Y-69211961D01*
X94097489Y-69166206D01*
X94149000Y-69155000D01*
X95497295Y-69155000D01*
X95497295Y-69154998D01*
X95497100Y-69152513D01*
X95451281Y-68994801D01*
X95367683Y-68853443D01*
X95367031Y-68852603D01*
X95366725Y-68851824D01*
X95363712Y-68846729D01*
X95364534Y-68846242D01*
X95341499Y-68787565D01*
X95355182Y-68719048D01*
X95370318Y-68698468D01*
X95369673Y-68697968D01*
X95374445Y-68691814D01*
X95374453Y-68691807D01*
X95459145Y-68548601D01*
X95504787Y-68391500D01*
X95505561Y-68388835D01*
X95505562Y-68388829D01*
X95505863Y-68385001D01*
X97502704Y-68385001D01*
X97502899Y-68387486D01*
X97548718Y-68545198D01*
X97632314Y-68686552D01*
X97637100Y-68692722D01*
X97634753Y-68694542D01*
X97661564Y-68743642D01*
X97656580Y-68813334D01*
X97635541Y-68846069D01*
X97637100Y-68847278D01*
X97632314Y-68853447D01*
X97548718Y-68994801D01*
X97502899Y-69152513D01*
X97502704Y-69154998D01*
X97502705Y-69155000D01*
X98725000Y-69155000D01*
X99225000Y-69155000D01*
X100447295Y-69155000D01*
X100447295Y-69154998D01*
X100447100Y-69152513D01*
X100401281Y-68994801D01*
X100317685Y-68853447D01*
X100312900Y-68847278D01*
X100315252Y-68845453D01*
X100288445Y-68796405D01*
X100293402Y-68726712D01*
X100314465Y-68693936D01*
X100312900Y-68692722D01*
X100317685Y-68686552D01*
X100401281Y-68545198D01*
X100447100Y-68387486D01*
X100447295Y-68385001D01*
X100447295Y-68385000D01*
X99225000Y-68385000D01*
X99225000Y-69155000D01*
X98725000Y-69155000D01*
X98725000Y-68385000D01*
X97502705Y-68385000D01*
X97502704Y-68385001D01*
X95505863Y-68385001D01*
X95508500Y-68351502D01*
X95508500Y-67918498D01*
X95505562Y-67881169D01*
X95498135Y-67855606D01*
X95463237Y-67735484D01*
X95459145Y-67721399D01*
X95424407Y-67662661D01*
X95374456Y-67578197D01*
X95372755Y-67576005D01*
X95371956Y-67573970D01*
X95370482Y-67571478D01*
X95370883Y-67571240D01*
X95347217Y-67510970D01*
X95360894Y-67442452D01*
X95372755Y-67423995D01*
X95374449Y-67421810D01*
X95374453Y-67421807D01*
X95376414Y-67418492D01*
X95398323Y-67381445D01*
X95459145Y-67278601D01*
X95505562Y-67118831D01*
X95505863Y-67115001D01*
X97502704Y-67115001D01*
X97502899Y-67117486D01*
X97548718Y-67275198D01*
X97632314Y-67416552D01*
X97637100Y-67422722D01*
X97634753Y-67424542D01*
X97661564Y-67473642D01*
X97656580Y-67543334D01*
X97635541Y-67576069D01*
X97637100Y-67577278D01*
X97632314Y-67583447D01*
X97548718Y-67724801D01*
X97502899Y-67882513D01*
X97502704Y-67884998D01*
X97502705Y-67885000D01*
X98725000Y-67885000D01*
X99225000Y-67885000D01*
X100447295Y-67885000D01*
X100447295Y-67884998D01*
X100447100Y-67882513D01*
X100401281Y-67724801D01*
X100317685Y-67583447D01*
X100312900Y-67577278D01*
X100315252Y-67575453D01*
X100288445Y-67526405D01*
X100293402Y-67456712D01*
X100301428Y-67439382D01*
X100407553Y-67249999D01*
X113241209Y-67249999D01*
X113241210Y-67250000D01*
X113770000Y-67250000D01*
X113770000Y-66695494D01*
X113769998Y-66695493D01*
X113623809Y-66737965D01*
X113623806Y-66737967D01*
X113484625Y-66820278D01*
X113484616Y-66820285D01*
X113370285Y-66934616D01*
X113370278Y-66934625D01*
X113287968Y-67073804D01*
X113287966Y-67073809D01*
X113242855Y-67229081D01*
X113242854Y-67229087D01*
X113241209Y-67249999D01*
X100407553Y-67249999D01*
X100409732Y-67246110D01*
X100447099Y-67117494D01*
X100447100Y-67117488D01*
X100447295Y-67115001D01*
X100447295Y-67115000D01*
X99225000Y-67115000D01*
X99225000Y-67885000D01*
X98725000Y-67885000D01*
X98725000Y-67115000D01*
X97502705Y-67115000D01*
X97502704Y-67115001D01*
X95505863Y-67115001D01*
X95508500Y-67081502D01*
X95508500Y-66648498D01*
X95505562Y-66611169D01*
X95496944Y-66581507D01*
X95459146Y-66451403D01*
X95459145Y-66451399D01*
X95421916Y-66388449D01*
X95374456Y-66308197D01*
X95372755Y-66306005D01*
X95371956Y-66303970D01*
X95370482Y-66301478D01*
X95370883Y-66301240D01*
X95347217Y-66240970D01*
X95360894Y-66172452D01*
X95372755Y-66153995D01*
X95374449Y-66151810D01*
X95374453Y-66151807D01*
X95376414Y-66148492D01*
X95392177Y-66121837D01*
X95459145Y-66008601D01*
X95502300Y-65860059D01*
X95505561Y-65848835D01*
X95505562Y-65848829D01*
X95505863Y-65845001D01*
X97502704Y-65845001D01*
X97502899Y-65847486D01*
X97548718Y-66005198D01*
X97632314Y-66146552D01*
X97637100Y-66152722D01*
X97634753Y-66154542D01*
X97661564Y-66203642D01*
X97656580Y-66273334D01*
X97635541Y-66306069D01*
X97637100Y-66307278D01*
X97632314Y-66313447D01*
X97548718Y-66454801D01*
X97502899Y-66612513D01*
X97502704Y-66614998D01*
X97502705Y-66615000D01*
X98725000Y-66615000D01*
X99225000Y-66615000D01*
X100447295Y-66615000D01*
X100447295Y-66614998D01*
X100447100Y-66612513D01*
X100401281Y-66454801D01*
X100317685Y-66313447D01*
X100312900Y-66307278D01*
X100315252Y-66305453D01*
X100288445Y-66256405D01*
X100293402Y-66186712D01*
X100314465Y-66153936D01*
X100312900Y-66152722D01*
X100317685Y-66146552D01*
X100401281Y-66005198D01*
X100447100Y-65847486D01*
X100447295Y-65845001D01*
X100447295Y-65845000D01*
X99225000Y-65845000D01*
X99225000Y-66615000D01*
X98725000Y-66615000D01*
X98725000Y-65845000D01*
X97502705Y-65845000D01*
X97502704Y-65845001D01*
X95505863Y-65845001D01*
X95508500Y-65811502D01*
X95508500Y-65378498D01*
X95505863Y-65344998D01*
X97502704Y-65344998D01*
X97502705Y-65345000D01*
X98725000Y-65345000D01*
X99225000Y-65345000D01*
X100447295Y-65345000D01*
X100447295Y-65344998D01*
X100447100Y-65342513D01*
X100401281Y-65184801D01*
X100317685Y-65043447D01*
X100317678Y-65043438D01*
X100201561Y-64927321D01*
X100201552Y-64927314D01*
X100060196Y-64843717D01*
X100060193Y-64843716D01*
X99902495Y-64797900D01*
X99902489Y-64797899D01*
X99865649Y-64795000D01*
X99225000Y-64795000D01*
X99225000Y-65345000D01*
X98725000Y-65345000D01*
X98725000Y-64795000D01*
X98084350Y-64795000D01*
X98047510Y-64797899D01*
X98047504Y-64797900D01*
X97889806Y-64843716D01*
X97889803Y-64843717D01*
X97748447Y-64927314D01*
X97748438Y-64927321D01*
X97632321Y-65043438D01*
X97632314Y-65043447D01*
X97548718Y-65184801D01*
X97502899Y-65342513D01*
X97502704Y-65344998D01*
X95505863Y-65344998D01*
X95505562Y-65341169D01*
X95496944Y-65311507D01*
X95468533Y-65213713D01*
X95459145Y-65181399D01*
X95374453Y-65038193D01*
X95374451Y-65038191D01*
X95374448Y-65038187D01*
X95256812Y-64920551D01*
X95256803Y-64920544D01*
X95113601Y-64835855D01*
X95113596Y-64835853D01*
X94953835Y-64789438D01*
X94953829Y-64789437D01*
X94916507Y-64786500D01*
X94916502Y-64786500D01*
X93133498Y-64786500D01*
X93133492Y-64786500D01*
X93096170Y-64789437D01*
X93096164Y-64789438D01*
X92936403Y-64835853D01*
X92936398Y-64835855D01*
X92895310Y-64860155D01*
X92871506Y-64874232D01*
X92808387Y-64891500D01*
X92503974Y-64891500D01*
X92438981Y-64872415D01*
X92438911Y-64872538D01*
X92438407Y-64872247D01*
X92436935Y-64871815D01*
X92433608Y-64869476D01*
X92431871Y-64868473D01*
X92283853Y-64807163D01*
X92283851Y-64807162D01*
X92283850Y-64807162D01*
X92164885Y-64791500D01*
X91650113Y-64791500D01*
X91531152Y-64807160D01*
X91531148Y-64807162D01*
X91531105Y-64807180D01*
X91531058Y-64807186D01*
X91523300Y-64809265D01*
X91523026Y-64808243D01*
X91467473Y-64815555D01*
X91349330Y-64800000D01*
X91292500Y-64800000D01*
X91292500Y-64878163D01*
X91272815Y-64945202D01*
X91256181Y-64965844D01*
X91256017Y-64966007D01*
X91158475Y-65093125D01*
X91131061Y-65159310D01*
X91087220Y-65213713D01*
X91020926Y-65235778D01*
X90953227Y-65218499D01*
X90905616Y-65167362D01*
X90892500Y-65111857D01*
X90892500Y-64800000D01*
X90892499Y-64799999D01*
X90835676Y-64800000D01*
X90718371Y-64815442D01*
X90718366Y-64815444D01*
X90572414Y-64875899D01*
X90447075Y-64972075D01*
X90350899Y-65097413D01*
X90290444Y-65243368D01*
X90282987Y-65300000D01*
X90000000Y-65300000D01*
X90000000Y-60410516D01*
X115091500Y-60410516D01*
X115091500Y-60589483D01*
X115126411Y-60764992D01*
X115126413Y-60765000D01*
X115194896Y-60930332D01*
X115194901Y-60930342D01*
X115294321Y-61079134D01*
X115294324Y-61079138D01*
X115420861Y-61205675D01*
X115420865Y-61205678D01*
X115569657Y-61305098D01*
X115569661Y-61305100D01*
X115569664Y-61305102D01*
X115735000Y-61373587D01*
X115825056Y-61391500D01*
X115910516Y-61408499D01*
X115910520Y-61408500D01*
X115910521Y-61408500D01*
X116089480Y-61408500D01*
X116089481Y-61408499D01*
X116265000Y-61373587D01*
X116430336Y-61305102D01*
X116579135Y-61205678D01*
X116639995Y-61144817D01*
X116701316Y-61111334D01*
X116727675Y-61108500D01*
X129580109Y-61108500D01*
X129580110Y-61108500D01*
X129580111Y-61108500D01*
X129657491Y-61087766D01*
X129734873Y-61067032D01*
X129873627Y-60986922D01*
X130986922Y-59873627D01*
X131067032Y-59734872D01*
X131076636Y-59699030D01*
X131081395Y-59681272D01*
X131091315Y-59644244D01*
X131108500Y-59580111D01*
X131108500Y-55919889D01*
X131067032Y-55765128D01*
X131001123Y-55650970D01*
X130986922Y-55626373D01*
X129873627Y-54513078D01*
X129734873Y-54432968D01*
X129657491Y-54412234D01*
X129657490Y-54412233D01*
X129600844Y-54397055D01*
X129580111Y-54391500D01*
X129580110Y-54391500D01*
X129392387Y-54391500D01*
X129325348Y-54371815D01*
X129279593Y-54319011D01*
X129274456Y-54305818D01*
X129256985Y-54252049D01*
X129207982Y-54101232D01*
X129100185Y-53889668D01*
X128960620Y-53697573D01*
X128792722Y-53529675D01*
X128600627Y-53390110D01*
X128389067Y-53282314D01*
X128163241Y-53208938D01*
X127928727Y-53171795D01*
X127928722Y-53171795D01*
X127691278Y-53171795D01*
X127691273Y-53171795D01*
X127456758Y-53208938D01*
X127230932Y-53282314D01*
X127019372Y-53390110D01*
X126827275Y-53529677D01*
X126659382Y-53697570D01*
X126519815Y-53889667D01*
X126412019Y-54101227D01*
X126338643Y-54327053D01*
X126301500Y-54561567D01*
X126301500Y-54799022D01*
X126338643Y-55033536D01*
X126412019Y-55259362D01*
X126517540Y-55466458D01*
X126519815Y-55470922D01*
X126659380Y-55663017D01*
X126659382Y-55663019D01*
X126662244Y-55666958D01*
X126660423Y-55668280D01*
X126685217Y-55723493D01*
X126674836Y-55792587D01*
X126628748Y-55845100D01*
X126627469Y-55845901D01*
X126586346Y-55871266D01*
X126460971Y-55996641D01*
X126367886Y-56147554D01*
X126367884Y-56147559D01*
X126312113Y-56315867D01*
X126301500Y-56419742D01*
X126301500Y-58020832D01*
X126301501Y-58020848D01*
X126312113Y-58124722D01*
X126335366Y-58194896D01*
X126367885Y-58293033D01*
X126460970Y-58443947D01*
X126586348Y-58569325D01*
X126737262Y-58662410D01*
X126905574Y-58718182D01*
X127009455Y-58728795D01*
X128610544Y-58728794D01*
X128714426Y-58718182D01*
X128882738Y-58662410D01*
X129033652Y-58569325D01*
X129159030Y-58443947D01*
X129252115Y-58293033D01*
X129307887Y-58124721D01*
X129318500Y-58020840D01*
X129318499Y-56419751D01*
X129307887Y-56315869D01*
X129252115Y-56147557D01*
X129159030Y-55996643D01*
X129033652Y-55871265D01*
X129033651Y-55871264D01*
X128992531Y-55845901D01*
X128983118Y-55835435D01*
X128970707Y-55828797D01*
X128960217Y-55809975D01*
X128945807Y-55793953D01*
X128943546Y-55780059D01*
X128936695Y-55767765D01*
X128938046Y-55746259D01*
X128934586Y-55724990D01*
X128940282Y-55710692D01*
X128941078Y-55698033D01*
X128954445Y-55675144D01*
X128957725Y-55666912D01*
X128960501Y-55663135D01*
X128960620Y-55663017D01*
X128963245Y-55659403D01*
X128963506Y-55659049D01*
X128991030Y-55638071D01*
X129018425Y-55616948D01*
X129018850Y-55616868D01*
X129019076Y-55616696D01*
X129020281Y-55616599D01*
X129063410Y-55608500D01*
X129196589Y-55608500D01*
X129263628Y-55628185D01*
X129284270Y-55644819D01*
X129855181Y-56215730D01*
X129888666Y-56277053D01*
X129891500Y-56303411D01*
X129891500Y-59196589D01*
X129871815Y-59263628D01*
X129855181Y-59284270D01*
X129284270Y-59855181D01*
X129222947Y-59888666D01*
X129196589Y-59891500D01*
X116727675Y-59891500D01*
X116660636Y-59871815D01*
X116639998Y-59855185D01*
X116579135Y-59794322D01*
X116579134Y-59794321D01*
X116579133Y-59794320D01*
X116430342Y-59694901D01*
X116430332Y-59694896D01*
X116265000Y-59626413D01*
X116264992Y-59626411D01*
X116089483Y-59591500D01*
X116089479Y-59591500D01*
X115910521Y-59591500D01*
X115910516Y-59591500D01*
X115735007Y-59626411D01*
X115734999Y-59626413D01*
X115569667Y-59694896D01*
X115569657Y-59694901D01*
X115420865Y-59794321D01*
X115420861Y-59794324D01*
X115294324Y-59920861D01*
X115294321Y-59920865D01*
X115194901Y-60069657D01*
X115194896Y-60069667D01*
X115126413Y-60234999D01*
X115126411Y-60235007D01*
X115091500Y-60410516D01*
X90000000Y-60410516D01*
X90000000Y-54562242D01*
X118690000Y-54562242D01*
X118690000Y-54798347D01*
X118726934Y-55031542D01*
X118799897Y-55256097D01*
X118907087Y-55466469D01*
X118967338Y-55549399D01*
X118967340Y-55549400D01*
X119707037Y-54809703D01*
X119724075Y-54873288D01*
X119789901Y-54987302D01*
X119882993Y-55080394D01*
X119997007Y-55146220D01*
X120060590Y-55163257D01*
X119320893Y-55902953D01*
X119323854Y-55940571D01*
X119323854Y-55960028D01*
X119320894Y-55997635D01*
X120060591Y-56737332D01*
X119997007Y-56754370D01*
X119882993Y-56820196D01*
X119789901Y-56913288D01*
X119724075Y-57027302D01*
X119707037Y-57090886D01*
X118967340Y-56351189D01*
X118907084Y-56434125D01*
X118799897Y-56644492D01*
X118726934Y-56869047D01*
X118690000Y-57102242D01*
X118690000Y-57338347D01*
X118726934Y-57571542D01*
X118799897Y-57796097D01*
X118907087Y-58006469D01*
X118967338Y-58089399D01*
X118967340Y-58089400D01*
X119707037Y-57349703D01*
X119724075Y-57413288D01*
X119789901Y-57527302D01*
X119882993Y-57620394D01*
X119997007Y-57686220D01*
X120060590Y-57703257D01*
X119320893Y-58442953D01*
X119403828Y-58503209D01*
X119614197Y-58610397D01*
X119838752Y-58683360D01*
X119838751Y-58683360D01*
X120071948Y-58720295D01*
X120308052Y-58720295D01*
X120541247Y-58683360D01*
X120765802Y-58610397D01*
X120976163Y-58503213D01*
X120976169Y-58503209D01*
X121059104Y-58442953D01*
X121059105Y-58442953D01*
X120319408Y-57703257D01*
X120382993Y-57686220D01*
X120497007Y-57620394D01*
X120590099Y-57527302D01*
X120655925Y-57413288D01*
X120672962Y-57349704D01*
X121412658Y-58089400D01*
X121412658Y-58089399D01*
X121472914Y-58006464D01*
X121472918Y-58006458D01*
X121580102Y-57796097D01*
X121653065Y-57571542D01*
X121690000Y-57338347D01*
X121690000Y-57102242D01*
X121653065Y-56869047D01*
X121580102Y-56644492D01*
X121472914Y-56434123D01*
X121412658Y-56351189D01*
X121412658Y-56351188D01*
X120672962Y-57090885D01*
X120655925Y-57027302D01*
X120590099Y-56913288D01*
X120497007Y-56820196D01*
X120382993Y-56754370D01*
X120319409Y-56737332D01*
X121059104Y-55997635D01*
X121056144Y-55960030D01*
X121056144Y-55940570D01*
X121059104Y-55902952D01*
X120319408Y-55163257D01*
X120382993Y-55146220D01*
X120497007Y-55080394D01*
X120590099Y-54987302D01*
X120655925Y-54873288D01*
X120672962Y-54809704D01*
X121412658Y-55549400D01*
X121412658Y-55549399D01*
X121472914Y-55466464D01*
X121472918Y-55466458D01*
X121580102Y-55256097D01*
X121653065Y-55031542D01*
X121690000Y-54798347D01*
X121690000Y-54562242D01*
X121653065Y-54329047D01*
X121580102Y-54104492D01*
X121472914Y-53894123D01*
X121412658Y-53811189D01*
X121412658Y-53811188D01*
X120672962Y-54550885D01*
X120655925Y-54487302D01*
X120590099Y-54373288D01*
X120497007Y-54280196D01*
X120382993Y-54214370D01*
X120319409Y-54197332D01*
X121059105Y-53457635D01*
X121059104Y-53457633D01*
X120976174Y-53397382D01*
X120765802Y-53290192D01*
X120541247Y-53217229D01*
X120541248Y-53217229D01*
X120308052Y-53180295D01*
X120071948Y-53180295D01*
X119838752Y-53217229D01*
X119614197Y-53290192D01*
X119403830Y-53397379D01*
X119320894Y-53457635D01*
X120060591Y-54197332D01*
X119997007Y-54214370D01*
X119882993Y-54280196D01*
X119789901Y-54373288D01*
X119724075Y-54487302D01*
X119707037Y-54550886D01*
X118967340Y-53811189D01*
X118907084Y-53894125D01*
X118799897Y-54104492D01*
X118726934Y-54329047D01*
X118690000Y-54562242D01*
X90000000Y-54562242D01*
X90000000Y-49481567D01*
X118681500Y-49481567D01*
X118681500Y-49719022D01*
X118718643Y-49953536D01*
X118792019Y-50179362D01*
X118856088Y-50305103D01*
X118899815Y-50390922D01*
X119039380Y-50583017D01*
X119207278Y-50750915D01*
X119399373Y-50890480D01*
X119499328Y-50941409D01*
X119610932Y-50998275D01*
X119610934Y-50998275D01*
X119610937Y-50998277D01*
X119731984Y-51037607D01*
X119836758Y-51071651D01*
X120071273Y-51108795D01*
X120071278Y-51108795D01*
X120308727Y-51108795D01*
X120543241Y-51071651D01*
X120769063Y-50998277D01*
X120980627Y-50890480D01*
X121172722Y-50750915D01*
X121340620Y-50583017D01*
X121480185Y-50390922D01*
X121587982Y-50179358D01*
X121661356Y-49953536D01*
X121665031Y-49930332D01*
X121698500Y-49719022D01*
X121698500Y-49481567D01*
X121661356Y-49247053D01*
X121603719Y-49069667D01*
X121587982Y-49021232D01*
X121587980Y-49021229D01*
X121587980Y-49021227D01*
X121484945Y-48819011D01*
X121480185Y-48809668D01*
X121340620Y-48617573D01*
X121172722Y-48449675D01*
X120980627Y-48310110D01*
X120769067Y-48202314D01*
X120543241Y-48128938D01*
X120308727Y-48091795D01*
X120308722Y-48091795D01*
X120071278Y-48091795D01*
X120071273Y-48091795D01*
X119836758Y-48128938D01*
X119610932Y-48202314D01*
X119399372Y-48310110D01*
X119207275Y-48449677D01*
X119039382Y-48617570D01*
X118899815Y-48809667D01*
X118792019Y-49021227D01*
X118718643Y-49247053D01*
X118681500Y-49481567D01*
X90000000Y-49481567D01*
X90000000Y-46847844D01*
X132950000Y-46847844D01*
X132956401Y-46907372D01*
X132956403Y-46907379D01*
X133006645Y-47042086D01*
X133006649Y-47042093D01*
X133092809Y-47157187D01*
X133092812Y-47157190D01*
X133207906Y-47243350D01*
X133207913Y-47243354D01*
X133342620Y-47293596D01*
X133342627Y-47293598D01*
X133402155Y-47299999D01*
X133402172Y-47300000D01*
X133650000Y-47300000D01*
X133650000Y-46750000D01*
X132950000Y-46750000D01*
X132950000Y-46847844D01*
X90000000Y-46847844D01*
X90000000Y-46152155D01*
X132950000Y-46152155D01*
X132950000Y-46250000D01*
X133650000Y-46250000D01*
X134150000Y-46250000D01*
X134850000Y-46250000D01*
X134850000Y-46152172D01*
X134849999Y-46152155D01*
X138550000Y-46152155D01*
X138550000Y-46250000D01*
X139250000Y-46250000D01*
X139750000Y-46250000D01*
X140450000Y-46250000D01*
X140450000Y-46152172D01*
X140449999Y-46152155D01*
X140443598Y-46092627D01*
X140443596Y-46092620D01*
X140393354Y-45957913D01*
X140393350Y-45957906D01*
X140307190Y-45842812D01*
X140307187Y-45842809D01*
X140192093Y-45756649D01*
X140192086Y-45756645D01*
X140057379Y-45706403D01*
X140057372Y-45706401D01*
X139997844Y-45700000D01*
X139750000Y-45700000D01*
X139750000Y-46250000D01*
X139250000Y-46250000D01*
X139250000Y-45700000D01*
X139002155Y-45700000D01*
X138942627Y-45706401D01*
X138942620Y-45706403D01*
X138807913Y-45756645D01*
X138807906Y-45756649D01*
X138692812Y-45842809D01*
X138692809Y-45842812D01*
X138606649Y-45957906D01*
X138606645Y-45957913D01*
X138556403Y-46092620D01*
X138556401Y-46092627D01*
X138550000Y-46152155D01*
X134849999Y-46152155D01*
X134843598Y-46092627D01*
X134843596Y-46092620D01*
X134793354Y-45957913D01*
X134793350Y-45957906D01*
X134707190Y-45842812D01*
X134707187Y-45842809D01*
X134592093Y-45756649D01*
X134592086Y-45756645D01*
X134457379Y-45706403D01*
X134457372Y-45706401D01*
X134397844Y-45700000D01*
X134150000Y-45700000D01*
X134150000Y-46250000D01*
X133650000Y-46250000D01*
X133650000Y-45700000D01*
X133402155Y-45700000D01*
X133342627Y-45706401D01*
X133342620Y-45706403D01*
X133207913Y-45756645D01*
X133207906Y-45756649D01*
X133092812Y-45842809D01*
X133092809Y-45842812D01*
X133006649Y-45957906D01*
X133006645Y-45957913D01*
X132956403Y-46092620D01*
X132956401Y-46092627D01*
X132950000Y-46152155D01*
X90000000Y-46152155D01*
X90000000Y-44401567D01*
X118681500Y-44401567D01*
X118681500Y-44639022D01*
X118718643Y-44873536D01*
X118792019Y-45099362D01*
X118890987Y-45293596D01*
X118899815Y-45310922D01*
X119039380Y-45503017D01*
X119207278Y-45670915D01*
X119399373Y-45810480D01*
X119499328Y-45861409D01*
X119610932Y-45918275D01*
X119610934Y-45918275D01*
X119610937Y-45918277D01*
X119731984Y-45957607D01*
X119836758Y-45991651D01*
X120071273Y-46028795D01*
X120071278Y-46028795D01*
X120308727Y-46028795D01*
X120543241Y-45991651D01*
X120769063Y-45918277D01*
X120980627Y-45810480D01*
X121172722Y-45670915D01*
X121340620Y-45503017D01*
X121480185Y-45310922D01*
X121587982Y-45099358D01*
X121661356Y-44873536D01*
X121665297Y-44848654D01*
X121698500Y-44639022D01*
X121698500Y-44401567D01*
X126301500Y-44401567D01*
X126301500Y-44639022D01*
X126338643Y-44873536D01*
X126412019Y-45099362D01*
X126510987Y-45293596D01*
X126519815Y-45310922D01*
X126659380Y-45503017D01*
X126827278Y-45670915D01*
X127019373Y-45810480D01*
X127119328Y-45861409D01*
X127230932Y-45918275D01*
X127230934Y-45918275D01*
X127230937Y-45918277D01*
X127351984Y-45957607D01*
X127456758Y-45991651D01*
X127691273Y-46028795D01*
X127691278Y-46028795D01*
X127928726Y-46028795D01*
X127943986Y-46026378D01*
X127943986Y-46026377D01*
X128163241Y-45991651D01*
X128389063Y-45918277D01*
X128600627Y-45810480D01*
X128792722Y-45670915D01*
X128960620Y-45503017D01*
X129100185Y-45310922D01*
X129207982Y-45099358D01*
X129281356Y-44873536D01*
X129285297Y-44848654D01*
X129318500Y-44639022D01*
X129318500Y-44401567D01*
X129281356Y-44167053D01*
X129207980Y-43941227D01*
X129100184Y-43729667D01*
X128960620Y-43537573D01*
X128792722Y-43369675D01*
X128600627Y-43230110D01*
X128389067Y-43122314D01*
X128163241Y-43048938D01*
X127928727Y-43011795D01*
X127928722Y-43011795D01*
X127691278Y-43011795D01*
X127691273Y-43011795D01*
X127456758Y-43048938D01*
X127230932Y-43122314D01*
X127019372Y-43230110D01*
X126827275Y-43369677D01*
X126659382Y-43537570D01*
X126519815Y-43729667D01*
X126412019Y-43941227D01*
X126338643Y-44167053D01*
X126301500Y-44401567D01*
X121698500Y-44401567D01*
X121661356Y-44167053D01*
X121587980Y-43941227D01*
X121480184Y-43729667D01*
X121340620Y-43537573D01*
X121172722Y-43369675D01*
X120980627Y-43230110D01*
X120769067Y-43122314D01*
X120543241Y-43048938D01*
X120308727Y-43011795D01*
X120308722Y-43011795D01*
X120071278Y-43011795D01*
X120071273Y-43011795D01*
X119836758Y-43048938D01*
X119610932Y-43122314D01*
X119399372Y-43230110D01*
X119207275Y-43369677D01*
X119039382Y-43537570D01*
X118899815Y-43729667D01*
X118792019Y-43941227D01*
X118718643Y-44167053D01*
X118681500Y-44401567D01*
X90000000Y-44401567D01*
X90000000Y-39321567D01*
X118681500Y-39321567D01*
X118681500Y-39559022D01*
X118718643Y-39793536D01*
X118792019Y-40019362D01*
X118886953Y-40205679D01*
X118899815Y-40230922D01*
X119039380Y-40423017D01*
X119207278Y-40590915D01*
X119399373Y-40730480D01*
X119499328Y-40781409D01*
X119610932Y-40838275D01*
X119610934Y-40838275D01*
X119610937Y-40838277D01*
X119731984Y-40877607D01*
X119836758Y-40911651D01*
X120071273Y-40948795D01*
X120071278Y-40948795D01*
X120308727Y-40948795D01*
X120543241Y-40911651D01*
X120769063Y-40838277D01*
X120980627Y-40730480D01*
X121172722Y-40590915D01*
X121340620Y-40423017D01*
X121480185Y-40230922D01*
X121587982Y-40019358D01*
X121661356Y-39793536D01*
X121693675Y-39589483D01*
X121698500Y-39559022D01*
X121698500Y-39321567D01*
X126301500Y-39321567D01*
X126301500Y-39559022D01*
X126338643Y-39793536D01*
X126412019Y-40019362D01*
X126506953Y-40205679D01*
X126519815Y-40230922D01*
X126659380Y-40423017D01*
X126827278Y-40590915D01*
X127019373Y-40730480D01*
X127119328Y-40781409D01*
X127230932Y-40838275D01*
X127230934Y-40838275D01*
X127230937Y-40838277D01*
X127351984Y-40877607D01*
X127456758Y-40911651D01*
X127691273Y-40948795D01*
X127691278Y-40948795D01*
X127928727Y-40948795D01*
X128163241Y-40911651D01*
X128389063Y-40838277D01*
X128600627Y-40730480D01*
X128792722Y-40590915D01*
X128960620Y-40423017D01*
X129100185Y-40230922D01*
X129100188Y-40230917D01*
X129128066Y-40176205D01*
X129176040Y-40125409D01*
X129238550Y-40108500D01*
X131272325Y-40108500D01*
X131339364Y-40128185D01*
X131360001Y-40144814D01*
X131391392Y-40176205D01*
X131420866Y-40205679D01*
X131569657Y-40305098D01*
X131569661Y-40305100D01*
X131569664Y-40305102D01*
X131735000Y-40373587D01*
X131825056Y-40391500D01*
X131910516Y-40408499D01*
X131910520Y-40408500D01*
X131910521Y-40408500D01*
X132089480Y-40408500D01*
X132089481Y-40408499D01*
X132265000Y-40373587D01*
X132430336Y-40305102D01*
X132579135Y-40205678D01*
X132705678Y-40079135D01*
X132805102Y-39930336D01*
X132873587Y-39765000D01*
X132908500Y-39589479D01*
X132908500Y-39410521D01*
X132873587Y-39235000D01*
X132805102Y-39069664D01*
X132805100Y-39069661D01*
X132805098Y-39069657D01*
X132705678Y-38920865D01*
X132705675Y-38920861D01*
X132579138Y-38794324D01*
X132579134Y-38794321D01*
X132430342Y-38694901D01*
X132430332Y-38694896D01*
X132265000Y-38626413D01*
X132264992Y-38626411D01*
X132089483Y-38591500D01*
X132089479Y-38591500D01*
X131910521Y-38591500D01*
X131910516Y-38591500D01*
X131735007Y-38626411D01*
X131734999Y-38626413D01*
X131569667Y-38694896D01*
X131569657Y-38694901D01*
X131420866Y-38794320D01*
X131391392Y-38823795D01*
X131360004Y-38855182D01*
X131298684Y-38888666D01*
X131272325Y-38891500D01*
X129299392Y-38891500D01*
X129232353Y-38871815D01*
X129188907Y-38823795D01*
X129123232Y-38694901D01*
X129100185Y-38649668D01*
X128960620Y-38457573D01*
X128792722Y-38289675D01*
X128600627Y-38150110D01*
X128389067Y-38042314D01*
X128163241Y-37968938D01*
X127928727Y-37931795D01*
X127928722Y-37931795D01*
X127691278Y-37931795D01*
X127691273Y-37931795D01*
X127456758Y-37968938D01*
X127230932Y-38042314D01*
X127019372Y-38150110D01*
X126827275Y-38289677D01*
X126659382Y-38457570D01*
X126519815Y-38649667D01*
X126412019Y-38861227D01*
X126338643Y-39087053D01*
X126301500Y-39321567D01*
X121698500Y-39321567D01*
X121661356Y-39087053D01*
X121607358Y-38920865D01*
X121587982Y-38861232D01*
X121587980Y-38861229D01*
X121587980Y-38861227D01*
X121503231Y-38694898D01*
X121480185Y-38649668D01*
X121340620Y-38457573D01*
X121172722Y-38289675D01*
X120980627Y-38150110D01*
X120769067Y-38042314D01*
X120543241Y-37968938D01*
X120308727Y-37931795D01*
X120308722Y-37931795D01*
X120071278Y-37931795D01*
X120071273Y-37931795D01*
X119836758Y-37968938D01*
X119610932Y-38042314D01*
X119399372Y-38150110D01*
X119207275Y-38289677D01*
X119039382Y-38457570D01*
X118899815Y-38649667D01*
X118792019Y-38861227D01*
X118718643Y-39087053D01*
X118681500Y-39321567D01*
X90000000Y-39321567D01*
X90000000Y-34123312D01*
X90019685Y-34056273D01*
X90072489Y-34010518D01*
X90123306Y-33999314D01*
X179875313Y-33500692D01*
X179942459Y-33520004D01*
G37*
%TD.AperFunction*%
%TD*%
M02*
