M48
; DRILL file {KiCad 9.0.5} date 2025-10-28T23:15:49+0100
; FORMAT={-:-/ absolute / metric / decimal}
; #@! TF.CreationDate,2025-10-28T23:15:49+01:00
; #@! TF.GenerationSoftware,Kicad,Pcbnew,9.0.5
; #@! TF.FileFunction,Plated,1,2,PTH
FMAT,2
METRIC
; #@! TA.AperFunction,Plated,PTH,ViaDrill
T1C0.400
; #@! TA.AperFunction,Plated,PTH,ComponentDrill
T2C0.800
; #@! TA.AperFunction,Plated,PTH,ComponentDrill
T3C1.000
%
G90
G05
T1
X106.5Y-71.0
X116.0Y-60.5
X118.0Y-87.0
X127.5Y-66.5
X132.0Y-39.5
X134.0Y-71.0
X140.0Y-55.412
X140.0Y-89.0
X141.0Y-43.5
X142.0Y-48.0
X142.0Y-87.5
X144.5Y-58.5
X145.0Y-83.5
X145.3Y-63.5
X147.5Y-58.5
X149.5Y-63.5
X150.0Y-59.0
X154.0Y-49.5
T2
X120.5Y-97.0
X120.75Y-76.5
X124.0Y-97.0
X124.25Y-76.5
X136.0Y-60.96
X136.0Y-63.5
X136.0Y-66.04
X136.0Y-68.58
X136.0Y-71.12
X136.0Y-73.66
X136.0Y-76.2
X143.62Y-60.96
X143.62Y-63.5
X143.62Y-66.04
X143.62Y-68.58
X143.62Y-71.12
X143.62Y-73.66
X143.62Y-76.2
X151.685Y-67.61
X151.685Y-70.15
X151.685Y-82.85
X151.685Y-85.39
X159.305Y-67.61
X159.305Y-70.15
X159.305Y-82.85
X159.305Y-85.39
T3
X120.19Y-39.44
X120.19Y-44.52
X120.19Y-49.6
X120.19Y-54.68
X120.19Y-57.22
X127.81Y-39.44
X127.81Y-44.52
X127.81Y-49.6
X127.81Y-54.68
X127.81Y-57.22
M30
